<svg id="Layer_1" data-name="Layer 1" xmlns="http://www.w3.org/2000/svg" viewBox="0 0 116.12 116.12"><defs><style>.cls-1{fill:#fff;}.cls-2{stroke:#fff;stroke-miterlimit:10;}</style></defs><circle class="cls-1" cx="58.06" cy="58.06" r="58.06"/><g id="Layer_2" data-name="Layer 2"><g id="Layer_1-2" data-name="Layer 1-2"><path class="cls-2" d="M60.13,42.12A17.69,17.69,0,0,0,44.56,68.19a62.16,62.16,0,0,1,4.71,11,30.65,30.65,0,0,1,1,6.53V86A4.41,4.41,0,0,0,55,90.31H65.14A4.46,4.46,0,0,0,69.89,86c0-.42.1-.85.14-1.3a38.22,38.22,0,0,1,.71-4.64,50.83,50.83,0,0,1,4.81-11.64A17.74,17.74,0,0,0,60.07,42.12Zm6,37.33a27.18,27.18,0,0,0-.54,3.6c-.06.49-.11,1-.18,1.48a2.54,2.54,0,0,0,0,.39.24.24,0,0,1,0,.12c0,.22,0,.44-.09.65H55a12.72,12.72,0,0,1-.17-1.85,28.09,28.09,0,0,0-2.34-9.5c-1.25-3-2.5-5.7-3.8-8.22a13.34,13.34,0,0,1-.81-10.69A13,13,0,0,1,55,47.76a12.39,12.39,0,0,1,5-1.06A13.2,13.2,0,0,1,72.93,57.26a14.51,14.51,0,0,1-1.82,9.81,50.42,50.42,0,0,0-5,12.35Z" transform="translate(-2.05 -5.55)"/><path class="cls-2" d="M67.19,92.52H53a2.64,2.64,0,0,0-.27,5.27H67.2a2.64,2.64,0,0,0,.25-5.27h-.26Z" transform="translate(-2.05 -5.55)"/><path class="cls-2" d="M65.05,100H55.17a2.65,2.65,0,0,0,0,5.27h9.88a2.65,2.65,0,0,0,0-5.27Z" transform="translate(-2.05 -5.55)"/><path class="cls-2" d="M42.73,56.52a17.8,17.8,0,0,0,1.9,11.95,52.28,52.28,0,0,1,4.81,11.67,34.66,34.66,0,0,1,.71,4.64l.15,1.28a4.44,4.44,0,0,0,4.75,4.27H65.24a4.42,4.42,0,0,0,4.67-4.15v-.41a30.21,30.21,0,0,1,1-6.54,60.34,60.34,0,0,1,4.72-11,17.67,17.67,0,0,0-31.15-16.7A18.07,18.07,0,0,0,42.73,56.52ZM49.1,67.1a14.47,14.47,0,0,1-1.82-9.8,13.21,13.21,0,0,1,12.9-10.56,12.52,12.52,0,0,1,5,1,13.12,13.12,0,0,1,7.22,7.67,13.38,13.38,0,0,1-.82,10.69c-1.3,2.52-2.54,5.21-3.79,8.22a28.38,28.38,0,0,0-2.34,9.5,12.72,12.72,0,0,1-.17,1.85H63.56v0H54.91c0-.14-.06-.34-.11-.67v-.15a1.2,1.2,0,0,0,0-.38c-.07-.5-.11-1-.17-1.49a31.26,31.26,0,0,0-.54-3.6A51.34,51.34,0,0,0,49.1,67.1Z" transform="translate(-2.05 -5.55)"/><path class="cls-2" d="M53,92.54H67.18a2.64,2.64,0,0,1,.25,5.27H53a2.64,2.64,0,0,1-.26-5.27H53Z" transform="translate(-2.05 -5.55)"/><path class="cls-2" d="M55.17,100h9.88a2.65,2.65,0,0,1,0,5.27H55.17a2.65,2.65,0,0,1,0-5.27Z" transform="translate(-2.05 -5.55)"/><path class="cls-2" d="M40.75,43.22l-7-7a2.5,2.5,0,0,1,.16-3.53h0l0,0a2.48,2.48,0,0,1,3.5-.21h0l7,7a2.64,2.64,0,0,1-3.74,3.72Z" transform="translate(-2.05 -5.55)"/><path class="cls-2" d="M35.26,60.23H25.38a2.65,2.65,0,0,1,0-5.27h9.88a2.66,2.66,0,0,1,0,5.27Z" transform="translate(-2.05 -5.55)"/><path class="cls-2" d="M57.46,34.16V24.29a2.65,2.65,0,0,1,5.27,0v9.87a2.65,2.65,0,0,1-5.27,0Z" transform="translate(-2.05 -5.55)"/><path class="cls-2" d="M79.46,43.2l7-7a2.5,2.5,0,0,0-.16-3.52l-.05,0a2.5,2.5,0,0,0-3.51-.26h0l0,0-7,7a2.66,2.66,0,0,0,3.75,3.73Z" transform="translate(-2.05 -5.55)"/><path class="cls-2" d="M85,60.19h9.89a2.65,2.65,0,0,0,0-5.27H85a2.65,2.65,0,0,0,0,5.27Z" transform="translate(-2.05 -5.55)"/></g></g></svg>