<svg xmlns="http://www.w3.org/2000/svg" viewBox="0 0 35.1 35.9"><title>Asset 1</title><g id="Layer_2" data-name="Layer 2"><g id="Layer_1-2" data-name="Layer 1"><path d="M5.4,28.5a2.8,2.8,0,0,0,0-5.6,2.73,2.73,0,0,0-2.8,2.8A2.93,2.93,0,0,0,5.4,28.5Zm0-4.4a1.6,1.6,0,1,1-1.6,1.6A1.72,1.72,0,0,1,5.4,24.1Z"/><path d="M10.4,35.9a.53.53,0,0,0,.6-.6V32.9a3.54,3.54,0,0,0-3.5-3.5h-4A3.54,3.54,0,0,0,0,32.9v2.4a.53.53,0,0,0,.6.6m.5-1.2V32.9a2.33,2.33,0,0,1,2.3-2.3h4a2.33,2.33,0,0,1,2.3,2.3v1.8"/><path d="M14.7,25.7a2.8,2.8,0,1,0,2.8-2.8A2.73,2.73,0,0,0,14.7,25.7Zm4.4,0a1.6,1.6,0,1,1-1.6-1.6A1.58,1.58,0,0,1,19.1,25.7Z"/><path d="M19.5,29.4h-4A3.54,3.54,0,0,0,12,32.9v2.4a.53.53,0,0,0,.6.6h9.9a.53.53,0,0,0,.6-.6V32.9A3.7,3.7,0,0,0,19.5,29.4ZM14,34.7h-.8V32.9a2.43,2.43,0,0,1,2.4-2.4h4A2.43,2.43,0,0,1,22,32.9v1.8h-.9m-1.3,0H15.1"/><path d="M26.7,25.7a2.8,2.8,0,1,0,2.8-2.8A2.73,2.73,0,0,0,26.7,25.7Zm2.8-1.6a1.6,1.6,0,1,1-1.6,1.6A1.58,1.58,0,0,1,29.5,24.1Z"/><path d="M31.5,29.4h-4A3.54,3.54,0,0,0,24,32.9v2.4a.53.53,0,0,0,.6.6h9.9a.53.53,0,0,0,.6-.6V32.9A3.7,3.7,0,0,0,31.5,29.4Zm.4,5.3H27.2m-1.2,0h-.9V32.9a2.33,2.33,0,0,1,2.3-2.3h4a2.33,2.33,0,0,1,2.3,2.3v1.8h-.8"/><path d="M6.6,15.7h.9v6.1a.53.53,0,0,0,.6.6H26.5a.53.53,0,0,0,.6-.6V15.7H28a.53.53,0,0,0,.6-.6V12.8a.53.53,0,0,0-.6-.6H26.2V7.4c0-.1-.1-.3-.1-.4l-.6-.8a.57.57,0,1,0-.9.7l.5.6v4.6H23.2V9a2.65,2.65,0,0,0-2.6-2.6H14.3A2.65,2.65,0,0,0,11.7,9v3.1h-5a.53.53,0,0,0-.6.6V15A.54.54,0,0,0,6.6,15.7ZM26,21.3H8.8V15.8H26.1v5.5ZM12.8,9.2a1.37,1.37,0,0,1,1.4-1.4h6.3a1.37,1.37,0,0,1,1.4,1.4v3.1h-1V10.6a.6.6,0,0,0-1.2,0v1.6H15V10.6a.53.53,0,0,0-.6-.6.53.53,0,0,0-.6.6v1.6h-1v-3ZM7.2,13.3H27.6v1.2H7.2Z"/><path d="M17.4,5.6a2.8,2.8,0,1,0-2.8-2.8A2.73,2.73,0,0,0,17.4,5.6Zm0-4.5A1.58,1.58,0,0,1,19,2.7a1.6,1.6,0,0,1-3.2,0A1.58,1.58,0,0,1,17.4,1.1Z"/></g></g></svg>