<svg id="Layer_1" data-name="Layer 1" xmlns="http://www.w3.org/2000/svg" viewBox="0 0 116.12 116.12"><defs><style>.cls-1{fill:#fff;}.cls-2{stroke:#000;stroke-miterlimit:10;stroke-width:1.5px;}</style></defs><circle class="cls-1" cx="58.06" cy="58.06" r="58.06"/><g id="Layer_2" data-name="Layer 2"><g id="Layer_1-2" data-name="Layer 1-2"><path class="cls-2" d="M32.54,103.19a3,3,0,0,0,1.81-.61l10.2-7.79a31.33,31.33,0,0,1-3.2.09l28.12,0a17.88,17.88,0,0,0,1.94-.07,8.22,8.22,0,0,0,2.28-1.66L94.28,72.58a6.35,6.35,0,0,0,0-9h0a4.72,4.72,0,0,0-.41-.37h0a6.53,6.53,0,0,0-8.7.6L76,73a5.49,5.49,0,0,0-2.82-.78h0c-.18,0-4.52-.17-5.57-.18-.73,0-1.48,0-2.24,0-3.8.08-7.72.15-11.25-.77-.81-.21-1.59-.43-2.35-.66-3.8-1.1-7.38-2.14-12-.55-4,1.38-7.84,4.06-12,8.44l-7.82,7.08a3,3,0,0,0-.28,4.13l10.65,12.4A2.94,2.94,0,0,0,32.54,103.19ZM21.71,87.63,29.6,80.5l.07-.07c3.88-4.07,7.37-6.54,11-7.75,3.79-1.31,6.68-.47,10.35.6.78.23,1.57.46,2.41.67,3.88,1,8.2.93,12,.86.75,0,1.49,0,2.21,0s3.88.12,5.5.19a3,3,0,0,1,0,6.09H53a1.62,1.62,0,0,0-1.5,1.56c.14,1.06,1.66,1.16,2.47,1.11H73.07a5.74,5.74,0,0,0,4.83-8.84l9.15-9.14a3.79,3.79,0,0,1,5.06-.43,3.62,3.62,0,0,1,.26,5.35L71.77,91.24a5.67,5.67,0,0,1-2.3.94h-.41s-25.37-.17-25.69.08l-10.66,8.17a.27.27,0,0,1-.37,0L21.69,88a.25.25,0,0,1,0-.36h0Z" transform="translate(-2.05 -5.55)"/><path class="cls-2" d="M67.26,37.75a8.69,8.69,0,1,0,8.68,8.69h0A8.69,8.69,0,0,0,67.26,37.75Zm0,14.57a5.89,5.89,0,1,1,5.88-5.89,5.89,5.89,0,0,1-5.88,5.89Z" transform="translate(-2.05 -5.55)"/><path class="cls-2" d="M87,36.4l-1.18-2A5,5,0,0,0,79,32.51h0l-.75.43a17.09,17.09,0,0,0-4.73-2.74v-.85a5,5,0,0,0-5-5H66.07a5,5,0,0,0-5,5v.85a17.25,17.25,0,0,0-4.74,2.74l-.74-.43a5,5,0,0,0-6.85,1.83h0L47.53,36.4a5,5,0,0,0,1.81,6.88h0l.73.42a17.37,17.37,0,0,0,0,5.48l-.73.42a5,5,0,0,0-1.84,6.86l1.18,2.05a5,5,0,0,0,6.87,1.84h0l.74-.45A17.31,17.31,0,0,0,61,62.64v.85a5,5,0,0,0,5,5h2.37a5,5,0,0,0,5-5v-.82a17.31,17.31,0,0,0,4.74-2.76l.74.43A5,5,0,0,0,85.8,58.5h0L87,56.44a5,5,0,0,0-1.84-6.86h0l-.73-.43a16.8,16.8,0,0,0,0-5.48l.73-.42A5,5,0,0,0,87,36.4Zm-3.24,4.43-.77.45a2.71,2.71,0,0,0-1.33,2.77,14.38,14.38,0,0,1,0,4.72A2.71,2.71,0,0,0,83,51.54l.77.45a2.22,2.22,0,0,1,.83,3h0l-1.19,2.06a2.21,2.21,0,0,1-3,.87h0l-.79-.45a2.76,2.76,0,0,0-1.37-.37,2.69,2.69,0,0,0-1.7.6,14.4,14.4,0,0,1-4.09,2.36,2.72,2.72,0,0,0-1.73,2.54v.9a2.22,2.22,0,0,1-2.21,2.22H66.07a2.22,2.22,0,0,1-2.21-2.22V62.6a2.71,2.71,0,0,0-1.73-2.53A14.56,14.56,0,0,1,58,57.69,2.71,2.71,0,0,0,55,57.46l-.79.45a2.22,2.22,0,0,1-3-.77h0L50,55.08a2.21,2.21,0,0,1,.79-3h0l.78-.45a2.71,2.71,0,0,0,1.33-2.77,14.38,14.38,0,0,1,0-4.72,2.71,2.71,0,0,0-1.33-2.77l-.78-.45a2.21,2.21,0,0,1-.82-3h0l1.2-2.11a2.22,2.22,0,0,1,3-.83h0l.79.45a2.76,2.76,0,0,0,1.37.37,2.69,2.69,0,0,0,1.7-.6,14.78,14.78,0,0,1,4.09-2.36,2.69,2.69,0,0,0,1.71-2.56v-.89A2.22,2.22,0,0,1,66,27.13h2.37a2.22,2.22,0,0,1,2.22,2.22v.9a2.71,2.71,0,0,0,1.74,2.52,14.5,14.5,0,0,1,4.09,2.36,2.69,2.69,0,0,0,1.7.6,2.63,2.63,0,0,0,1.37-.37l.79-.45a2.21,2.21,0,0,1,3,.8h0l1.18,2.06a2.2,2.2,0,0,1-.77,3h0Z" transform="translate(-2.05 -5.55)"/></g></g></svg>