<svg xmlns:xlink="http://www.w3.org/1999/xlink" id="Layer_1" data-name="Layer 1" xmlns="http://www.w3.org/2000/svg" version="1.1" viewBox="0 0 917 259" width="917"  height="259" >
    <defs>
        <style>
            .cls-1 {
                fill: #fff;
                stroke-width: 0px;
            }
        </style>
    </defs>
    <path class="cls-1" d="M17.5,51.5h34.5v125.6h63.8v31.8H17.5V51.5ZM131,102.2h33.1v106.7h-33.1v-106.7ZM147.6,49.2c10.6,0,19.2,8.6,19.2,19.2,0,10.6-8.6,19.2-19.2,19.2-10.6,0-19.2-8.6-19.2-19.2s8.6-19.2,19.2-19.2h0M302.7,51.5h33.1v94.1l37.5-43.4h40.6l-43.5,49.4,42.6,57.4h-41.6l-35.2-52.7h-.4v52.7h-33.1V51.5ZM182.5,102.2h31.8v14.6h.5c6.5-11.1,18.5-17.7,31.4-17.2,33.6,0,39.8,22.1,39.8,50.8v58.5h-33.1v-51.9c0-12.4-.2-28.3-17.3-28.3s-19.9,13.5-19.9,27.4v52.8h-33.1v-106.7Z" fill="#FFFFFF" stroke-width="0px"></path>
    <path class="cls-1" d="M483.8,143.1c.3-11-8.4-20.1-19.4-20.3-.3,0-.6,0-.9,0-12-.7-22.5,8.3-23.4,20.3h43.7ZM511.8,190.4c-11.1,13.5-27.8,21.3-45.3,21.2-33.1,0-59.6-22.1-59.6-56.4s26.5-56.3,59.6-56.3,50.4,22.1,50.4,56.3v10.4h-76.9c2,12.2,12.6,21,25,20.8,9.6,0,18.5-5,23.6-13l23.2,17ZM586,128c-16.6,0-26.5,11.1-26.5,27.2s9.9,27.2,26.5,27.2,26.5-11,26.5-27.2-9.9-27.2-26.5-27.2M643,208.9h-30.5v-14.1h-.5c-7.8,10.4-19.9,16.6-32.9,16.8-31.8,0-52.8-23-52.8-55.5s18.6-57.2,49.1-57.2,26.5,3.8,34,14.1h.4v-61.5h33.2v157.4ZM866.6,208.9h-33.1v-51.9c0-12.4-.2-28.3-17.2-28.3s-19.9,13.5-19.9,27.4v52.8h-33.1v-106.7h31.8v14.6h.4c6.5-11.1,18.5-17.7,31.4-17.2,33.6,0,39.8,22.1,39.8,50.8v58.5ZM725.9,87.7c-10.6,0-19.2-8.6-19.2-19.2s8.6-19.2,19.2-19.2c10.6,0,19.2,8.6,19.2,19.2,0,10.6-8.6,19.2-19.2,19.2h0M742.4,208.9h-33.2v-106.7h33.2v106.7ZM883.1,18.4h-190.5c-9-.1-16.4,7.1-16.5,16.1v191.3c.1,9,7.5,16.2,16.5,16.1h190.5c9,.1,16.4-7.1,16.6-16.1V34.5c-.1-9-7.5-16.2-16.6-16.1" fill="#FFFFFF" stroke-width="0px"></path>
</svg>