<svg xmlns="http://www.w3.org/2000/svg" viewBox="0 0 36.41 30.27"><title>Asset 1</title><g id="Layer_2" data-name="Layer 2"><g id="Layer_1-2" data-name="Layer 1"><rect x="3.49" y="23.72" width="1.4" height="8.5" transform="translate(-23.22 20.98) rotate(-67.17)"/><path d="M18,6l-7.7-3.3a.73.73,0,0,0-1,.4l-.1.2-.1.2-4.2,9.9a5,5,0,0,0,2,6.1l-3.1,7.4,1.4.6,3.1-7.4a4.83,4.83,0,0,0,5.7-2.8l4.2-9.9.1-.2.1-.2C18.47,6.64,18.37,6.14,18,6Zm-3.3,6-6.8-1.6,2.5-6,6.4,2.7Zm-6.5,6.5A3.51,3.51,0,0,1,6.27,14l1-2.3,6.8,1.6-1.4,3.4A3.54,3.54,0,0,1,8.17,18.54Z"/><rect x="27.97" y="24.56" width="8.5" height="1.4" transform="translate(-7.28 14.48) rotate(-22.83)"/><path d="M18.07,4.24l.1.2.1.2,4.2,9.9a4.93,4.93,0,0,0,5.7,2.8l3.1,7.4,1.4-.5-3.1-7.4a5,5,0,0,0,2-6.1L27.37.84l-.1-.2-.1-.2a.82.82,0,0,0-1-.4l-7.7,3.3A.7.7,0,0,0,18.07,4.24Zm1.7.1,6.4-2.7,2.5,6-6.9,1.6Zm4,9.7-1.4-3.4L29.17,9l1,2.3a3.42,3.42,0,0,1-1.9,4.5A3.54,3.54,0,0,1,23.77,14Z"/></g></g></svg>