<svg xmlns="http://www.w3.org/2000/svg" viewBox="0 0 38.9 30.04"><defs><style>.cls-1,.cls-2{fill:none;stroke:#000;stroke-miterlimit:10;}.cls-1{stroke-width:1.67px;}.cls-2{stroke-width:1.35px;}</style></defs><title>Asset 1</title><g id="Layer_2" data-name="Layer 2"><g id="Layer_1-2" data-name="Layer 1"><path d="M30.2,14.5V4.6a2.38,2.38,0,0,0,1.6-2.2,2.4,2.4,0,0,0-4.8,0,2.38,2.38,0,0,0,1.6,2.2v9.9H27.4m2-12.9a.86.86,0,0,1,.8.8.8.8,0,0,1-1.6,0A.86.86,0,0,1,29.4,1.6Z"/><path d="M10.3,14.5V4.6a2.38,2.38,0,0,0,1.6-2.2,2.4,2.4,0,1,0-4.8,0A2.38,2.38,0,0,0,8.7,4.6v9.9M9.5,1.6a.86.86,0,0,1,.8.8.86.86,0,0,1-.8.8.86.86,0,0,1-.8-.8A.86.86,0,0,1,9.5,1.6Z"/><path d="M37.3,28.9V19a2.38,2.38,0,0,0,1.6-2.2,2.4,2.4,0,0,0-4.8,0A2.38,2.38,0,0,0,35.7,19v9.9m.8-12.8a.8.8,0,0,1,0,1.6.88.88,0,0,1-.8-.9A.77.77,0,0,1,36.5,16.1Z"/><path d="M3.2,28.9V19a2.38,2.38,0,0,0,1.6-2.2,2.43,2.43,0,0,0-2.4-2.4A2.43,2.43,0,0,0,0,16.8,2.38,2.38,0,0,0,1.6,19v9.9m.8-12.8a.8.8,0,1,1,0,1.6.86.86,0,0,1-.8-.8A.79.79,0,0,1,2.4,16.1Z"/><path class="cls-1" d="M26.3,13.2a2.77,2.77,0,0,0-2.4-1.6h-9a2.89,2.89,0,0,0-2.4,1.6L6.2,27.6a1,1,0,0,0,1,1.6H31a1.12,1.12,0,0,0,1.1-1.6Z"/><path class="cls-2" d="M7.4,5.1a36.28,36.28,0,0,1-3.7,9.4"/><path class="cls-2" d="M31.4,5.1a36.28,36.28,0,0,0,3.7,9.4"/></g></g></svg>