<svg xmlns="http://www.w3.org/2000/svg" viewBox="0 0 32.61 30.3"><defs><style>.cls-1{stroke:#000;stroke-miterlimit:10;stroke-width:0.4px;}</style></defs><title>Asset 1</title><g id="Layer_2" data-name="Layer 2"><g id="Layer_1-2" data-name="Layer 1"><path class="cls-1" d="M15.8,20.9v8.7a.5.5,0,0,0,1,0V20.9a.5.5,0,0,0-1,0Z"/><path class="cls-1" d="M23.6,18.7a.47.47,0,0,0-.5-.5H9.6a.5.5,0,1,0,0,1H23.1A.54.54,0,0,0,23.6,18.7Z"/><path class="cls-1" d="M19.5,3.4a3.2,3.2,0,1,0-6.4,0,3.22,3.22,0,0,0,3.2,3.2A3.16,3.16,0,0,0,19.5,3.4Zm-5.3,0a2.1,2.1,0,0,1,4.2,0,2.05,2.05,0,0,1-2.1,2.1A2.11,2.11,0,0,1,14.2,3.4Z"/><path class="cls-1" d="M12.1,11v5.4a.5.5,0,0,0,1,0h0V11a2.26,2.26,0,0,1,2.3-2.3h1.8a2.36,2.36,0,0,1,2.3,2v5.7h0a.5.5,0,0,0,1,0V10.6a3.35,3.35,0,0,0-3.3-3H15.4A3.35,3.35,0,0,0,12.1,11Z"/><path class="cls-1" d="M29.3,6.7a3.1,3.1,0,1,0,3.1,3.1A3.05,3.05,0,0,0,29.3,6.7Zm0,5.2a2.11,2.11,0,0,1-2.1-2.1,2.1,2.1,0,1,1,4.2,0A2.05,2.05,0,0,1,29.3,11.9Z"/><path class="cls-1" d="M29.5,13.7h-.7a2.9,2.9,0,0,0-2.9,2.9v4H24.2A3.16,3.16,0,0,0,21,23.8v5a1.32,1.32,0,0,0,1.3,1.3h2.2a1.32,1.32,0,0,0,1.3-1.3V25.6h3.5a3.12,3.12,0,0,0,3.1-3.1V16.6A2.84,2.84,0,0,0,29.5,13.7Zm1.9,8.8a2.11,2.11,0,0,1-2.1,2.1H25.2a.47.47,0,0,0-.5.5v3.7a.32.32,0,0,1-.3.3H22.2a.32.32,0,0,1-.3-.3v-5A2.11,2.11,0,0,1,24,21.7h2.2a.47.47,0,0,0,.5-.5V16.6a1.79,1.79,0,0,1,1.8-1.8h.7A1.79,1.79,0,0,1,31,16.6v5.9Z"/><path class="cls-1" d="M3.3,13A3.1,3.1,0,1,0,.2,9.9,3.05,3.05,0,0,0,3.3,13Zm0-5.3A2.11,2.11,0,0,1,5.4,9.8a2.05,2.05,0,0,1-2.1,2.1A2.05,2.05,0,0,1,1.2,9.8,2.05,2.05,0,0,1,3.3,7.7Z"/><path class="cls-1" d="M8.1,30.1h2.2a1.32,1.32,0,0,0,1.3-1.3v-5a3.16,3.16,0,0,0-3.2-3.2H6.7v-4a2.9,2.9,0,0,0-2.9-2.9H3.1A2.9,2.9,0,0,0,.2,16.6v5.9a3.12,3.12,0,0,0,3.1,3.1H6.8v3.2A1.32,1.32,0,0,0,8.1,30.1ZM3.3,24.5a2.11,2.11,0,0,1-2.1-2.1V16.6A1.79,1.79,0,0,1,3,14.8h.8a1.79,1.79,0,0,1,1.8,1.8v4.6a.47.47,0,0,0,.5.5H8.3a2.11,2.11,0,0,1,2.1,2.1v5a.32.32,0,0,1-.3.3H7.9a.32.32,0,0,1-.3-.3V25.1a.47.47,0,0,0-.5-.5H3.3Z"/></g></g></svg>