<svg xmlns="http://www.w3.org/2000/svg" viewBox="0 0 306.63 152.76"><defs><style>.cls-1{fill:#fff;}.cls-2{fill:#ed1c24;}.cls-3{fill:#008742;}</style></defs><title>Asset 2</title><g id="Layer_2" data-name="Layer 2"><g id="Layer_1-2" data-name="Layer 1"><g id="Logo"><path d="M72.63,73.4V75h-1.5v7.2h-1.9V75h-1.5V73.4Z"/><path d="M76.53,82.2V73.4h2c1.2,0,3.4.1,3.4,2.5a2.38,2.38,0,0,1-1.4,2.3l1.7,4h-2l-1.7-4.1h0v4.1Zm1.9-5h.3c.9,0,1.2-.5,1.2-1.3,0-.6-.3-1.1-1.3-1.1h-.3v2.4Z"/><path d="M89.63,73.4,92,82.2h-2.1l-.4-1.5h-2l-.4,1.5h-1.9l2.3-8.8Zm-.8,3.6-.2-1.3h0l-.2,1.3L88,79.4h1.4Z"/><path d="M95.33,82.2V73.4h1.5c.3,0,4.4-.4,4.4,4.5,0,2.5-1.1,4.3-4.1,4.3Zm3.9-4.4c0-1.1-.4-2.9-2-2.9v5.7C98.83,80.7,99.23,78.9,99.23,77.8Z"/><path d="M108.73,73.4V75h-2v1.9h1.7v1.6h-1.7v2h2v1.6h-3.9V73.3h3.9Z"/><path d="M187.63,73.4l.9,5.2h0l.8-5.2h2.6l1,8.8h-2l-.5-6.4h0l-.3,2.2-.8,4.2h-1.5l-.9-4.2-.3-2v-.2h0l-.3,6.4h-2.1l.9-8.8Z"/><path d="M200.13,73.4l2.4,8.8h-2.1l-.4-1.5h-2l-.3,1.5h-1.9l2.3-8.8Zm-.8,3.6-.2-1.3h0l-.2,1.3-.4,2.4h1.4Z"/><path d="M205.73,82.2V73.4h1.9c1.2,0,3.4.1,3.4,2.5a2.38,2.38,0,0,1-1.4,2.3l1.7,4h-2l-1.7-4.1h0v4.1Zm1.9-5h.3c.9,0,1.2-.5,1.2-1.3,0-.6-.3-1.1-1.3-1.1h-.3v2.4Z"/><path d="M217.33,73.4v3.9h0l1.6-3.9h2l-1.8,4.1,2,4.8h-2l-1.8-4.5h0v4.5h-1.9V73.5h1.9Z"/><path class="cls-1" d="M193.23,33.7a3.42,3.42,0,0,0-3.3-2.4h-30.4l-9.4-28.9a3.47,3.47,0,0,0-6.6,0l-9.4,28.9h-30.4a3.42,3.42,0,0,0-3.3,2.4,3.57,3.57,0,0,0,1.2,3.9l24.6,17.9-9.4,28.9a3.51,3.51,0,0,0,1.3,3.9,3.45,3.45,0,0,0,4.1,0l24.6-17.9,24.6,17.9a3.61,3.61,0,0,0,4.1,0,3.68,3.68,0,0,0,1.3-3.9l-9.4-28.9L192,37.6A3.57,3.57,0,0,0,193.23,33.7Z"/><path class="cls-2" d="M121.53,84.7a.48.48,0,0,1-.7,0,.62.62,0,0,1-.2-.7l9.7-29.8L105,35.8a.62.62,0,0,1-.2-.7.55.55,0,0,1,.6-.4h31.3l9.7-29.8a.65.65,0,0,1,1.2,0l9.7,29.8h31.3a.68.68,0,0,1,.6.4.62.62,0,0,1-.2.7l-25.3,18.4,9.7,29.8a.66.66,0,0,1-.2.7.48.48,0,0,1-.7,0l-25.3-18.4Z"/><path class="cls-3" d="M288,107.6h0a9.3,9.3,0,1,0,9.3-9.3,9.35,9.35,0,0,0-9.3,9.3Zm9.3,7.3h0a7.3,7.3,0,1,1,7.3-7.3,7.34,7.34,0,0,1-7.3,7.3Z"/><path class="cls-3" d="M293.53,112.1h2.3v-3.9s.1,0,.9.1c1.1.1,1.7.3,2.1,1.3.2.7.4,1.4.8,2.5h2.3a9.58,9.58,0,0,1-.8-2.4,3,3,0,0,0-1.4-2.3,2.72,2.72,0,0,0,1.5-2.5c0-2.1-2.2-2.8-3-2.8h-4.8v10Zm4.1-5.9h-1.8v-2.3h1.6c.7,0,1.5.3,1.5,1.1a1.18,1.18,0,0,1-1.3,1.2Z"/><path class="cls-3" d="M75.93,140.7a18.05,18.05,0,0,1-7,4.7c-2.3.8-9,1.3-11-4.2-.4-1.2-.1-1.6,1-1.9,1.6-.5,5.8-1.7,10.2-3.4a52.45,52.45,0,0,0,8.7-4.1,3.71,3.71,0,0,0,1.4-5.1c-2.8-6.3-9.1-12.9-19.7-10.9a17.92,17.92,0,0,0-14.4,17.7c0,10.7,6.4,16.9,14.6,18.8,7.6,1.8,16.5-1.9,20.3-8C81.53,142.1,77.33,139.3,75.93,140.7ZM57,132.3c-.8-2.3-.2-9.2,3.6-10.5,4-1.4,6.5.7,7.7,4.7a5.53,5.53,0,0,1-.1,3.7,6.88,6.88,0,0,1-3.1,1.8l-3,1C59.13,134,57.73,134.2,57,132.3Z"/><path class="cls-3" d="M173.93,140.7a18.05,18.05,0,0,1-7,4.7c-2.3.8-9,1.3-11-4.2-.4-1.2-.1-1.6,1-1.9,1.6-.5,5.8-1.7,10.2-3.4a52.45,52.45,0,0,0,8.7-4.1,3.71,3.71,0,0,0,1.4-5.1c-2.8-6.3-9.1-12.9-19.7-10.9a17.92,17.92,0,0,0-14.4,17.7c0,10.7,6.4,16.9,14.6,18.8,7.6,1.8,16.5-1.9,20.3-8C179.53,142.1,175.33,139.3,173.93,140.7Zm-19-8.4a11.34,11.34,0,0,1,.5-6.9,5.51,5.51,0,0,1,3.2-3.6,5.19,5.19,0,0,1,4.6.2,7.21,7.21,0,0,1,3,4.6,5.53,5.53,0,0,1-.1,3.7,6.71,6.71,0,0,1-3.1,1.8c-1.3.5-2.5.8-3,1C157,133.9,155.63,134.2,154.93,132.3Z"/><path class="cls-3" d="M248.63,140.7a18.05,18.05,0,0,1-7,4.7c-2.3.8-9,1.3-11-4.2-.4-1.2-.1-1.6,1-1.9,1.6-.5,5.8-1.7,10.2-3.4a52.45,52.45,0,0,0,8.7-4.1,3.71,3.71,0,0,0,1.4-5.1c-2.8-6.3-9.1-12.9-19.7-10.9a17.92,17.92,0,0,0-14.4,17.7c0,10.7,6.4,16.9,14.6,18.8,7.6,1.8,16.4-1.9,20.3-8C254.23,142.1,250,139.3,248.63,140.7Zm-19-8.4a11.34,11.34,0,0,1,.5-6.9,5.51,5.51,0,0,1,3.2-3.6,5.19,5.19,0,0,1,4.6.2,7.21,7.21,0,0,1,3,4.6,5.53,5.53,0,0,1-.1,3.7,6.71,6.71,0,0,1-3.1,1.8c-1.3.5-2.5.8-3,1C231.73,133.9,230.33,134.2,229.63,132.3Z"/><path class="cls-3" d="M17.93,129.5a1.11,1.11,0,0,0-1.1,1.1v12.1c0,1.9.6,3.1,1.6,3.6a25.57,25.57,0,0,1,2.4,1.1c.5.2.5.7.4,1.3s-.2,2.1-.3,2.7-.5.9-1.5.9H1.93c-.9,0-1.4-.2-1.5-.9s-.2-2.2-.3-2.8a1.16,1.16,0,0,1,.5-1.3c.6-.3,1.9-.8,2.4-1.1,1.1-.5,1.5-2,1.5-3.5V112.8c0-1.7-.5-3-1.7-3.6a22.88,22.88,0,0,0-2.3-1c-.5-.2-.6-.7-.5-1.3s.2-1.5.3-2c.1-.7.6-.9,1.5-.9h16.9c.9,0,1.4.2,1.5.9s.2,1.5.3,2a1.09,1.09,0,0,1-.5,1.3c-.6.3-1.4.8-2,1.1s-1.2,1.2-1.2,3.1v8.7a1.11,1.11,0,0,0,1.1,1.1h9.3a1.11,1.11,0,0,0,1.1-1.1v-8.7c0-1.9-.5-2.7-1.2-3.1-.5-.3-1.4-.8-2-1.1s-.6-.7-.5-1.3.2-1.5.3-2c.1-.7.6-.9,1.5-.9h16.7c.9,0,1.4.2,1.5.9s.2,1.5.3,2a1.09,1.09,0,0,1-.5,1.3,22.88,22.88,0,0,1-2.3,1c-1.2.6-1.7,1.9-1.7,3.6v29.9c0,1.5.5,3,1.5,3.5.6.3,1.8.8,2.4,1.1.4.2.6.6.5,1.3-.1.5-.2,2.2-.3,2.8s-.6.9-1.5.9H25.53q-1.35,0-1.5-.9c-.1-.6-.2-2.1-.3-2.7s-.1-1.1.4-1.3c.7-.3,1.9-.9,2.4-1.1,1-.5,1.6-1.7,1.6-3.6V130.6a1.11,1.11,0,0,0-1.1-1.1Z"/><path class="cls-3" d="M205.33,128.5s6.3,11.5,8.1,14.6c1.3,2.4,2.8,3.1,4.8,4.2.5.3.7.5.6,1.5a22.86,22.86,0,0,0-.2,2.5c-.1.8-.7.9-1.5.9h-9.3c-1.2,0-1.6-.2-2.1-1s-8.3-15-8.3-15l-2.9,2.8v3.9a3.55,3.55,0,0,0,1.7,3.4c.5.3,1.3.7,1.9,1.1s.5.6.5,1.4a21.3,21.3,0,0,1-.3,2.5c-.1.6-.5.9-1.5.9h-15.5c-.9,0-1.4-.2-1.5-.9s-.2-2.1-.3-2.6c-.1-.7,0-1,.5-1.3s1.4-.8,2-1.1c.8-.4,1.4-1.6,1.4-3.4V112.6c0-2.1-.8-3.1-1.4-3.4-.4-.2-1.7-.9-2-1.1s-.5-.7-.4-1.3.2-1.2.3-1.8c.1-.8.6-.9,1.5-.9h11.2a1.94,1.94,0,0,1,2,2v23.2s6.3-5.7,7.2-6.5c.7-.6.5-1.2.1-1.4-.6-.3-1.4-.6-1.8-.8s-.7-.4-.6-1.2a21.16,21.16,0,0,0,.2-2.4c.1-.7.3-1,1.4-1h13.7c.9,0,1.2.3,1.2.9s.2,2,.3,2.6-.3.8-1.1,1.1c-2,.7-2.8,1.2-5.5,3.8C208,126,205.33,128.5,205.33,128.5Z"/><path class="cls-3" d="M96.73,143c0,1.8.6,2.9,1.4,3.4.5.3,1.3.7,2,1.1.5.3.5.6.5,1.4a21.3,21.3,0,0,1-.3,2.5c-.1.6-.5.9-1.5.9H83.33c-.9,0-1.4-.2-1.5-.9s-.2-2.1-.3-2.6c-.1-.7,0-1,.5-1.3s1.4-.8,2-1.1c.8-.4,1.4-1.6,1.4-3.4V126c0-2.3-.7-3.3-1.4-3.8a7.38,7.38,0,0,1-1.3-.8c-.5-.3-.5-.7-.4-1.3s.2-1.5.3-2c.1-.7.6-.9,1.5-.9h11.6a1,1,0,0,1,1,1Z"/><path class="cls-3" d="M90.13,103a6,6,0,1,0,6.2,6A6,6,0,0,0,90.13,103Z"/><path class="cls-3" d="M137.33,125.9c0-6.2-2.8-8.6-6.1-9.7-3.8-1.2-8.3.8-10.7,1.9a12.7,12.7,0,0,0-1.8.9c-.6-1.4-.9-1.8-1.8-1.8h-11.2c-.9,0-1.4.2-1.5.9s-.2,1.5-.3,2a1.19,1.19,0,0,0,.4,1.3c.3.2.9.5,1.3.8.7.4,1.4,1.5,1.4,3.8v17c0,1.9-.6,3-1.4,3.4-.5.3-1.4.8-2,1.1a1.16,1.16,0,0,0-.5,1.3c.1.5.2,2.1.3,2.6.1.7.6.9,1.5.9h15.5c1,0,1.4-.2,1.5-.9s.2-2,.3-2.5c.1-.8,0-1.1-.5-1.4s-1.4-.8-2-1.1c-1-.6-1.4-2.1-1.4-3.4V129.5c0-3.5,1.7-5.5,4.1-5.8,1.6-.2,3.6.8,3.6,3.6v18.2c0,5.2,4.4,7.2,7.9,7.2,3.7,0,6.8-1.7,8.2-4.6a1.81,1.81,0,0,0-.6-2.1c-.5-.6-1-1.1-1.8-.7s-1.7,1.3-2.2,1-.4-.5-.4-1.3V125.9Z"/><path class="cls-3" d="M288.23,125.9c0-6.2-2.8-8.6-6.1-9.7-3.8-1.2-8.3.8-10.7,1.9a12.7,12.7,0,0,0-1.8.9c-.6-1.4-.9-1.8-1.8-1.8h-11.1c-.9,0-1.4.2-1.5.9s-.2,1.5-.3,2a1.19,1.19,0,0,0,.4,1.3c.3.2.9.5,1.3.8.7.4,1.4,1.5,1.4,3.8v17c0,1.9-.6,3-1.4,3.4-.5.3-1.4.8-2,1.1a1.16,1.16,0,0,0-.5,1.3c.1.5.2,2.1.3,2.6.1.7.6.9,1.5.9h15.5c1,0,1.4-.2,1.5-.9s.2-2,.3-2.5c.1-.8,0-1.1-.5-1.4s-1.4-.8-1.9-1.1c-1-.6-1.4-2.1-1.4-3.4V129.5c0-3.5,1.7-5.5,4.1-5.8,1.6-.2,3.6.8,3.6,3.6v18.2c0,5.2,4.4,7.2,7.9,7.2,3.7,0,6.8-1.7,8.2-4.6a1.81,1.81,0,0,0-.6-2.1c-.5-.6-1-1.1-1.8-.7s-1.7,1.3-2.2,1-.4-.5-.4-1.3Z"/></g></g></g></svg>