<svg xmlns="http://www.w3.org/2000/svg" viewBox="0 0 425.2 291.9"><defs><style>.cls-1{fill:#fff;}.cls-2{fill:#005940;}.cls-3{fill:#febe10;}</style></defs><title>Asset 1</title><g id="Layer_2" data-name="Layer 2"><g id="Laag_1" data-name="Laag 1"><path class="cls-1" d="M212.6,231.2c117.4,0,212.6-51.7,212.6-115.6S330,0,212.6,0,0,51.7,0,115.6,95.2,231.2,212.6,231.2"/><path class="cls-2" d="M212.3,222.1c114.1,0,206.5-49.7,206.5-111S326.3.1,212.3.1,5.8,49.8,5.8,111.1s92.5,111,206.5,111"/><path d="M94.7,100.4,80.8,94.9C71,91,67.5,87.2,67.5,82.6c0-10.4,10.6-14,17.7-14C95,68.6,104,71,107.4,84c0,0,.2.8.9.9,0,0,.8.1,1-.9L113,61.9c.2-.9-.3-.9-.3-.9h-.4s-7.6,2-22.3.3c-1.5-.1-3.1-.2-4.7-.2C64.5,61.2,44.4,72,44.4,91.4c0,7.7,6.1,15.2,17.9,20l12.1,4.9c6.8,2.7,11.3,6.6,11.3,11.6,0,9.6-11,14.3-19.1,14.4-14.9.1-21-4.6-24.8-19.1-.8-.9-1.3-.2-1.3-.2s-.5.1-.6,1l-4.3,25.1c-.2,1,.2.8.2.8h.5s4.1-1.8,22.6-.5a62.59,62.59,0,0,0,6.3.4c35.9-.2,43.7-21.5,43.7-30.8-.1-11.1-6.3-15.5-14.2-18.6m49.4,44.8c-7.1-3.1-7-4-7-7.7a68.75,68.75,0,0,1,1.3-9.7l5.7-32.6c1.5-8.3,3.7-22.1,6.4-32.3a.72.72,0,0,0-.7-.9l-31.9.2c-.5.1-.8.8-.8.8-.1,1.2,1.3,1.4,1.3,1.4l2.7,1c3.9,1.7,5,3.9,5,5.7,0,5.2-8.8,55-10.5,62.8-1.9,8.7-1.5,7.6-7.8,11.3,0,0-1.5.8-1.2,1.6,0,0,.1.7,1.4.7h36.3a1.06,1.06,0,0,0,1-.7c.2-1-1.2-1.6-1.2-1.6M370.3,84.1A42.26,42.26,0,0,0,339.4,98a19.27,19.27,0,0,0,.1-2.4c0-6.2-4.3-11.2-11.7-11.1-7.7,0-16.2,5-22.5,14.6h-.2l2.5-11.9c.1-.8-.7-.5-.7-.5H245.4c-.7.1-.8.9-.8.9l-1.5,9.7h-.4C241,89.1,233.5,85,225.1,85c-21.2.1-33.4,21.1-33.4,40.6,0,11.6,8,21.6,22.4,21.5a25.13,25.13,0,0,0,21.1-11.2l.2.2c-2.5,10.5-2.5,28.9-17.9,29-4.3,0-9.4-2-9.4-7a11.16,11.16,0,0,1,1.1-4.7.64.64,0,0,0-.5-1l-18.2.1c-1,0-1,.6-1,.6a19.26,19.26,0,0,0-.6,4c0,13.3,17.4,14.7,27.2,14.6,21-.1,36.6-9.4,39-22.5l9.1-49c1-5.4,1.7-7.5,4.7-9.4a10.56,10.56,0,0,1,4.2-1.3h2.7a8.6,8.6,0,0,1,5.8,1.7c2,1.7,2.7,2.6,2.7,4.2,0,2.5-3.6,25.3-6.2,37.5-1.9,8.7-2.2,8.2-8.2,11.6-1.1.6-1.1,1.3-1.1,1.3s.3.7.8.8H308s.9-.3,1-.9c.1-.9-1.2-1.4-1.2-1.4-6.8-2.5-7.9-2.7-7.9-6.7,0-6.3,1.8-18.1,3.9-27,2-8.3,8.8-14.4,13.2-14.4,2.7,0,3.7,2.2,3.7,4.1a12.87,12.87,0,0,1-1.3,5.2s-.5.9.5.9l14-.1a35.23,35.23,0,0,0-3.3,15.1c0,18.7,13,26.9,30.4,26.8,27.6-.1,41-18.7,41-37S388.7,84,370.3,84.1M224,136.8c-6.7,0-8.5-5.9-8.5-11.6,0-9.3,3.9-30,15.6-30,7.7,0,9.2,6.4,9.2,12.7,0,9.6-4.1,28.9-16.3,28.9m138.1,4.7c-7,0-9.2-5.6-9.2-13.1,0-1.5,1.1-37.6,18.1-37.7,6.8,0,8.5,5.7,8.5,12.3,0,8.2-3,38.5-17.4,38.5m-174.6,3.8c-7.1-3.1-7-4-7-7.7,0-1.3.2-3.7,2.6-17.1,1.5-8.3,3.7-22.2,6.4-32.5.1-1.2-.7-.8-.7-.8l-31.8.1c-.5.1-.8.8-.8.8a1,1,0,0,0,.6,1.1l3.3,1.3c4,2,4.9,4.6,4.9,5.7,0,1.9-3.6,25.5-6.3,37.6-1.9,8.7-1.6,7.7-7.9,11.4,0,0-1.5.8-1.2,1.6,0,0,.1.7,1.4.7h36.5a1.06,1.06,0,0,0,1-.7c.3-1-1-1.5-1-1.5"/><path class="cls-3" d="M207.4,27.9a2.14,2.14,0,0,0-1.8-.9h-9l1.5-5.9a2.25,2.25,0,0,0-.4-1.9,2.14,2.14,0,0,0-1.7-.8H170.4a2.25,2.25,0,0,0-2.2,1.9l-.7,6.6h-9.8a2.2,2.2,0,0,0-2.2,2.1l-1.2,35.6-1.7,9.5a2.38,2.38,0,0,0,.5,1.8,2.14,2.14,0,0,0,1.7.8h37.5a2.23,2.23,0,0,0,2.1-1.8l1.7-9.5,11.5-35.6a1.85,1.85,0,0,0-.2-1.9m-22.3-5.1h8.2l-10.2,40H178Zm-12.7,0h8.3l-7.1,40h-5.2ZM160,31.3h6.6L164,62.7h-5.1Zm30.6,41.1H157.5l1-5.4h33.1Zm2-9.7h-4.9l8.6-31.4h6.5Z"/><path d="M202.1,25.8a2.25,2.25,0,0,0-.4-1.9,2.14,2.14,0,0,0-1.7-.8h-2.3l-1,3.9h5.1Zm9.2,6.7a2.09,2.09,0,0,0-1.7-.9h-2.4L196.3,65.4l-1.7,9.5a2.23,2.23,0,0,1-2.1,1.8H157.2l-.4,2.1a2.38,2.38,0,0,0,.5,1.8,2.14,2.14,0,0,0,1.7.8h37.5a2.23,2.23,0,0,0,2.1-1.8l1.7-9.5,11.5-35.6a3.51,3.51,0,0,0-.5-2"/><path class="cls-1" d="M140.7,141.8c-7.1-3.1-7-4-7-7.7a68.75,68.75,0,0,1,1.3-9.7l5.7-32.6c1.5-8.3,3.7-22.1,6.4-32.3a.72.72,0,0,0-.7-.9l-31.9.2c-.5.1-.8.8-.8.8-.1,1.2,1.3,1.4,1.3,1.4l2.7,1c3.9,1.7,5,3.9,5,5.7,0,5.2-8.8,55-10.5,62.8-1.9,8.7-1.5,7.6-7.8,11.3,0,0-1.5.8-1.2,1.6,0,0,.1.7,1.4.7h36.3a1.06,1.06,0,0,0,1-.7c.2-1-1.2-1.6-1.2-1.6M91.3,97,77.4,91.5c-9.8-3.9-13.3-7.7-13.3-12.3,0-10.4,10.6-14,17.7-14,9.8,0,18.8,2.4,22.2,15.4,0,0,.2.8.9.9,0,0,.8.1,1-.9l3.7-22.1c.2-.9-.3-.9-.3-.9h-.4s-7.6,2-22.3.3c-1.5-.1-3.1-.2-4.7-.2C61.1,57.8,41,68.6,41,88c0,7.7,6.1,15.2,17.9,20L71,112.9c6.8,2.7,11.3,6.6,11.3,11.6,0,9.6-11,14.3-19.1,14.4-14.9.1-21-4.6-24.8-19.1-.8-.9-1.3-.2-1.3-.2s-.5.1-.6,1l-4.3,25.1c-.2,1,.2.8.2.8h.5s4.1-1.8,22.6-.5a62.59,62.59,0,0,0,6.3.4c35.9-.2,43.7-21.5,43.7-30.8-.1-11.2-6.3-15.6-14.2-18.6M366.9,80.7A42.26,42.26,0,0,0,336,94.6a19.27,19.27,0,0,0,.1-2.4c0-6.2-4.3-11.2-11.7-11.1-7.7,0-16.2,4.9-22.5,14.6h-.2l2.5-11.9c.1-.8-.7-.5-.7-.5H242c-.7.1-.8.9-.8.9l-1.5,9.7h-.2c-1.7-8.2-9.2-12.3-17.6-12.3-21.2.1-33.4,21.1-33.4,40.6,0,11.6,8,21.6,22.4,21.5A25.13,25.13,0,0,0,232,132.5l.2.2c-2.5,10.5-2.5,28.9-17.9,29-4.3,0-9.4-2-9.4-7A11.16,11.16,0,0,1,206,150a.64.64,0,0,0-.5-1l-18.2.1c-1,0-1,.6-1,.6a14.21,14.21,0,0,0-.6,4c0,13.3,17.4,14.7,27.2,14.6,21-.1,36.6-9.4,39-22.5l9.1-49c1-5.4,1.7-7.5,4.7-9.4a9.43,9.43,0,0,1,4.7-1.3h2.7a8.46,8.46,0,0,1,5.3,1.8c2,1.7,2.7,2.6,2.7,4.2,0,2.5-3.6,25.3-6.2,37.5-1.9,8.7-2.2,8.2-8.2,11.6-1.1.6-1.1,1.3-1.1,1.3s.3.7.8.8h38.4s.9-.3,1-.9c.1-.9-1.2-1.4-1.2-1.4-6.8-2.5-7.9-2.7-7.9-6.7,0-6.3,1.8-18.1,3.9-27,2-8.3,8.8-14.4,13.2-14.4,2.7,0,3.7,2.2,3.7,4.1a12.87,12.87,0,0,1-1.3,5.2s-.5.9.5.9l14-.1a35.23,35.23,0,0,0-3.3,15.1c0,18.7,13,26.9,30.4,26.8,27.6-.1,41-18.7,41-37-.3-18.6-13.6-27.3-31.9-27.2M220.6,133.4c-6.7,0-8.5-5.9-8.5-11.6,0-9.3,3.9-30,15.6-30,7.7,0,9.2,6.4,9.2,12.7,0,9.6-4.1,28.8-16.3,28.9m138.1,4.7c-7,0-9.2-5.6-9.2-13.1,0-1.5,1.1-37.6,18.1-37.7,6.8,0,8.5,5.7,8.5,12.3,0,8.2-3,38.5-17.4,38.5M184,141.8c-7.1-3.1-7-4-7-7.7,0-1.3.2-3.7,2.6-17.1,1.5-8.3,3.7-22.2,6.4-32.5.1-1.2-.7-.8-.7-.8l-31.8.1c-.5.1-.8.8-.8.8a1,1,0,0,0,.6,1.1l3.3,1.3c4,2,4.9,4.6,4.9,5.7,0,1.9-3.6,25.5-6.3,37.6-1.9,8.7-1.6,7.7-7.9,11.4,0,0-1.5.8-1.2,1.6,0,0,.1.7,1.4.7H184a1.06,1.06,0,0,0,1-.7c.4-.9-1-1.5-1-1.5"/><path class="cls-3" d="M216.1,171.8a79.1,79.1,0,0,1-8-.4c-29.6,22.2-59.6,30.1-76.8,16.9-17.5-13.4-13.8-45,2-77.8.3-.6.4-1.5-.2-1.8a1.22,1.22,0,0,0-1.7.6c-20.8,37.9-24,74.1-4.4,89.2,20.8,15.9,59.9,3.8,95.6-27.1a45.39,45.39,0,0,1-6.5.4"/><path class="cls-3" d="M274.9,21.4c-13.1-10-34.3-9.6-60.6,7.3,0,0-1.3,1-.6,2,.5.7,1.8.1,1.8.1,22.4-12.4,41.7-14.8,53.1-6,16.2,12.4,15.6,39.7,1.8,70-2.3,5.1-5.1,10.3-8.1,15.6l-4,21.8a196.46,196.46,0,0,0,19.5-34.3c14.2-33.1,14.4-63.3-2.9-76.5"/><path d="M64.2,268.2c.3,10.6-7.2,14.6-14.8,14.6-12.4,0-15.5-9.5-15.5-15.2,0-6.8,4.1-14.9,14.7-14.9a14.28,14.28,0,0,1,10.2,3.7v-3.2h3.7v9.6H58.8a10.88,10.88,0,0,0-9.8-6.2c-6.1,0-10.3,4.5-10.3,11.1s4.5,11.2,10.7,11.2c4.9,0,8.7-2.9,9.4-7H53.5v-3.6H64.2Z"/><path d="M71.3,265.6H67.2v-3.5h7.3v4.6h.1c1.3-3.4,3.9-4.9,6.4-4.9h2.6v4H81.5c-4.7,0-6.1,2.6-6.1,7.3v5.8h4.4v3.5H67.4v-3.5h4V265.6Z"/><path d="M94.6,261.4a10.7,10.7,0,1,1-10.7,10.7,10.38,10.38,0,0,1,10.7-10.7m0,17.6c3.6,0,6.4-2.9,6.4-6.9s-2.7-6.9-6.4-6.9-6.4,3-6.4,6.9,2.7,6.9,6.4,6.9"/><path d="M118.8,261.4a10.7,10.7,0,1,1-10.7,10.7,10.38,10.38,0,0,1,10.7-10.7m0,17.6c3.6,0,6.4-2.9,6.4-6.9s-2.7-6.9-6.4-6.9-6.4,3-6.4,6.9,2.8,6.9,6.4,6.9"/><path d="M132,262h2.6v-3.1l4-3.6v6.8h3.7v3.5h-3.7v11.7c0,2,1.8,1.9,3.7,1.2v3.6a10,10,0,0,1-3,.6c-2.8,0-4.8-1.3-4.8-4.8V265.6h-2.6V262Z"/><path d="M146.6,275.3h3.6v.7c.3,2,2.2,3.3,4.9,3.3,2.5,0,4.2-1,4.2-2.5,0-3.8-7.1-1.4-11-5.2a5.78,5.78,0,0,1-1.6-3.9c0-3.5,3-6,7.1-6a9.62,9.62,0,0,1,4.9,1.2v-.8h3.5v6.7h-3.5v-1.2a5.39,5.39,0,0,0-4.7-2.5c-2.1,0-3.6,1-3.6,2.5,0,3.4,7.8,1.4,11.2,4.8a6,6,0,0,1,1.7,4.2c0,3.7-3.1,6.2-7.8,6.2a8.75,8.75,0,0,1-5.3-1.5v1.1h-3.6v-7.1Z"/><path d="M179.5,265.6h-3.2v-3.5h7.3v16.7h3.2v3.5H176.3v-3.5h3.2Zm4.3-10.5a2.4,2.4,0,1,1-2.4-2.4,2.43,2.43,0,0,1,2.4,2.4"/><path d="M250.1,265.6h-3.6v16.9c0,7.3-6.3,9.4-10.9,9.4a12.12,12.12,0,0,1-8-2.7l2.6-2.9a9.2,9.2,0,0,0,5.8,2.1c2.5,0,6.5-1.3,6.5-5.8v-3.1h-.1a9.75,9.75,0,0,1-7.3,3.4c-5.7,0-9.9-4.4-9.9-10.4s4.4-10.8,10-10.8a10,10,0,0,1,7.2,3.2V262H250v3.6Zm-14.2,13.8c3.8,0,6.6-3,6.6-7s-2.8-7-6.5-7-6.4,3-6.4,7,2.6,7,6.3,7"/><path d="M255.7,273.2c.6,3.9,3.2,6.2,7,6.2a8.1,8.1,0,0,0,6.6-3.3l3.5,1.5a11.67,11.67,0,0,1-10.2,5.3c-6.6,0-11.3-4.5-11.3-10.7a10.61,10.61,0,0,1,10.6-10.7c5.6,0,10.8,4.3,10.8,11.7Zm12.9-3a6.94,6.94,0,0,0-6.7-5.6c-3.2,0-5.6,2.2-6.2,5.6Z"/><path d="M283.1,264.5c2.8-2,5-2.8,7.3-2.8,3,0,5.6,1.8,5.6,5.8v11.3h3.7v3.5h-8V269c0-2.6-.8-3.7-2.5-3.7a10.55,10.55,0,0,0-6.1,2.6v10.9h3.7v3.5H275.3v-3.5h3.6V265.6h-3.7v-3.5h8v2.4Z"/><path d="M306,265.6h-3.2v-3.5h7.3v16.7h3.2v3.5H302.8v-3.5H306Zm4.3-10.5a2.4,2.4,0,1,1-2.4-2.4,2.37,2.37,0,0,1,2.4,2.4"/><path d="M320.2,273.2c.6,3.9,3.2,6.2,7,6.2a8.1,8.1,0,0,0,6.6-3.3l3.5,1.5a11.67,11.67,0,0,1-10.2,5.3c-6.6,0-11.3-4.5-11.3-10.7a10.61,10.61,0,0,1,10.6-10.7c5.6,0,10.8,4.3,10.8,11.7Zm13-3a6.94,6.94,0,0,0-6.7-5.6c-3.2,0-5.6,2.2-6.2,5.6Z"/><path d="M340.2,262h2.6v-3.1l4-3.6v6.8h3.7v3.5h-3.7v11.7c0,2,1.8,1.9,3.7,1.2v3.6a10,10,0,0,1-3,.6c-2.8,0-4.8-1.3-4.8-4.8V265.6h-2.6V262Z"/><path d="M357.8,273.2c.6,3.9,3.2,6.2,7,6.2a8.1,8.1,0,0,0,6.6-3.3l3.5,1.5a11.67,11.67,0,0,1-10.2,5.3c-6.6,0-11.3-4.5-11.3-10.7A10.61,10.61,0,0,1,364,261.5c5.6,0,10.8,4.3,10.8,11.7Zm13-3a6.94,6.94,0,0,0-6.7-5.6c-3.2,0-5.6,2.2-6.2,5.6Z"/><path d="M385.6,264.5c2.8-2,5-2.8,7.3-2.8,3,0,5.6,1.8,5.6,5.8v11.3h3.7v3.5h-7.9V269c0-2.6-.8-3.7-2.5-3.7a10.55,10.55,0,0,0-6.1,2.6v10.9h3.6v3.5H377.8v-3.5h3.7V265.6h-3.8v-3.5h8v2.4Z"/><path d="M197.5,264.5c2.8-2,5-2.8,7.3-2.8,3,0,5.6,1.8,5.6,5.8v11.3h3.7v3.5h-7.9V269c0-2.6-.8-3.7-2.5-3.7a10.55,10.55,0,0,0-6.1,2.6v10.9h3.6v3.5H189.7v-3.5h3.7V265.6h-3.7v-3.5h8v2.4Z"/></g></g></svg>