<svg xmlns="http://www.w3.org/2000/svg" viewBox="0 0 275.1 122.5"><defs><style>.cls-1{fill:#007ac2;}.cls-2{fill:#fff;}</style></defs><title>Asset 2</title><g id="Layer_2" data-name="Layer 2"><g id="Laag_1" data-name="Laag 1"><path class="cls-1" d="M141.1,122.5c79.5,0,134-13.5,134-13.5V9.4H0V109S61.6,122.5,141.1,122.5Z"/><path class="cls-2" d="M39.6,32.1H27.3v10h12V47h-12V58.7H41.8v4.9H19.9V27.3H39.6Z"/><path class="cls-2" d="M58.7,63.5V27.2h7.4V63.5Z"/><path class="cls-2" d="M92.6,27.2v34c0,8.1-4.5,12.2-11,12.2V69.1a3.84,3.84,0,0,0,2.6-1.9,15.07,15.07,0,0,0,1.1-6.1V27.2Z"/><path class="cls-2" d="M129.9,33.5a11.08,11.08,0,0,0-5.9-2.1c-3.1,0-4.7,1.7-4.7,3.8,0,2.4,2.5,4.2,6.8,7.6,4.9,3.9,7.5,7,7.5,11.4,0,4.6-4.4,9.9-12.6,9.9-3.8,0-8-1.1-10.8-3.6l2.7-4.2a12.18,12.18,0,0,0,7.5,2.9c3,0,5.7-1.6,5.7-5,0-4-4.9-6.7-7.8-8.9-3.6-2.9-6.5-5.1-6.5-9.9s5-8.8,11.6-8.8c4.2,0,7.5,1.5,9.2,3.2Z"/><path class="cls-2" d="M151.3,63.5V27.2h7.4V63.5Z"/><path class="cls-2" d="M210,63.5h-5.4c-7-8.4-14-16.7-20.9-26.1h-.1V63.5h-5.9V27.2h5.4c7,8.3,13.9,16.6,20.8,25.9h.1V27.2h5.9V63.5Z"/><path class="cls-2" d="M236.5,42.9h.1l13.1-16.3,5.9,2.1L243.3,43.4l14.9,18.7-7.5,2-14-18.9h-.1V63.6h-7.4V27.3h7.4V42.9Z"/><rect class="cls-2" x="58.7" y="7.8" width="7.6" height="9.4"/><rect class="cls-1" x="58.7" width="7.6" height="9.4"/><rect class="cls-2" x="85.2" y="7.8" width="7.6" height="9.4"/><rect class="cls-1" x="85.2" width="7.6" height="9.4"/><path class="cls-2" d="M54.5,92.2c.2,2.6-1.1,3.8-2,3.8a1.17,1.17,0,0,1-1.1-1.3q0-1.5,1.8-2.1Zm0,3.9a4.44,4.44,0,0,0,.2,1.3h2.5a5.38,5.38,0,0,1-.4-2.2V91.5c0-2.8-2-3.3-3.7-3.3a5.5,5.5,0,0,0-3.5,1.2l.8,1.1a3.5,3.5,0,0,1,2.4-.9,1.53,1.53,0,0,1,1.6,1.3l-2.1.6c-2.1.6-3.3,1.6-3.3,3.3a2.55,2.55,0,0,0,2.6,2.7,4.47,4.47,0,0,0,2.3-1.1Z"/><path class="cls-2" d="M62.2,97.4V89.7H60.8V88.5h1.4v-1a3.06,3.06,0,0,1,3.1-3.2,5,5,0,0,1,1.9.4l-.4,1.2a3.55,3.55,0,0,0-1-.2A1.16,1.16,0,0,0,64.6,87v1.4h2.2v1.2H64.6v7.7H62.2Z"/><path class="cls-2" d="M73.1,90.1h0l.5-.7c.3-.4.8-1.1,1.5-1.1a2.45,2.45,0,0,1,1.6.8l-.9,1.7a2,2,0,0,0-1.1-.3c-.8,0-1.6.7-1.6,2.6v4.4H70.7V88.6h2.4Z"/><path class="cls-2" d="M82.7,91.9c0-1.2.6-2.3,2-2.3,1.2,0,1.7.9,1.6,2.3Zm5.8,1.3c.2-2.7-1-4.9-3.8-4.9a4.39,4.39,0,0,0-4.6,4.5,4.57,4.57,0,0,0,4.7,4.9,7.22,7.22,0,0,0,3.5-1l-.7-1.3a4.53,4.53,0,0,1-2.4.7,2.69,2.69,0,0,1-2.6-3h5.9Z"/><path class="cls-2" d="M93,84.3h2.4V92h.3l3-3.7,1.8.8-2.7,3.2,3.4,4.5-2.3.8-3.4-4.9h0v4.7H93.1V84.3Z"/><path class="cls-2" d="M107,91.9c0-1.2.6-2.3,2-2.3,1.2,0,1.7.9,1.6,2.3Zm5.8,1.3c.2-2.7-1-4.9-3.8-4.9a4.39,4.39,0,0,0-4.6,4.5,4.57,4.57,0,0,0,4.7,4.9,7.22,7.22,0,0,0,3.5-1l-.7-1.3a4.53,4.53,0,0,1-2.4.7,2.69,2.69,0,0,1-2.6-3h5.9Z"/><path class="cls-2" d="M119.7,89.5a4.16,4.16,0,0,1,3.1-1.3c2.1,0,3.2,1.1,3.2,3.4v5.8h-2.4V91.9c0-1.3-.6-2.1-1.8-2.1a2,2,0,0,0-2.1,2.2v5.3h-2.4V88.4h2.4v1.1Z"/><path class="cls-2" d="M136,90.2a2.63,2.63,0,0,0-1.5-.6,1,1,0,0,0-1.1,1c0,.7.9,1.1,1.9,1.9a3.34,3.34,0,0,1,1.7,2.7c0,1.3-1.4,2.6-3.4,2.6a4.91,4.91,0,0,1-3-1l.8-1.2a3.67,3.67,0,0,0,2,.9,1.16,1.16,0,0,0,1.3-1.1c0-.8-.9-1.3-1.8-1.9a3.09,3.09,0,0,1-1.7-2.5c0-1.5,1.4-2.5,3.1-2.5a3.69,3.69,0,0,1,2.6.8Z"/><path class="cls-2" d="M142.6,88.3c.8,2.1,1.6,4.1,2.3,6.6h0a61.27,61.27,0,0,1,2.5-6.6l2,.4L145,98.6c-.5,1.1-1.6,3.3-3.9,3.3h-1v-1.6h.6c1.1,0,2-.5,2.9-3.4l-3.4-8.1Z"/><path class="cls-2" d="M158.2,90.2a2.63,2.63,0,0,0-1.5-.6,1,1,0,0,0-1.1,1c0,.7.9,1.1,1.9,1.9a3.34,3.34,0,0,1,1.7,2.7c0,1.3-1.4,2.6-3.4,2.6a4.91,4.91,0,0,1-3-1l.8-1.2a3.67,3.67,0,0,0,2,.9,1.16,1.16,0,0,0,1.3-1.1c0-.8-.9-1.3-1.8-1.9a3.09,3.09,0,0,1-1.7-2.5c0-1.5,1.4-2.5,3.1-2.5a3.69,3.69,0,0,1,2.6.8Z"/><path class="cls-2" d="M166.4,88.5h2.4v1.2h-2.4v4.4c0,1.5.4,2.1,1.2,2.1a2.38,2.38,0,0,0,1.2-.3l.4,1.2a5,5,0,0,1-2.4.6c-2,0-2.8-1-2.8-2.9V89.7h-1.3V88.5H164V86.4l2.4-.5v2.6Z"/><path class="cls-2" d="M175.3,91.9c0-1.2.6-2.3,2-2.3,1.2,0,1.7.9,1.6,2.3Zm5.8,1.3c.2-2.7-1-4.9-3.8-4.9a4.39,4.39,0,0,0-4.6,4.5,4.57,4.57,0,0,0,4.7,4.9,7.22,7.22,0,0,0,3.5-1l-.7-1.3a4.53,4.53,0,0,1-2.4.7,2.69,2.69,0,0,1-2.6-3h5.9Z"/><path class="cls-2" d="M188.1,89.5h0a3.93,3.93,0,0,1,2.9-1.3,2.82,2.82,0,0,1,2.6,1.3,4.82,4.82,0,0,1,3-1.3c2,0,3.1,1.2,3.1,3.3v5.9h-2.4V92c0-1-.4-2.1-1.6-2.1s-1.9.7-1.9,2.2v5.3h-2.4V91.9c0-1.3-.6-2.1-1.6-2.1s-1.8.8-1.8,2.3v5.3h-2.4V88.5H188v1Z"/><path class="cls-2" d="M206.9,91.9c0-1.2.6-2.3,2-2.3,1.2,0,1.7.9,1.6,2.3Zm5.8,1.3c.2-2.7-1-4.9-3.8-4.9a4.39,4.39,0,0,0-4.6,4.5,4.57,4.57,0,0,0,4.7,4.9,7.22,7.22,0,0,0,3.5-1l-.7-1.3a4.53,4.53,0,0,1-2.4.7,2.69,2.69,0,0,1-2.6-3h5.9Z"/><path class="cls-2" d="M219.6,89.5a4,4,0,0,1,3.1-1.3c2.1,0,3.2,1.1,3.2,3.4v5.8h-2.4V91.9c0-1.3-.6-2.1-1.8-2.1a2,2,0,0,0-2.1,2.2v5.3h-2.4V88.4h2.4v1.1Z"/></g></g></svg>