<?xml version="1.0" encoding="utf-8"?>
<!-- Generator: Adobe Illustrator 23.0.3, SVG Export Plug-In . SVG Version: 6.00 Build 0)  -->
<svg version="1.1" id="Laag_1" xmlns="http://www.w3.org/2000/svg" xmlns:xlink="http://www.w3.org/1999/xlink" x="0px" y="0px"
	 viewBox="0 0 841.89 595.28" style="enable-background:new 0 0 841.89 595.28;" xml:space="preserve">
<style type="text/css">
	.st0{fill:#0A2240;}
	.st1{fill:#E1251B;}
</style>
<g>
	<g>
		<g>
			<g>
				<path class="st0" d="M36.01,416.4h7.02v39.17h0.22c3.01-9.79,11.36-14.95,19.94-14.95c17.49,0,25.85,16.8,25.85,36.12
					c0,19.32-8.36,36.12-25.85,36.12c-9.25,0-17.27-5.69-20.5-14.95h-0.22v12.97h-6.46V416.4z M63.2,447.63
					c-14.93,0-20.17,14.95-20.17,29.11c0,14.16,5.24,29.11,20.17,29.11c13.37,0,18.83-14.95,18.83-29.11
					C82.03,462.58,76.57,447.63,63.2,447.63z"/>
				<path class="st0" d="M146.53,510.87h-6.46v-12.3h-0.22c-3.68,9.13-11.25,14.29-19.83,14.29c-14.48,0-20.17-10.06-20.17-25.93
					V442.6h7.02v44.46c0.33,12.31,4.23,18.79,15.37,18.79c12.03,0,17.27-13.5,17.27-27.39V442.6h7.02V510.87z"/>
				<path class="st0" d="M159.89,416.4h7.02v13.36h-7.02V416.4z M159.89,442.6h7.02v68.27h-7.02V442.6z"/>
				<path class="st0" d="M180.5,416.4h7.02v94.47h-7.02V416.4z"/>
				<path class="st0" d="M251.58,510.87h-6.46v-12.97h-0.22c-3.01,8.86-12.14,14.95-20.5,14.95c-17.49,0-25.85-16.8-25.85-36.12
					c0-19.32,8.36-36.12,25.85-36.12c8.58,0,16.93,5.16,19.94,14.95h0.22V416.4h7.02V510.87z M224.4,505.85
					c14.93,0,20.17-14.95,20.17-29.11c0-14.16-5.24-29.11-20.17-29.11c-13.37,0-18.83,14.95-18.83,29.11
					C205.57,490.89,211.03,505.85,224.4,505.85z"/>
				<path class="st0" d="M265.06,416.4h7.02v13.36h-7.02V416.4z M265.06,442.6h7.02v68.27h-7.02V442.6z"/>
				<path class="st0" d="M285.44,442.6h7.02v11.78h0.22c2.56-8.2,10.25-13.76,18.38-13.76c16.15,0,21.06,10.06,21.06,26.33v43.93
					h-7.02v-42.6c0-11.78-3.23-20.64-14.6-20.64c-11.14,0-17.83,10.06-18.05,23.42v39.83h-7.02V442.6z"/>
				<path class="st0" d="M393.95,505.32c-0.11,20.38-6.68,32.81-25.51,32.81c-11.47,0-22.84-6.09-23.84-20.64h7.02
					c1.56,10.06,9.02,13.63,16.82,13.63c12.92,0,18.49-9.13,18.49-25.8v-9.26h-0.22c-3.23,8.34-10.03,14.03-18.27,14.03
					c-18.38,0-25.96-15.61-25.96-35.06c0-18.79,9.36-34.4,25.96-34.4c8.36,0,15.49,6.22,18.27,13.76h0.22V442.6h7.02V505.32z
					 M386.93,475.94c0-13.36-5.24-28.31-18.49-28.31c-13.37,0-18.94,14.16-18.94,28.31c0,13.76,6.02,27.13,18.94,27.13
					C380.58,503.07,386.93,489.83,386.93,475.94z"/>
				<path class="st0" d="M472.71,462.58c-0.33-10.32-7.02-14.95-15.04-14.95c-6.24,0-13.59,2.91-13.59,11.78
					c0,7.41,7.13,10.06,11.92,11.51l9.36,2.51c8.02,1.46,16.38,7.01,16.38,18.92c0,14.82-12.36,20.51-23.06,20.51
					c-13.37,0-22.51-7.41-23.62-24.08h7.02c0.56,11.25,7.57,17.07,16.93,17.07c6.57,0,15.71-3.44,15.71-12.97
					c0-7.94-6.24-10.58-12.59-12.44l-9.02-2.38c-9.13-2.91-16.04-6.62-16.04-18.26c0-13.89,11.48-19.19,21.61-19.19
					c11.47,0,20.61,7.15,21.06,21.97H472.71z"/>
				<path class="st0" d="M495.99,478.99c0.11,12.17,5.46,26.86,18.94,26.86c10.25,0,15.82-7.14,18.05-17.47H540
					c-3.01,15.48-10.58,24.48-25.07,24.48c-18.27,0-25.96-16.67-25.96-36.12c0-18,7.69-36.12,25.96-36.12
					c18.49,0,25.85,19.19,25.29,38.37H495.99z M533.2,471.97c-0.34-12.57-6.91-24.35-18.27-24.35c-11.47,0-17.83,11.91-18.94,24.35
					H533.2z"/>
				<path class="st0" d="M549.69,442.6h6.46v16.01h0.22c3.57-10.98,11.37-17.47,21.73-16.94v8.34
					c-12.7-0.79-21.39,10.32-21.39,24.48v36.39h-7.02V442.6z"/>
				<path class="st0" d="M578.31,442.6h7.8l18.05,59.94h0.22l17.83-59.94h7.24l-21.5,68.27h-7.46L578.31,442.6z"/>
				<path class="st0" d="M636.47,416.4h7.02v13.36h-7.02V416.4z M636.47,442.6h7.02v68.27h-7.02V442.6z"/>
				<path class="st0" d="M697.52,464.04c-1.89-10.19-7.13-16.41-16.27-16.41c-13.48,0-20.17,14.56-20.17,29.11
					c0,14.55,6.68,29.11,20.17,29.11c8.69,0,15.82-8.07,16.71-19.45h7.02c-1.89,16.41-10.92,26.46-23.73,26.46
					c-17.6,0-27.18-16.54-27.18-36.12c0-19.58,9.58-36.12,27.18-36.12c12.26,0,21.73,7.81,23.28,23.42H697.52z"/>
				<path class="st0" d="M718.9,478.99c0.11,12.17,5.46,26.86,18.94,26.86c10.25,0,15.82-7.14,18.05-17.47h7.02
					c-3.01,15.48-10.58,24.48-25.07,24.48c-18.27,0-25.96-16.67-25.96-36.12c0-18,7.69-36.12,25.96-36.12
					c18.49,0,25.85,19.19,25.29,38.37H718.9z M756.11,471.97c-0.34-12.57-6.91-24.35-18.27-24.35c-11.47,0-17.83,11.91-18.94,24.35
					H756.11z"/>
				<path class="st0" d="M807.02,462.58c-0.33-10.32-7.02-14.95-15.04-14.95c-6.24,0-13.59,2.91-13.59,11.78
					c0,7.41,7.13,10.06,11.92,11.51l9.36,2.51c8.02,1.46,16.38,7.01,16.38,18.92c0,14.82-12.36,20.51-23.06,20.51
					c-13.37,0-22.5-7.41-23.62-24.08h7.02c0.56,11.25,7.57,17.07,16.93,17.07c6.57,0,15.71-3.44,15.71-12.97
					c0-7.94-6.24-10.58-12.59-12.44l-9.02-2.38c-9.13-2.91-16.04-6.62-16.04-18.26c0-13.89,11.48-19.19,21.61-19.19
					c11.47,0,20.61,7.15,21.06,21.97H807.02z"/>
			</g>
		</g>
	</g>
	<g>
		<path class="st1" d="M133.26,175.41v94.06c0,28.59-13.59,32.88-21.69,32.88c-14.94,0-17.68-11.32-17.68-33.56v-93.38H35.54v121.92
			c0,41.99,25.98,60.76,51.77,60.76c21.66,0,36.89-8.35,47.95-25.88v21.5h56.37V175.41h-0.89H133.26z"/>
		<path class="st1" d="M319.35,171.02c-21.64,0-36.88,8.36-47.97,25.87v-21.48h-56.35v178.29h58.37v-94.07
			c0-28.62,13.59-32.89,21.68-32.89c14.95,0,17.7,11.3,17.7,33.55v93.41h58.35V231.81C371.12,189.82,345.14,171.02,319.35,171.02"/>
		<path class="st1" d="M575.99,282.26c-1.02,12.34-8.59,24.84-21.1,24.84c-21.12,0-23.98-21.41-23.98-42.37
			c0-21.14,2.86-42.72,23.98-42.72c5.63,0,10.38,1.9,13.66,5.47c3.42,3.46,5.44,8.83,6.02,15.95l0.08,0.96h55.5l-0.08-1.14
			c-3.15-44.57-32.41-72.23-76.34-72.23c-47.05,0-81.2,39.41-81.2,93.71c0,54.1,34.15,93.36,81.2,93.36
			c42.2,0,72.82-29.67,78.03-75.58l0.16-1.21h-55.87L575.99,282.26z"/>
		<path class="st1" d="M800.8,352.06c-6.21-11.05-6.72-25.84-6.72-38.8v-73.12c0-18.17,0-36.95-11.27-50.33
			c-10.64-12.65-30.25-18.8-59.92-18.8c-32.25,0-75.38,6.09-77.2,58.72l-0.04,1.1h54.37l0.04-1.01c0.31-7.73,4.05-16.97,20.26-16.97
			c8.53,0,17.66,4.01,17.66,15.22c0,10.44-7.25,12.91-14.68,14.55l-15.4,2.69c-29.13,4.52-69.05,10.68-69.05,58.44
			c0,33.51,20.39,54.32,53.18,54.32c21.29,0,36.74-6.71,47.36-20.32v0.09c0,4.75,0.83,10.91,2.08,15.11l0.23,0.73h60.04
			L800.8,352.06z M715.17,316.27c-10.05,0-16.82-7.89-16.82-15.24c0-11.05,5.94-14.56,18.47-17.95c7.09-1.89,14.51-4.25,21.16-7.99
			v14.75C737.23,306.37,728.7,316.27,715.17,316.27"/>
		<g>
			<rect x="397.12" y="176.28" class="st1" width="57" height="177.43"/>
			<rect x="397.12" y="176.28" class="st1" width="57" height="177.43"/>
			<ellipse class="st1" cx="425.61" cy="116.83" rx="29.97" ry="35.59"/>
		</g>
	</g>
</g>
</svg>
