<?xml version="1.0" encoding="utf-8"?>
<!-- Generator: Adobe Illustrator 23.0.1, SVG Export Plug-In . SVG Version: 6.00 Build 0)  -->
<svg version="1.1" id="Laag_1" xmlns="http://www.w3.org/2000/svg" xmlns:xlink="http://www.w3.org/1999/xlink" x="0px" y="0px"
	 viewBox="0 0 2122.82 704.88" style="enable-background:new 0 0 2122.82 704.88;" xml:space="preserve">
<style type="text/css">
	.st0{fill:#2D4E8C;}
	.st1{fill:#63C7F2;}
</style>
<path class="st0" d="M774.34,219.18H648.06c-3.36,0-6.85,0.7-10.45,2.05c-3.6,1.36-6.87,3.26-9.81,5.67
	c-2.94,2.41-5.5,5.3-7.67,8.66c-2.15,3.36-3.59,7.03-4.29,11.02l-32.33,184.23c-0.41,2.31-0.01,4.19,1.21,5.67
	c1.2,1.46,2.98,2.19,5.29,2.19h41.88c2.53,0,4.54-0.73,6.06-2.19c1.72-1.48,2.8-3.36,3.2-5.67l9.28-52.91
	c0.85-4.82-0.29-8.81-3.42-11.97c-3.12-3.14-6.78-4.72-10.97-4.72h92.91c2.51,0,4.62-0.68,6.34-2.04c1.7-1.38,2.79-3.31,3.23-5.82
	l5.8-33.08c0.96-5.45-1.3-8.19-6.75-8.19h-75.58l4.7-26.76c0.01-0.06,0-0.12,0.01-0.18l2.95-16.84h96.06c2.31,0,4.32-0.73,6.06-2.19
	c1.9-1.27,3.05-3.04,3.45-5.37l5.85-33.37c0.37-2.11-0.13-3.99-1.52-5.67C778.18,220.03,776.44,219.18,774.34,219.18z"/>
<path class="st0" d="M584.05,219.18H457.77c-3.36,0-6.85,0.7-10.45,2.05c-3.6,1.36-6.87,3.26-9.81,5.67
	c-2.94,2.41-5.5,5.3-7.67,8.66c-2.15,3.36-3.59,7.03-4.29,11.02l-32.33,184.23c-0.41,2.31-0.01,4.19,1.21,5.67
	c1.2,1.46,2.98,2.19,5.29,2.19h41.88c2.53,0,4.54-0.73,6.06-2.19c1.72-1.48,2.8-3.36,3.2-5.67l4.77-27.2l4.51-25.72l2.93-16.69
	h75.59c2.51,0,4.62-0.68,6.34-2.04c1.7-1.38,2.79-3.31,3.23-5.82l5.8-33.08c0.96-5.45-1.3-8.19-6.75-8.19H471.7l4.7-26.76
	c0.81-4.62-0.22-8.61-3.1-11.97c-2.88-3.35-6.62-5.04-11.24-5.04h113.37c2.31,0,4.32-0.73,6.06-2.19c1.9-1.27,3.05-3.04,3.45-5.37
	l5.85-33.37c0.37-2.11-0.13-3.99-1.52-5.67C587.89,220.03,586.15,219.18,584.05,219.18z"/>
<path class="st0" d="M1854.82,221.71c-1.39-1.68-3.12-2.53-5.23-2.53h-126.27c-3.36,0-6.85,0.7-10.45,2.05
	c-3.6,1.36-6.87,3.26-9.81,5.67c-2.94,2.41-5.5,5.3-7.67,8.66c-2.15,3.36-3.59,7.03-4.29,11.02l-32.33,184.23
	c-0.41,2.31-0.01,4.19,1.21,5.67c1.2,1.46,2.98,2.19,5.29,2.19h41.88c2.53,0,4.54-0.73,6.06-2.19c1.72-1.48,2.8-3.36,3.2-5.67
	l5.3-30.23l3.98-22.68l2.93-16.69h75.58c2.51,0,4.62-0.68,6.34-2.04c1.7-1.38,2.79-3.31,3.23-5.82l5.8-33.08
	c0.96-5.45-1.3-8.19-6.75-8.19h-75.58l4.7-26.76c0.81-4.62-0.22-8.61-3.1-11.97c-2.88-3.35-6.62-5.04-11.24-5.04h113.37
	c2.31,0,4.32-0.73,6.06-2.19c1.9-1.27,3.05-3.04,3.45-5.37l5.85-33.37C1856.7,225.28,1856.2,223.39,1854.82,221.71z"/>
<path class="st0" d="M937.83,392.09h-91.96c-2.95,0-5.08-1.05-6.37-3.16c-1.31-2.09-1.78-4.3-1.37-6.61l2.6-14.81
	c0.04-0.24,0.02-0.47,0.05-0.71l2.75-15.66h78.19c2.29,0,4.39-0.8,6.24-2.36c1.84-1.58,2.98-3.52,3.38-5.82l4.97-28.34
	c0.41-2.31-0.05-4.26-1.34-5.84c-1.31-1.56-3.12-2.36-5.41-2.36h-68.66c-3.16,0-5.34-1.04-6.55-3.14c-1.19-2.11-1.61-4.3-1.2-6.62
	l2.32-13.21c0.04-0.25,0.02-0.49,0.06-0.74l2.86-16.28h98.96c2.53,0,4.65-0.73,6.38-2.21c1.68-1.26,2.74-3.04,3.15-5.35l5.47-31.18
	c0.41-2.31-0.05-4.25-1.34-5.82c-1.3-1.58-3.12-2.36-5.43-2.36H837.1c-7.35,0-14.21,2.56-20.56,7.71
	c-6.37,5.15-10.24,11.72-11.64,19.68l-32.33,184.23c-0.37,2.11,0.09,3.94,1.39,5.52c1.29,1.58,3,2.36,5.09,2.36H929.6
	c2.31,0,4.36-0.68,6.19-2.05c1.82-1.36,2.94-3.29,3.38-5.82l5.41-30.86C945.54,394.8,943.29,392.09,937.83,392.09z"/>
<path class="st0" d="M1102.68,341.06c-0.7-0.83-1.82-2.19-3.37-4.09c-1.57-1.88-3.5-3.77-5.78-5.67c-2.3-1.88-5-3.57-8.1-5.03
	c-3.1-1.48-6.54-2.21-10.31-2.21c4.19,0,8.27-0.78,12.22-2.36c3.95-1.58,7.48-3.41,10.58-5.52c3.08-2.09,5.65-4.14,7.68-6.13
	c2.03-2,3.32-3.31,3.85-3.94c0.24-0.2,1.46-1.43,3.62-3.62c2.17-2.21,4.87-4.99,8.07-8.35c3.22-3.35,6.63-7.03,10.29-11.02
	c3.64-3.99,8.67-9.34,15.1-16.06c10.56-11.12,22.43-23.72,35.6-37.78c0.91-0.42,1.55-1.68,1.92-3.79c0.29-1.68-0.08-3.14-1.11-4.4
	c-1.25-1.27-2.71-1.9-4.39-1.9h-47.87c-5.67,0-10.12,2-13.33,5.99l-63.95,66.45c-0.5,0.42-1.04,0.63-1.67,0.63
	c-1.05,0-1.49-0.53-1.3-1.58l11.16-63.61c0.41-2.31-0.01-4.19-1.21-5.67c-1.22-1.46-2.98-2.21-5.28-2.21h-22.67
	c-7.98,0-14.97,2.78-20.99,8.35c-6.02,5.57-9.63,11.8-10.84,18.73l-32.38,184.56c-0.41,2.31,0.05,4.14,1.4,5.5
	c1.34,1.38,3.05,2.05,5.16,2.05h41.88c2.31,0,4.31-0.68,6.03-2.05c1.7-1.36,2.77-3.19,3.17-5.5l12.27-69.91
	c0.22-1.26,0.86-1.9,1.91-1.9c0.2,0,0.69,0.22,1.45,0.65c0.31,0.63,1.16,2.09,2.54,4.4c1.38,2.31,3.05,5.09,4.99,8.35
	c1.96,3.24,4.06,6.76,6.33,10.55c2.28,3.77,5.3,8.71,9.07,14.79c6.16,10.29,13.06,21.84,20.68,34.64c2.24,3.99,6.08,5.99,11.55,5.99
	h49.13c1.88,0,3.68-0.63,5.36-1.88c1.5-1.27,2.38-2.73,2.68-4.42c0.33-1.88,0.13-3.16-0.59-3.79L1102.68,341.06z"/>
<path class="st0" d="M1375.47,219.18H1224.3c-3.35,0-6.77,0.63-10.25,1.9c-3.48,1.26-6.74,3.09-9.78,5.5
	c-3.06,2.41-5.65,5.32-7.82,8.66c-2.17,3.36-3.6,7.05-4.29,11.02l-2.82,16.06c-0.41,2.31,0.09,4.21,1.52,5.67
	c1.42,1.48,3.18,2.21,5.28,2.21h45.66c2.53,0,4.57,0.83,6.18,2.51c1.59,1.68,2.14,3.99,1.62,6.93l-26.52,151.17
	c-0.41,2.31,0.11,4.09,1.57,5.35c1.2,1.48,2.97,2.21,5.28,2.21h43.78c2.29,0,4.32-0.73,6.04-2.21c1.9-1.26,3.06-3.04,3.47-5.35
	l25.31-144.24c0.74-4.19-0.45-7.98-3.53-11.34c-3.08-3.35-6.95-5.03-11.55-5.03h73.05c2.31,0,4.37-0.73,6.21-2.21
	c1.84-1.46,2.95-3.36,3.36-5.67l6.19-35.27c0.37-2.09-0.09-3.94-1.39-5.52C1379.58,219.98,1377.78,219.18,1375.47,219.18z"/>
<path class="st0" d="M1458.61,219.5h-25.18c-7.35,0-14.21,2.56-20.58,7.71c-6.35,5.15-10.24,11.72-11.64,19.68l-32.33,184.23
	c-0.37,2.11,0.09,3.94,1.39,5.52c1.3,1.58,3,2.36,5.1,2.36h44.71c2.51,0,4.56-0.83,6.11-2.51c1.72-1.48,2.78-3.26,3.15-5.37
	l35.75-203.75c0.41-2.31-0.01-4.21-1.21-5.67C1462.89,220.23,1461.12,219.5,1458.61,219.5z"/>
<path class="st0" d="M1628.78,392.09h-91.96c-2.95,0-5.08-1.05-6.37-3.16c-1.29-2.04-1.74-4.21-1.38-6.46l5.5-31.32h78.1
	c2.29,0,4.39-0.8,6.24-2.36c1.84-1.58,2.98-3.52,3.38-5.82l4.97-28.34c0.41-2.31-0.05-4.26-1.34-5.84
	c-1.31-1.56-3.12-2.36-5.41-2.36h-68.66c-3.16,0-5.34-1.04-6.55-3.14c-1.19-2.11-1.61-4.3-1.2-6.62l2.32-13.21
	c0.74-4.21-0.21-8.08-2.83-11.67c-2.63-3.57-6.47-5.35-11.51-5.35h116.2c2.53,0,4.65-0.73,6.38-2.21c1.68-1.26,2.74-3.04,3.15-5.35
	l5.47-31.18c0.41-2.31-0.05-4.25-1.34-5.82c-1.3-1.58-3.12-2.36-5.43-2.36h-128.48c-7.35,0-14.21,2.56-20.56,7.71
	c-6.37,5.15-10.24,11.72-11.64,19.68l-32.33,184.23c-0.37,2.11,0.09,3.94,1.39,5.52c1.29,1.58,3,2.36,5.09,2.36h150.54
	c2.31,0,4.36-0.68,6.19-2.05c1.82-1.36,2.94-3.29,3.38-5.82l5.41-30.86C1636.49,394.8,1634.23,392.09,1628.78,392.09z"/>
<path class="st0" d="M363.42,392.09h-91.96c-2.95,0-5.08-1.05-6.37-3.16c-1.31-2.09-1.78-4.3-1.37-6.61l2.6-14.81
	c0.74-4.19-0.28-7.98-3.04-11.33c-2.77-3.36-6.57-5.04-11.41-5.04h95.44c2.29,0,4.39-0.8,6.24-2.36c1.84-1.58,2.98-3.52,3.38-5.82
	l4.97-28.34c0.41-2.31-0.05-4.26-1.34-5.84c-1.31-1.56-3.12-2.36-5.41-2.36h-68.66c-3.16,0-5.34-1.04-6.55-3.14
	c-1.19-2.11-1.61-4.3-1.2-6.62l2.32-13.21c0.04-0.25,0.02-0.49,0.06-0.74l2.86-16.28h98.96c2.53,0,4.65-0.73,6.38-2.21
	c1.68-1.26,2.74-3.04,3.15-5.35l5.47-31.18c0.41-2.31-0.05-4.25-1.34-5.82c-1.3-1.58-3.12-2.36-5.43-2.36H262.68
	c-7.35,0-14.2,2.56-20.56,7.71c-6.37,5.15-10.24,11.72-11.64,19.68l-32.33,184.23c-0.37,2.11,0.09,3.94,1.39,5.52
	c1.29,1.58,3,2.36,5.09,2.36h150.54c2.31,0,4.36-0.68,6.19-2.05c1.82-1.36,2.94-3.29,3.38-5.82l5.41-30.86
	C371.12,394.8,368.87,392.09,363.42,392.09z"/>
<g>
	<path class="st1" d="M1134.21,514.69h-16.9l1.02-5.19c1.24-6.29,5.65-10.05,11.82-10.05h6.46l1.96-10.38h-7.08
		c-13.24,0-22.2,7.22-24.6,19.8l-1.13,5.81h-10.93l-1.82,10.16h10.9l-14.14,76.07h11.54l14.14-76.07h16.94L1134.21,514.69z"/>
	<path class="st1" d="M1198.26,514.69h-11.32l-1.36,7.62c-2.29-3.47-7.64-9.07-18.23-9.07c-19.78,0-35.87,17.29-35.87,38.55
		c0,15.16,9.88,24.96,25.18,24.96c11.38,0,18.12-5.71,21.38-9.21c0.14,1.8,0.77,3.41,1.86,4.69c1.19,1.4,3.5,3.07,7.72,3.07h6.45
		l1.98-10.05h-4.54c-0.58,0-1.35-0.1-1.75-0.59c-0.38-0.46-0.47-1.3-0.27-2.38L1198.26,514.69z M1166.79,523.96
		c9.54,0,15.47,5.97,15.47,15.58c0,15.17-10.1,26.61-23.49,26.61c-9.69,0-15.47-5.82-15.47-15.58
		C1143.3,536.15,1154.06,523.96,1166.79,523.96z"/>
	<path class="st1" d="M1241.63,523.96c7.82,0,13.46,4.44,14.37,11.3l0.15,1.17h11.72l-0.06-1.41
		c-0.55-12.83-10.82-21.78-24.96-21.78c-20.87,0-37.21,16.44-37.21,37.43c0,15.35,10.72,26.07,26.07,26.07
		c15.58,0,28.02-8.2,32.46-21.41l0.6-1.78h-11.9l-0.35,0.82c-2.97,6.97-10.62,11.65-19.03,11.65c-9.67,0-15.91-6.33-15.91-16.14
		C1217.59,535.6,1228.37,523.96,1241.63,523.96z"/>
	<path class="st1" d="M1296.04,514.69h-11.55l-8.78,48.11v0c-0.68,3.75-0.06,6.9,1.78,9.11c1.86,2.22,4.9,3.4,8.79,3.4h5.58
		l1.95-10.49h-4.52c-0.58,0-1.35-0.1-1.75-0.59c-0.38-0.46-0.47-1.3-0.27-2.38L1296.04,514.69z"/>
	<path class="st1" d="M1294.42,491.42c-4.9,0-9.03,4.14-9.03,9.03c0,3.75,2.82,6.47,6.69,6.47c4.87,0,9.14-4.22,9.14-9.03
		C1301.22,494.14,1298.36,491.42,1294.42,491.42z"/>
	<path class="st1" d="M1330.78,489.08h-11.54l-13.35,72.27v0c-0.82,4.45-0.17,8.1,1.87,10.54c1.86,2.23,4.83,3.41,8.59,3.41h5.35
		l1.95-10.49h-4.29c-0.58,0-1.35-0.1-1.75-0.59c-0.38-0.46-0.47-1.3-0.27-2.38L1330.78,489.08z"/>
	<path class="st1" d="M1354.22,491.42c-4.9,0-9.03,4.14-9.03,9.03c0,3.75,2.82,6.47,6.69,6.47c4.87,0,9.14-4.22,9.14-9.03
		C1361.02,494.14,1358.16,491.42,1354.22,491.42z"/>
	<path class="st1" d="M1355.84,514.69h-11.55l-8.78,48.11v0c-0.68,3.75-0.06,6.9,1.78,9.11c1.86,2.22,4.9,3.4,8.79,3.4h5.58
		l1.95-10.49h-4.52c-0.58,0-1.35-0.1-1.75-0.59c-0.38-0.46-0.47-1.3-0.27-2.38L1355.84,514.69z"/>
	<path class="st1" d="M1384.22,563.24c-1.07-1.28-1.3-3.45-0.72-6.63l5.92-31.75h17.83l1.82-10.16h-17.81l3.12-16.82h-10.98
		l-2.77,14.34c-0.33,1.67-1.29,2.48-2.91,2.48h-8.92l-1.82,10.16h10.9l-5.83,31.37v0c-1.14,6.19-0.32,11,2.42,14.29
		c2.65,3.18,6.92,4.79,12.71,4.79h9.92l1.96-10.38h-9.65C1386.9,564.92,1385.15,564.36,1384.22,563.24z"/>
	<path class="st1" d="M1453.12,550.54c-1.64,8.83-9.4,15.49-18.05,15.49c-3.6,0-6.66-1.29-8.62-3.64
		c-2.09-2.51-2.81-5.97-2.08-10.02l6.98-37.68h-11.54l-7,37.53c-1.33,7.3,0,13.79,3.74,18.28c3.41,4.09,8.59,6.26,14.96,6.26
		c8.06,0,14.27-3.5,18.07-7.36l-0.79,4.31c-2.39,12.64-8.54,18.28-19.95,18.28c-4.48,0-7.87-1.04-9.81-3.01
		c-1.43-1.45-2.14-3.46-2.09-5.97l0.02-1.37h-10.77l-0.08,1.26c-0.35,5.38,1.15,10.02,4.33,13.41c3.72,3.97,9.62,6.07,17.06,6.07
		c18.68,0,29.08-8.95,32.73-28.16l11.1-59.51h-11.54L1453.12,550.54z"/>
	<path class="st1" d="M1536.86,513.25c-15.13,0-25.29,8.11-25.29,20.17c0,11.26,10.12,13.41,18.26,15.14
		c7.39,1.57,11.92,2.76,11.92,7.25c0,6.52-5.46,10.57-14.24,10.57c-4.2,0-7.25-0.96-9.06-2.86c-1.42-1.49-2.08-3.61-1.96-6.31
		l0.07-1.41h-11.22l-0.11,1.22c-0.51,5.45,0.89,10.15,4.03,13.6c3.66,4.02,9.51,6.14,16.91,6.14c16.95,0,27.08-8.33,27.08-22.29
		c0-11.93-10.55-14.13-19.03-15.9c-6.99-1.46-11.27-2.55-11.27-6.38c0-4.95,5.26-8.67,12.24-8.67c3.57,0,6.29,0.86,7.86,2.5
		c1.22,1.27,1.8,3.03,1.71,5.23l-0.06,1.4h11.09l0.12-1.22c0.47-4.89-0.83-9.16-3.74-12.37
		C1548.76,515.31,1543.33,513.25,1536.86,513.25z"/>
	<path class="st1" d="M1599.22,513.25c-20.32,0-35.65,16.33-35.65,37.99c0,15.5,10.02,25.52,25.52,25.52
		c14.71,0,27.05-7.6,31.45-19.36l0.68-1.82h-11.99l-0.38,0.71c-3.27,6.07-10.41,9.98-18.19,9.98c-5.1,0-8.97-1.43-11.52-4.25
		c-2.58-2.86-3.74-7.18-3.39-12.54h46.9l0.85-4.99c1.8-9.26,0.25-17.46-4.38-23.08C1614.71,516.07,1607.84,513.25,1599.22,513.25z
		 M1577.95,538.97c2.88-8.92,10.99-15.01,20.27-15.01c4.51,0,8.22,1.43,10.72,4.12c2.41,2.6,3.61,6.35,3.48,10.89H1577.95z"/>
	<path class="st1" d="M1650.87,522.4l1.43-7.7h-11.43l-11.19,60.61h11.54l5.77-30.95c2.03-11.03,9.38-18.16,18.72-18.16h5.92
		l2.04-11.5h-6.51C1660.42,514.69,1654.58,518.24,1650.87,522.4z"/>
	<polygon class="st1" points="1722.71,514.69 1697.59,560.12 1689.1,514.69 1677.08,514.69 1689.67,575.31 1700.68,575.31 
		1735.76,514.69 	"/>
	<path class="st1" d="M1754.47,491.42c-4.9,0-9.03,4.14-9.03,9.03c0,3.75,2.82,6.47,6.69,6.47c4.87,0,9.14-4.22,9.14-9.03
		C1761.27,494.14,1758.41,491.42,1754.47,491.42z"/>
	<path class="st1" d="M1756.09,514.69h-11.55l-8.78,48.11v0c-0.68,3.75-0.06,6.9,1.78,9.11c1.86,2.22,4.9,3.4,8.79,3.4h5.58
		l1.95-10.49h-4.52c-0.58,0-1.35-0.1-1.75-0.59c-0.38-0.46-0.47-1.3-0.27-2.38L1756.09,514.69z"/>
	<path class="st1" d="M1800.02,523.96c7.82,0,13.46,4.44,14.37,11.3l0.16,1.17h11.72l-0.06-1.41
		c-0.55-12.83-10.82-21.78-24.96-21.78c-20.87,0-37.21,16.44-37.21,37.43c0,15.35,10.72,26.07,26.07,26.07
		c15.58,0,28.02-8.2,32.46-21.41l0.6-1.78h-11.9l-0.35,0.82c-2.97,6.97-10.62,11.65-19.03,11.65c-9.67,0-15.91-6.33-15.91-16.14
		C1775.97,535.6,1786.76,523.96,1800.02,523.96z"/>
	<path class="st1" d="M1867.95,513.25c-20.32,0-35.65,16.33-35.65,37.99c0,15.5,10.02,25.52,25.52,25.52
		c14.71,0,27.05-7.6,31.45-19.36l0.68-1.82h-11.99l-0.38,0.71c-3.27,6.07-10.41,9.98-18.19,9.98c-5.1,0-8.97-1.43-11.52-4.25
		c-2.58-2.86-3.74-7.18-3.39-12.54h46.9l0.85-4.99c1.8-9.26,0.25-17.46-4.38-23.08C1883.44,516.07,1876.56,513.25,1867.95,513.25z
		 M1846.67,538.97c2.88-8.92,10.99-15.01,20.27-15.01c4.51,0,8.22,1.43,10.72,4.12c2.41,2.6,3.61,6.35,3.48,10.89H1846.67z"/>
	<path class="st1" d="M1945.4,519.06c-3.4-3.75-8.84-5.81-15.31-5.81c-15.13,0-25.29,8.11-25.29,20.17
		c0,11.26,10.12,13.41,18.26,15.14c7.39,1.57,11.92,2.76,11.92,7.25c0,6.52-5.46,10.57-14.24,10.57c-4.2,0-7.24-0.96-9.06-2.86
		c-1.42-1.49-2.08-3.61-1.96-6.31l0.06-1.41h-11.22l-0.11,1.22c-0.51,5.45,0.89,10.15,4.03,13.6c3.66,4.02,9.51,6.14,16.91,6.14
		c16.95,0,27.08-8.33,27.08-22.29c0-11.93-10.55-14.13-19.03-15.9c-6.98-1.46-11.27-2.55-11.27-6.38c0-4.95,5.26-8.67,12.24-8.67
		c3.57,0,6.29,0.86,7.86,2.5c1.22,1.27,1.8,3.03,1.71,5.23l-0.06,1.4h11.1l0.12-1.22C1949.61,526.54,1948.32,522.27,1945.4,519.06z"
		/>
</g>
</svg>
