<svg xmlns="http://www.w3.org/2000/svg" xmlns:xlink="http://www.w3.org/1999/xlink" x="0px" y="0px" viewBox="0 0 226.5 217.9" style="enable-background:new 0 0 226.5 217.9;" xml:space="preserve">
<style type="text/css">
	.st0{fill:#324249;}
	.st1{fill:#B8916A;}
	.st2{fill:#A1383A;}
	.st3{fill:#548890;}
	.st4{fill:#FFFFFF;}
	.st5{fill:#A0373A;}
	.st6{opacity:0.2;fill:#FFFFFF;}
	.st7{opacity:0.1;}
	.st8{fill:#54888F;}
</style>
<g id="Laag_1">
</g>
<g id="_x3C_Laag_x3E_">
	<g>
		<path class="st0" d="M5.4,128.4v-21.3h7v21.1c0,7.8,3.5,11.1,9.6,11.1s9.6-3.3,9.6-11.1v-21.1h6.9v21.3c0,11-6.2,17-16.5,17    C11.6,145.4,5.4,139.4,5.4,128.4z"></path>
		<path class="st0" d="M80.2,107.1v37.8h-5.8l-20.8-25.6v25.6h-7v-37.8h5.8l20.8,25.6v-25.6H80.2z"></path>
		<path class="st0" d="M90.4,107.1h7v37.8h-7V107.1z"></path>
		<path class="st0" d="M146.6,148.6c-2.5,2.9-5.9,4.5-9.9,4.5c-5.1,0-9-2-14.5-7.8c-10.6-0.9-18.2-8.9-18.2-19.3    c0-11.2,8.6-19.4,20.4-19.4c11.7,0,20.4,8.2,20.4,19.4c0,9.1-5.7,16.3-14.1,18.6c2.2,2.3,4.1,3.2,6.3,3.2c2.5,0,4.6-1,6.5-3    L146.6,148.6z M124.4,139.3c7.6,0,13.3-5.6,13.3-13.3s-5.7-13.3-13.3-13.3c-7.6,0-13.3,5.6-13.3,13.3S116.8,139.3,124.4,139.3z"></path>
		<path class="st0" d="M151.9,128.4v-21.3h7v21.1c0,7.8,3.5,11.1,9.6,11.1s9.6-3.3,9.6-11.1v-21.1h6.9v21.3c0,11-6.2,17-16.5,17    C158.1,145.4,151.9,139.4,151.9,128.4z"></path>
		<path class="st0" d="M222.3,139v5.9h-28.3v-37.8h27.6v5.9h-20.6v9.8h18.3v5.8h-18.3V139H222.3z"></path>
		<g>
			<path class="st2" d="M4.4,208.6c0-4.8,3.5-8.2,8.3-8.2c4.8,0,8.2,3.4,8.2,8.2c0,4.8-3.5,8.3-8.2,8.3     C7.9,216.9,4.4,213.5,4.4,208.6z M18.7,208.6c0-3.8-2.6-6.3-6-6.3s-6,2.5-6,6.3s2.6,6.3,6,6.3S18.7,212.4,18.7,208.6z"></path>
			<path class="st2" d="M27.9,198.6v1.9h5v1.9h-4.9v14.4h-2.2v-14.4h-2.9v-1.9h2.9v-2c0-2.9,1.7-4.8,4.9-4.8c1.2,0,2.4,0.3,3.2,1     l-0.7,1.6c-0.6-0.5-1.5-0.8-2.4-0.8C28.9,195.6,27.9,196.6,27.9,198.6z"></path>
			<path class="st2" d="M57.9,211h-12l-2.6,5.8h-2.4l9.9-21.6h2.3l9.9,21.6h-2.4L57.9,211z M57.1,209.1l-5.2-11.6l-5.2,11.6H57.1z"></path>
			<path class="st2" d="M92.8,207.4v9.4h-2.2v-9.2c0-3.4-1.7-5.2-4.7-5.2c-3.3,0-5.4,2.2-5.4,5.9v8.5h-2.2v-9.2     c0-3.4-1.7-5.2-4.7-5.2c-3.3,0-5.4,2.2-5.4,5.9v8.5h-2.2v-16.2h2.1v3c1.1-1.9,3.2-3.1,6-3.1c2.7,0,4.8,1.1,5.8,3.4     c1.2-2.1,3.5-3.4,6.4-3.4C90.3,200.4,92.8,202.7,92.8,207.4z"></path>
			<path class="st2" d="M96.5,214.9l1-1.7c1.3,1,3.5,1.8,5.8,1.8c3.1,0,4.4-1,4.4-2.7c0-4.2-10.5-0.9-10.5-7.3     c0-2.7,2.3-4.6,6.4-4.6c2.1,0,4.4,0.6,5.7,1.5l-1,1.8c-1.4-1-3.1-1.4-4.8-1.4c-2.9,0-4.2,1.1-4.2,2.7c0,4.4,10.5,1.1,10.5,7.3     c0,2.8-2.5,4.6-6.7,4.6C100.5,216.9,97.9,216.1,96.5,214.9z"></path>
			<path class="st2" d="M122.4,215.8c-0.9,0.8-2.2,1.1-3.4,1.1c-3.1,0-4.8-1.7-4.8-4.7v-9.8h-2.9v-1.9h2.9V197h2.2v3.5h4.9v1.9h-4.9     v9.7c0,1.9,1,3,2.8,3c0.9,0,1.8-0.3,2.4-0.8L122.4,215.8z"></path>
			<path class="st2" d="M140,209.3h-13.6c0.2,3.4,2.8,5.6,6.4,5.6c2,0,3.7-0.7,5-2.1l1.2,1.4c-1.5,1.7-3.7,2.7-6.3,2.7     c-5.1,0-8.5-3.5-8.5-8.3c0-4.8,3.4-8.2,7.9-8.2c4.6,0,7.9,3.4,7.9,8.2C140,208.8,140,209.1,140,209.3z M126.4,207.7h11.5     c-0.3-3.2-2.6-5.4-5.8-5.4C129,202.3,126.7,204.5,126.4,207.7z"></path>
			<path class="st2" d="M152.6,200.4v2.1c-0.2,0-0.4,0-0.5,0c-3.4,0-5.5,2.2-5.5,6v8.3h-2.2v-16.2h2.1v3.2     C147.6,201.5,149.6,200.4,152.6,200.4z"></path>
			<path class="st2" d="M171.3,193.9v22.9h-2.1v-3.2c-1.3,2.2-3.6,3.4-6.3,3.4c-4.6,0-8.1-3.4-8.1-8.3c0-4.9,3.5-8.2,8.1-8.2     c2.6,0,4.8,1.1,6.2,3.2v-9.8H171.3z M169.1,208.6c0-3.8-2.6-6.3-6-6.3c-3.5,0-6,2.5-6,6.3s2.6,6.3,6,6.3     C166.5,215,169.1,212.4,169.1,208.6z"></path>
			<path class="st2" d="M189.6,206.7v10.1h-2.1v-2.5c-1,1.7-2.9,2.7-5.6,2.7c-3.7,0-5.9-1.9-5.9-4.7c0-2.5,1.6-4.6,6.3-4.6h5.2v-1     c0-2.8-1.6-4.3-4.6-4.3c-2.1,0-4.1,0.7-5.4,1.9l-1-1.6c1.6-1.4,4-2.2,6.6-2.2C187.2,200.4,189.6,202.5,189.6,206.7z M187.4,211.9     v-2.7h-5.1c-3.1,0-4.2,1.2-4.2,2.9c0,1.9,1.5,3.1,4.1,3.1C184.7,215.2,186.6,214,187.4,211.9z"></path>
			<path class="st2" d="M222.4,207.4v9.4h-2.2v-9.2c0-3.4-1.7-5.2-4.7-5.2c-3.3,0-5.4,2.2-5.4,5.9v8.5h-2.2v-9.2     c0-3.4-1.7-5.2-4.7-5.2c-3.3,0-5.4,2.2-5.4,5.9v8.5h-2.2v-16.2h2.1v3c1.1-1.9,3.2-3.1,6-3.1c2.7,0,4.8,1.1,5.8,3.4     c1.2-2.1,3.5-3.4,6.4-3.4C219.8,200.4,222.4,202.7,222.4,207.4z"></path>
		</g>
		<g>
			<path class="st0" d="M41.4,151.8l-16.6,37.3h-2.7L5.4,151.8h3l15.1,33.8l15.1-33.8H41.4z"></path>
			<path class="st0" d="M73.1,186.7v2.4H47.4v-37.3h24.9v2.4H50.1V169H70v2.4H50.1v15.3H73.1z"></path>
			<path class="st0" d="M113.4,151.8v37.3h-2.2l-25.4-32.4v32.4H83v-37.3h2.3l25.3,32.4v-32.4H113.4z"></path>
			<path class="st0" d="M121.5,173.3v-21.5h2.7v21.4c0,9.3,4.5,13.7,12.2,13.7c7.8,0,12.2-4.4,12.2-13.7v-21.4h2.7v21.5     c0,10.6-5.7,16.1-15,16.1C127.1,189.4,121.5,184,121.5,173.3z"></path>
			<path class="st0" d="M187.1,186.7v2.4h-25.7v-37.3h24.9v2.4h-22.2V169H184v2.4h-19.9v15.3H187.1z"></path>
			<path class="st0" d="M193.3,184.3l1.2-2c2.6,2.7,7.3,4.7,12.3,4.7c7.5,0,10.8-3.2,10.8-7.3c0-11.2-23.3-4.5-23.3-18.2     c0-5.3,4-9.9,13.2-9.9c4.1,0,8.4,1.3,11.2,3.4l-1,2.2c-3.1-2.1-6.9-3.1-10.2-3.1c-7.2,0-10.5,3.4-10.5,7.5     c0,11.2,23.3,4.6,23.3,18.1c0,5.3-4.2,9.9-13.4,9.9C201.3,189.4,196,187.3,193.3,184.3z"></path>
		</g>
	</g>
</g>
<g id="Isolatiemodus">
	<g>
		<g>
			<path class="st5" d="M113.3,77.6L95.5,37.8l-7.1,0l22.1,48.5l5.7,0l22.4-48.6l-6.8,0L113.3,77.6z M110.5,56l2.8-2.8l2.8,2.8     l3.2-3.3l-2.8-2.7l2.8-2.7l-3.2-3.3l-2.8,2.8l-2.8-2.8l-3.2,3.3l2.8,2.7l-2.8,2.7L110.5,56z M132.5,8.9C127.6,4,120.8,1,113.4,1     c-7.5,0-14.2,3-19.1,7.9c-4.9,4.9-7.9,11.7-7.9,19.1c0,2.2,0.1,3.9,0.4,5.3l6.9,0c-0.5-1.7-0.8-3.4-0.8-5.3     c0-5.7,2.3-10.8,6-14.5c3.7-3.7,8.8-6,14.5-6c5.7,0,10.8,2.3,14.5,6c3.7,3.7,6,8.8,6,14.5c0,1.9-0.2,3.6-0.6,5.3l6.6,0     c0.3-1.6,0.5-3.3,0.5-5.3C140.4,20.6,137.4,13.8,132.5,8.9z M110.5,41.3l2.8-2.8l2.8,2.8l3.2-3.3l-2.8-2.7l2.8-2.7l-3.2-3.3     l-2.8,2.8l-2.8-2.8l-3.2,3.3l2.8,2.7l-2.8,2.7L110.5,41.3z M110.5,26.7l2.8-2.8l2.8,2.8l3.2-3.3l-2.8-2.7l2.8-2.7l-3.2-3.3     l-2.8,2.8l-2.8-2.8l-3.2,3.3l2.8,2.7l-2.8,2.7L110.5,26.7z"></path>
		</g>
	</g>
</g>
<g id="White">
</g>
</svg>