<svg xmlns:xlink="http://www.w3.org/1999/xlink" width="112" height="109" viewBox="0 0 500 491" fill="none" xmlns="http://www.w3.org/2000/svg">
    <path d="M207.866 133.919C201.601 133.989 198.455 143.433 198.232 157.607H215.62C215.62 144.17 214.729 134.072 207.866 133.919Z" fill="#FFFFFF"></path>
    <path d="M207.713 133.919C207.713 133.919 207.81 133.919 207.866 133.919C207.894 133.919 207.908 133.919 207.935 133.919H207.713Z" fill="#FFFFFF"></path>
    <path d="M211.541 255.056V255.292C211.541 261.384 214.019 265.21 218.544 265.21C223.068 265.21 227.356 259.799 227.356 252.802V239.95L222.386 241.077C214.701 242.649 211.541 247.169 211.541 255.07V255.056Z" fill="#FFFFFF"></path>
    <path d="M240.902 325.896C240.902 331.988 243.38 335.813 247.905 335.813C252.429 335.813 256.717 330.403 256.717 323.406V310.777L251.747 311.903C244.062 313.475 240.902 317.996 240.902 325.896Z" fill="#FFFFFF"></path>
    <path d="M137.491 184.911V185.133C143.589 185.133 148.782 178.596 148.782 169.124V155.367C148.782 144.532 143.366 137.55 137.269 137.55C131.171 137.55 125.978 146.354 125.978 163.268C125.978 180.182 130.043 184.925 137.491 184.925V184.911Z" fill="#FFFFFF"></path>
    <path d="M330.099 366.72H329.862C324.224 366.72 320.604 371.449 320.604 377.555C320.604 383.662 324.21 388.154 329.862 388.154C335.514 388.154 339.566 383.634 339.566 377.555C339.566 371.477 335.723 366.72 330.085 366.72H330.099Z" fill="#FFFFFF"></path>
    <path d="M499.986 245.709C499.986 243.233 499.986 240.632 499.903 238.1L499.777 235.583C499.777 105.6 394.153 0 263.664 0C251.859 0 240.262 0.834561 229.069 2.47586C231.352 2.47586 233.83 2.26722 236.113 2.26722C325.171 2.26722 402.645 51.4507 442.823 123.988C400.362 61.368 328.707 20.252 247.097 20.252C177.711 20.252 115.161 50.2127 72.0869 97.7549C108.534 47.3335 164.653 11.7812 229.069 2.28113C101.907 5.99493 0 109.939 0 237.655C0 286.421 14.9102 331.891 40.387 369.488C21.7458 335.799 10.9843 296.951 10.9843 255.626C10.9843 194.87 33.9691 139.497 71.8781 97.741C43.9232 136.381 27.5651 183.909 27.5651 235.165C27.5651 346.746 105.443 440.37 210.038 464.544C227.231 468.467 245.246 470.748 263.692 470.748C265.975 470.748 268.453 470.748 270.736 470.539C259.348 472.195 247.96 473.015 236.141 473.015C225.992 473.015 216.052 472.389 206.307 471.151C137.338 462.472 77.6834 424.04 40.4009 369.279C80.5791 441.817 158.054 491 247.111 491C251.051 491 254.977 491 258.917 490.791H258.708C392.719 488.524 500 379.614 500 245.709H499.986ZM368.467 119.481L371.182 139.566L391.285 142.279L371.182 144.991L368.467 165.076L365.753 144.991L345.649 142.279L365.753 139.566L368.467 119.481ZM372.755 275.363C372.755 279.425 369.595 282.582 365.07 282.582C360.546 282.582 357.385 279.425 357.385 275.363C357.385 271.302 360.546 268.144 365.07 268.144C369.595 268.144 372.755 271.302 372.755 275.363ZM352.652 175.884L338.647 178.596L336.614 195.969L334.582 178.596L320.576 175.884L334.582 173.171L336.614 155.799L338.647 173.171L352.652 175.884ZM333.009 103.472L336.614 75.2774L340.22 103.472L363.483 107.756L340.22 112.04L336.614 140.234L333.009 112.04L309.745 107.756L333.009 103.472ZM248.768 232.523H248.782L249.019 233.176C249.019 240.395 248.782 247.837 248.782 256.419C248.782 265.001 249.687 268.603 255.548 268.603H257.859C257.97 268.478 258.082 268.367 258.179 268.242C258.096 268.534 259.975 268.59 257.859 268.603C254.824 271.956 249.213 274.014 243.812 274.014C234.108 274.014 229.138 269.73 227.997 263.415C227.997 262.97 227.76 260.939 227.76 260.258C225.95 268.381 218.502 273.792 208.339 273.792C198.176 273.792 190.505 269.062 190.505 258.672C190.505 248.282 203.828 242.426 218.279 239.714L227.537 237.905V226.18C227.537 220.088 225.282 213.995 218.279 213.995C211.277 213.995 209.703 218.057 209.703 223.245C209.703 228.433 211.736 230.464 215.578 230.464C216.734 230.464 217.305 230.464 217.583 230.464C217.611 230.408 217.639 230.367 217.667 230.311C217.597 230.241 217.569 230.158 217.834 230.019C217.778 230.116 217.722 230.214 217.667 230.311C217.764 230.394 217.945 230.436 217.583 230.464C215.049 234.901 210.65 237.015 204.97 237.015C199.29 237.015 193.457 233.176 193.457 226.861C193.457 217.612 203.842 211.519 218.753 211.519C233.663 211.519 248.782 217.612 248.782 232.495L248.768 232.523ZM208.061 131.888C227.398 131.944 236.391 144.323 236.391 160.083H198.232C198.232 174.966 206.126 183.993 217.653 183.993C229.18 183.993 231.421 180.835 235.041 173.394L235.946 173.839C232.34 186.691 221.732 193.924 207.949 193.924C194.167 193.924 176.57 182.644 176.57 163.018C176.57 143.391 190.728 131.944 208.061 131.888ZM156.007 201.366C156.3 201.143 184.672 201.143 184.672 201.143V259.576C184.672 267.463 185.118 269.049 190.31 272.428C190.31 272.665 157.566 272.665 157.566 272.665C162.759 269.062 162.982 267.477 162.982 259.576V214.454C162.982 206.345 161.632 204.078 155.993 201.38L156.007 201.366ZM130.113 131.888C139.983 131.944 146.053 137.327 148.754 145.422V126.923C148.754 118.8 147.181 116.546 141.529 113.834C141.529 113.598 170.207 113.598 170.207 113.598V179.472C170.207 187.15 170.89 188.945 176.082 192.325C176.082 192.561 148.768 192.561 148.768 192.561V177.678C146.29 186.705 139.064 193.688 128.665 193.688C118.265 193.688 103.369 181.962 103.369 163.449C103.369 144.935 115.272 131.944 130.113 131.875V131.888ZM219.184 343.269H186.44H186.468C191.661 339.652 192.106 338.067 192.106 330.166V302.876C192.106 297.465 190.297 292.959 184.658 292.959C179.02 292.959 175.178 297.924 175.178 308.76V330.194C175.178 338.081 175.623 339.666 180.816 343.046C180.816 343.283 148.072 343.283 148.072 343.283C153.265 339.68 153.487 338.095 153.487 330.194V302.904C153.487 297.493 151.678 292.987 146.262 292.987C140.846 292.987 136.781 297.952 136.781 308.788V330.222C136.781 338.108 137.227 339.694 142.42 343.074C142.42 343.311 109.453 343.311 109.453 343.311C114.646 339.708 115.091 338.122 115.091 330.222V297.284C115.091 289.161 114.409 287.367 108.771 284.196C108.771 283.959 136.767 283.959 136.767 283.959V299.524C139.482 288.689 146.248 282.61 156.411 282.61C166.574 282.61 173.799 289.607 174.927 299.524C177.642 288.689 184.63 282.61 194.793 282.61C204.956 282.61 213.532 291.86 213.532 303.363V330.208C213.532 338.095 213.977 339.68 219.17 343.06V343.297L219.184 343.269ZM253.989 391.312H249.923V360.183L243.603 362.895V358.833L250.369 355.676H253.975V391.312H253.989ZM274.078 391.979C269.108 391.979 264.82 389.726 262.342 384.093L265.502 382.521C267.757 386.805 270.695 388.154 274.078 388.154C277.461 388.154 282.654 384.552 282.654 379.35C282.654 374.148 279.048 370.545 274.078 370.545C269.108 370.545 268.203 372.117 266.852 374.384H263.01L264.36 355.662H283.781V359.501H267.757L267.075 370.1C268.885 368.069 272.268 367.388 274.76 367.388C281.526 367.388 286.496 372.117 286.496 379.572C286.496 387.028 281.08 391.979 274.078 391.979ZM273.173 344.187H273.187C263.483 344.173 258.513 339.875 257.372 333.56C257.372 333.115 257.135 331.084 257.135 330.403C255.102 338.526 247.877 343.936 237.714 343.936C227.551 343.936 219.88 339.207 219.88 328.817C219.88 318.427 233.203 312.571 247.654 309.859L256.912 308.05V296.325C256.912 290.232 254.657 284.14 247.654 284.14C240.652 284.14 239.078 288.202 239.078 293.39C239.078 298.578 241.111 300.609 244.953 300.609C246.109 300.609 246.68 300.609 246.958 300.609C246.986 300.553 247.014 300.511 247.042 300.456C246.972 300.386 246.944 300.303 247.209 300.164C247.153 300.261 247.097 300.358 247.042 300.456C247.139 300.539 247.32 300.581 246.958 300.609C244.424 305.046 240.025 307.16 234.345 307.16C228.665 307.16 222.832 303.321 222.832 297.006C222.832 287.757 233.217 281.664 248.128 281.664C263.038 281.664 278.157 287.757 278.157 302.64C278.157 317.523 277.92 317.3 277.92 325.882C277.92 334.464 278.825 338.067 284.686 338.067H287.484L287.443 337.858C287.317 337.802 287.248 337.719 287.387 337.622L287.443 337.858C287.763 338.011 288.515 338.053 287.484 338.067L287.624 338.748C284.686 342.128 278.811 344.159 273.173 344.159V344.187ZM309.773 391.548C309.773 397.181 307.295 400.798 301.643 400.798H300.738V397.195H301.183C304.344 397.195 305.708 395.387 305.708 391.562V363.59H309.773V391.548ZM307.741 357.943C306.167 357.943 305.026 356.594 305.026 355.231C305.026 353.868 306.153 352.519 307.741 352.519C309.328 352.519 310.455 353.868 310.455 355.231C310.455 356.594 309.328 357.943 307.741 357.943ZM339.343 391.326V386.596C337.31 389.754 333.927 391.785 329.639 391.785C321.955 391.785 316.539 385.47 316.539 377.347C316.539 369.224 321.955 362.909 329.639 362.909C337.324 362.909 337.088 364.94 339.12 368.097V363.576H343.185V391.326H339.343ZM334.61 308.968L334.373 308.76C332.34 308.76 330.767 308.078 330.085 307.633C332.563 306.729 333.927 304.476 333.927 301.763C333.927 297.479 331.213 295.003 326.479 295.003C321.746 295.003 314.966 301.318 314.966 311.917V330.417C314.966 338.303 317.681 340.334 324.224 343.269C324.224 343.505 287.874 343.505 287.874 343.505C293.067 339.903 293.512 338.317 293.512 330.417V297.479C293.512 289.356 292.83 287.562 287.192 284.391C287.192 284.154 315.189 284.154 315.189 284.154V303.558C318.126 292.722 323.542 283.027 334.164 283.027C344.786 283.027 347.028 288.438 347.028 295.435C347.028 302.431 341.153 308.968 334.61 308.968ZM372.769 391.326V386.596C370.736 389.754 367.354 391.785 363.066 391.785C355.381 391.785 349.965 385.47 349.965 377.347C349.965 369.224 355.381 362.909 363.066 362.909C370.75 362.909 370.514 364.94 372.546 368.097V363.576H376.611V391.326H372.769ZM401.002 368.083V368.32C399.429 367.193 397.619 366.748 396.269 366.748C392.886 366.748 389.503 370.35 389.266 375.775V391.34H385.201V363.59H389.044V367.652C390.394 364.94 393.331 362.923 396.728 362.923C400.125 362.923 400.794 363.604 402.826 364.953L401.016 368.111L401.002 368.083Z" fill="#FFFFFF"></path>
    <path d="M363.274 366.72H363.038C357.399 366.72 353.78 371.449 353.78 377.555C353.78 383.662 357.385 388.154 363.038 388.154C368.69 388.154 372.741 383.634 372.741 377.555C372.741 371.477 368.899 366.72 363.26 366.72H363.274Z" fill="#FFFFFF"></path>
</svg>