<svg xmlns:xlink="http://www.w3.org/1999/xlink" width="22" height="22" viewBox="0 0 22 22" fill="none" xmlns="http://www.w3.org/2000/svg">
    <mask id="mask0_394_1235" style="mask-type:alpha" maskUnits="userSpaceOnUse" x="0" y="0" width="22" height="22" fill="none">
        <rect width="22" height="22" fill="#D9D9D9"></rect>
    </mask>
    <g mask="url(#mask0_394_1235)" fill="none">
        <path d="M11 5.50004C10.4958 5.50004 10.0642 5.32053 9.70521 4.9615C9.34618 4.60247 9.16667 4.17087 9.16667 3.66671C9.16667 3.16254 9.34618 2.73094 9.70521 2.37192C10.0642 2.01289 10.4958 1.83337 11 1.83337C11.5042 1.83337 11.9358 2.01289 12.2948 2.37192C12.6538 2.73094 12.8333 3.16254 12.8333 3.66671C12.8333 4.17087 12.6538 4.60247 12.2948 4.9615C11.9358 5.32053 11.5042 5.50004 11 5.50004ZM8.25 20.1667V8.25004C7.33333 8.17365 6.40139 8.05907 5.45417 7.90629C4.50694 7.75351 3.60556 7.56254 2.75 7.33337L3.20833 5.50004C4.4 5.82087 5.66806 6.05386 7.0125 6.199C8.35694 6.34414 9.68611 6.41671 11 6.41671C12.3139 6.41671 13.6431 6.34414 14.9875 6.199C16.3319 6.05386 17.6 5.82087 18.7917 5.50004L19.25 7.33337C18.3944 7.56254 17.4931 7.75351 16.5458 7.90629C15.5986 8.05907 14.6667 8.17365 13.75 8.25004V20.1667H11.9167V14.6667H10.0833V20.1667H8.25Z" fill="#FFFFFF"></path>
    </g>
</svg>