<svg xmlns:xlink="http://www.w3.org/1999/xlink" width="18" height="18" viewBox="0 0 18 18" fill="none" xmlns="http://www.w3.org/2000/svg">
    <path d="M8 3C8.5523 3 9 3.44772 9 4C9 4.55228 8.5523 5 8 5H2V16H13V10C13 9.4477 13.4477 9 14 9C14.5523 9 15 9.4477 15 10V16C15 17.1046 14.1046 18 13 18H2C0.89543 18 0 17.1046 0 16V5C0 3.89543 0.89543 3 2 3H8ZM17 0C17.5523 0 18 0.44772 18 1V6C18 6.55228 17.5523 7 17 7C16.4477 7 16 6.55228 16 6V3.41421L7.7071 11.7071C7.3166 12.0976 6.68342 12.0976 6.29289 11.7071C5.90237 11.3166 5.90237 10.6834 6.29289 10.2929L14.5858 2H12C11.4477 2 11 1.55229 11 1C11 0.44772 11.4477 0 12 0H17Z" fill="#FFFFFF"></path>
</svg>