<svg xmlns:xlink="http://www.w3.org/1999/xlink" width="24" height="24" viewBox="0 0 24 24" fill="none" xmlns="http://www.w3.org/2000/svg">
    <path d="M11.9999 0.333374C18.4432 0.333374 23.6666 5.55672 23.6666 12C23.6666 18.4433 18.4432 23.6667 11.9999 23.6667C5.55659 23.6667 0.333252 18.4433 0.333252 12C0.333252 5.55672 5.55659 0.333374 11.9999 0.333374ZM11.9883 9.66671H10.8333C10.1889 9.66671 9.66658 10.189 9.66658 10.8334C9.66658 11.4317 10.117 11.9248 10.6972 11.9922L10.8333 12V17.8217C10.8333 18.4291 11.2927 18.9292 11.8832 18.9931L12.0116 19H12.5833C13.2276 19 13.7499 18.4777 13.7499 17.8334C13.7499 17.4496 13.5645 17.109 13.2784 16.8964L13.1666 16.8228V10.845C13.1666 10.2377 12.707 9.7376 12.1166 9.67362L11.9883 9.66671ZM11.9999 6.16671C11.3556 6.16671 10.8333 6.68905 10.8333 7.33337C10.8333 7.9777 11.3556 8.50004 11.9999 8.50004C12.6443 8.50004 13.1666 7.9777 13.1666 7.33337C13.1666 6.68905 12.6443 6.16671 11.9999 6.16671Z" fill="#FFFFFF"></path>
</svg>