<?xml version="1.0" encoding="UTF-8"?>
<svg id="Layer_1" xmlns="http://www.w3.org/2000/svg" version="1.1" viewBox="0 0 20 20">
  <!-- Generator: Adobe Illustrator 29.8.1, SVG Export Plug-In . SVG Version: 2.1.1 Build 2)  -->
  <defs>
    <style>
      .st0 {
        fill-rule: evenodd;
      }
    </style>
  </defs>
  <path class="st0" d="M11,11h8c.6,0,1-.4,1-1,0-.6-.4-1-1-1h-8s0-8,0-8C11,.4,10.6,0,10,0c-.6,0-1,.4-1,1v8s-8,0-8,0c-.6,0-1,.4-1,1,0,.6.4,1,1,1h8s0,8,0,8c0,.6.4,1,1,1,.6,0,1-.4,1-1v-8Z"/>
</svg>