<svg xmlns:xlink="http://www.w3.org/1999/xlink" width="20" height="20" viewBox="0 0 20 20" fill="none" xmlns="http://www.w3.org/2000/svg">
    <mask id="mask0_395_1349" style="mask-type:alpha" maskUnits="userSpaceOnUse" x="0" y="0" width="20" height="20" fill="none">
        <rect width="20" height="20" fill="#D9D9D9"></rect>
    </mask>
    <g mask="url(#mask0_395_1349)" fill="none">
        <path d="M9.99935 18.3334C8.84657 18.3334 7.76324 18.1146 6.74935 17.6771C5.73546 17.2396 4.85352 16.6459 4.10352 15.8959C3.35352 15.1459 2.75977 14.2639 2.32227 13.25C1.88477 12.2361 1.66602 11.1528 1.66602 10C1.66602 8.84724 1.88477 7.76391 2.32227 6.75002C2.75977 5.73613 3.35352 4.85419 4.10352 4.10419C4.85352 3.35419 5.73546 2.76044 6.74935 2.32294C7.76324 1.88544 8.84657 1.66669 9.99935 1.66669C11.1521 1.66669 12.2355 1.88544 13.2493 2.32294C14.2632 2.76044 15.1452 3.35419 15.8952 4.10419C16.6452 4.85419 17.2389 5.73613 17.6764 6.75002C18.1139 7.76391 18.3327 8.84724 18.3327 10C18.3327 11.1528 18.1139 12.2361 17.6764 13.25C17.2389 14.2639 16.6452 15.1459 15.8952 15.8959C15.1452 16.6459 14.2632 17.2396 13.2493 17.6771C12.2355 18.1146 11.1521 18.3334 9.99935 18.3334ZM10.8327 16.6042C12.4855 16.3959 13.8709 15.6702 14.9889 14.4271C16.107 13.184 16.666 11.7084 16.666 10C16.666 8.29169 16.107 6.81599 14.9889 5.57294C13.8709 4.32988 12.4855 3.60419 10.8327 3.39585V16.6042Z" fill="black"></path>
    </g>
</svg>