<svg xmlns:xlink="http://www.w3.org/1999/xlink" width="18" height="18" viewBox="0 0 18 18" fill="none" xmlns="http://www.w3.org/2000/svg"><path d="M8.9998 0.800049C13.5264 0.800049 17.1998 4.46969 17.1998 8.99205C17.1998 11.3019 16.22 13.4799 14.553 15.0475L14.3598 15.222L14.3529 15.2348L14.3321 15.2563L13.6415 15.7694L13.608 15.7906C12.2528 16.7094 10.6531 17.2004 9.01585 17.2001C7.37853 17.2004 5.77877 16.7094 4.41087 15.7812L4.2964 15.6857L4.24748 15.6474L4.09839 15.5435L3.74102 15.2719L3.7358 15.26L3.70221 15.2344C1.87728 13.6819 0.799805 11.4153 0.799805 8.99205C0.799805 4.46969 4.47325 0.800049 8.9998 0.800049ZM8.99942 11.542C8.64973 11.5414 8.3015 11.5871 7.96443 11.678C7.61976 11.772 7.31763 11.8951 7.04009 12.0557C6.75985 12.227 6.48558 12.4411 6.25659 12.67C6.02276 12.8892 5.82516 13.1427 5.6527 13.4406C5.48054 13.7367 5.34742 14.0538 5.25783 14.3796L5.21315 14.5654L5.2018 14.62L5.34701 14.7172C6.35136 15.3617 7.49481 15.7331 8.69785 15.7864L8.9998 15.793C10.3017 15.791 11.574 15.4168 12.6676 14.7175L12.8118 14.62L12.794 14.5181C12.7635 14.3697 12.7256 14.2254 12.6804 14.0859L12.6074 13.8805C12.4092 13.4089 12.1356 12.9987 11.7893 12.6523C11.0401 11.9331 10.0397 11.5347 8.99942 11.542ZM8.9998 2.19105C5.25427 2.19105 2.1918 5.2505 2.1918 8.99205C2.1918 10.5983 2.76046 12.1119 3.77917 13.3313L3.9488 13.527L3.97045 13.4667C4.08593 13.1607 4.23017 12.8661 4.40172 12.5861L4.58233 12.311C4.9024 11.8731 5.28508 11.4783 5.70932 11.1519C5.87594 11.0229 6.04994 10.9039 6.23036 10.7956L6.4848 10.652L6.40961 10.5921L6.25038 10.4445C5.95704 10.1511 5.74718 9.89375 5.59731 9.6236C5.41546 9.32707 5.27872 9.00825 5.17629 8.64968C5.07461 8.31183 5.0238 7.95642 5.02381 7.58701C5.0186 7.05533 5.12188 6.52817 5.32756 6.03724C5.52598 5.5674 5.81156 5.13938 6.16865 4.77638C6.52855 4.40751 6.95918 4.11504 7.43462 3.91654C7.9257 3.71111 8.45347 3.60785 8.98172 3.61306C9.51394 3.60752 10.0417 3.71042 10.5336 3.91579C11.0037 4.11419 11.432 4.39974 11.7966 4.75803C12.1613 5.11967 12.453 5.54819 12.6563 6.02177C12.8617 6.51217 12.965 7.03933 12.9598 7.5663C12.9697 8.2854 12.7766 8.99271 12.402 9.60804C12.2177 9.90693 11.9982 10.1827 11.7508 10.4268C11.7007 10.4782 11.6487 10.5277 11.5951 10.5753L11.5268 10.631L11.7824 10.7712C11.8725 10.8239 11.9611 10.8792 12.0481 10.9371L12.304 11.1182C12.7429 11.4483 13.1254 11.8473 13.4362 12.2992C13.6844 12.6576 13.8881 13.0442 14.0461 13.4613L14.0638 13.513L14.2342 13.3199C15.1819 12.1864 15.7341 10.7704 15.8009 9.28911L15.8078 8.99205C15.8078 5.2505 12.7453 2.19105 8.9998 2.19105ZM8.9998 5.11605C8.66096 5.11605 8.33993 5.17951 8.05788 5.30643C7.75222 5.44398 7.48663 5.62306 7.26923 5.84047C7.05048 6.05922 6.87082 6.32449 6.73419 6.62812C6.60731 6.91008 6.5438 7.2311 6.54379 7.57125C6.54023 7.89516 6.60543 8.21614 6.73737 8.51846C6.85472 8.8104 7.03031 9.07605 7.25207 9.29748C7.48025 9.52196 7.74736 9.70308 8.03583 9.83006C8.64829 10.0818 9.33531 10.0818 9.94326 9.83198C10.2363 9.70308 10.5034 9.52196 10.7294 9.29966C10.9542 9.07155 11.1356 8.80444 11.2655 8.50976C11.3945 8.22405 11.4558 7.91771 11.4558 7.56905C11.4558 7.2311 11.3923 6.91008 11.2655 6.62834C11.1283 6.3244 10.9484 6.05845 10.7307 5.84076C10.512 5.62303 10.2457 5.44324 9.94173 5.30643C9.65486 5.17734 9.3484 5.11605 8.9998 5.11605Z" fill="#FFFFFF"></path></svg>