<svg xmlns:xlink="http://www.w3.org/1999/xlink" width="28" height="22" viewBox="0 0 28 22" fill="none" xmlns="http://www.w3.org/2000/svg">
    <path fill-rule="evenodd" clip-rule="evenodd" d="M14 0.333313C15.1405 0.333313 16.3088 0.363205 17.4422 0.410336L18.7815 0.474358L20.0632 0.550072L21.2634 0.632618L22.358 0.71714C24.8086 0.916006 26.7781 2.81254 27.0177 5.28143L27.0707 5.84748L27.1707 7.06074C27.2643 8.31839 27.3333 9.68976 27.3333 11C27.3333 12.3102 27.2643 13.6816 27.1707 14.9392L27.0707 16.1525C27.0532 16.3462 27.0355 16.5352 27.0177 16.7185C26.7781 19.1874 24.8086 21.084 22.358 21.2828L21.2634 21.3673L20.0632 21.4498L18.7815 21.5256L17.4422 21.5896C16.3088 21.6367 15.1405 21.6666 14 21.6666C12.8594 21.6666 11.6911 21.6367 10.5577 21.5896L9.21844 21.5256L7.93667 21.4498L6.73649 21.3673L5.64196 21.2828C3.19131 21.084 1.22183 19.1874 0.982199 16.7185L0.929188 16.1525L0.82919 14.9392C0.735687 13.6816 0.666626 12.3102 0.666626 11C0.666626 9.68976 0.735687 8.31839 0.82919 7.06074L0.929188 5.84748C0.946662 5.65375 0.964401 5.4648 0.982199 5.28143C1.22183 2.81254 3.19131 0.916006 5.64196 0.71714L6.73649 0.632618L7.93667 0.550072L9.21843 0.474358L10.5577 0.410336C11.6911 0.363205 12.8594 0.333313 14 0.333313ZM11.3333 7.76682V14.2332C11.3333 14.849 12 15.2338 12.5333 14.926L18.1333 11.6928C18.6666 11.3849 18.6666 10.615 18.1333 10.3072L12.5333 7.07399C12 6.76607 11.3333 7.15098 11.3333 7.76682Z" fill="#FFFFFF"></path>
</svg>