<svg xmlns:xlink="http://www.w3.org/1999/xlink" width="16" height="16" viewBox="0 0 16 16" fill="none" xmlns="http://www.w3.org/2000/svg">
    <path fill-rule="evenodd" clip-rule="evenodd" d="M8 9.4144L13.6568 15.0713C14.0473 15.4618 14.6805 15.4618 15.071 15.0713C15.4615 14.6807 15.4615 14.0476 15.071 13.657L9.4142 8.0002L15.071 2.34335C15.4615 1.95283 15.4615 1.31966 15.071 0.929141C14.6805 0.538611 14.0473 0.538611 13.6568 0.929141L8 6.586L2.34309 0.92912C1.95257 0.5386 1.3194 0.5386 0.928876 0.92912C0.538356 1.31965 0.538356 1.95281 0.928876 2.34334L6.5857 8.0002L0.928876 13.6571C0.538356 14.0476 0.538356 14.6807 0.928876 15.0713C1.3194 15.4618 1.95257 15.4618 2.34309 15.0713L8 9.4144Z" fill="black"></path>
</svg>