<svg xmlns="http://www.w3.org/2000/svg" viewBox="0 0 33.8 24.98"><defs><style>.cls-1{stroke:#ffefe7;stroke-width:0.55px;}.cls-1,.cls-2{stroke-miterlimit:10;}.cls-2{fill:none;stroke:#000;stroke-linecap:round;stroke-width:1.84px;}</style></defs><title>Asset 1</title><g id="Layer_2" data-name="Layer 2"><g id="Layer_1-2" data-name="Layer 1"><path class="cls-1" d="M21.18.4l-11,4.4H5.88a5.66,5.66,0,0,0-5.6,5.6,5.42,5.42,0,0,0,2.4,4.5l.9,6.9a3.26,3.26,0,0,0,3.3,2.9,3.34,3.34,0,0,0,3.3-3.8l-.5-4.8h.7l11,4.4a1.13,1.13,0,0,0,1.6-1V1.5C22.78.6,22,0,21.18.4ZM5.88,7h3.4v6.7H5.88a3.44,3.44,0,0,1-3.4-3.4A3.35,3.35,0,0,1,5.88,7Zm1.9,14.2a1,1,0,0,1-1,1.2,1,1,0,0,1-1.1-.9L5,16h2.2Zm12.7-3.5-9-3.6V6.7l9-3.6Z"/><line class="cls-2" x1="24.88" y1="10.3" x2="32.88" y2="10.3"/><line class="cls-2" x1="24.88" y1="14.9" x2="32.88" y2="16.7"/><line class="cls-2" x1="24.88" y1="5.7" x2="32.88" y2="4"/></g></g></svg>