<?xml version="1.0" encoding="UTF-8"?>
<svg id="Layer_1" xmlns="http://www.w3.org/2000/svg" version="1.1" viewBox="0 0 18 18">
  <!-- Generator: Adobe Illustrator 29.8.1, SVG Export Plug-In . SVG Version: 2.1.1 Build 2)  -->
  <defs>
    <style>
      .st0 {
        fill: #fff;
      }
    </style>
  </defs>
  <path class="st0" d="M8,3c.6,0,1,.4,1,1s-.4,1-1,1H2v11h11v-6c0-.6.4-1,1-1s1,.4,1,1v6c0,1.1-.9,2-2,2H2c-1.1,0-2-.9-2-2V5c0-1.1.9-2,2-2h6ZM17,0c.6,0,1,.4,1,1v5c0,.6-.4,1-1,1s-1-.4-1-1v-2.6L7.7,11.7c-.4.4-1,.4-1.4,0-.4-.4-.4-1,0-1.4L14.6,2h-2.6c-.6,0-1-.4-1-1s.4-1,1-1h5Z"/>
</svg>