<?xml version="1.0" encoding="UTF-8"?>
<svg id="Layer_1" xmlns="http://www.w3.org/2000/svg" version="1.1" viewBox="0 0 27.2 19.2">
  <!-- Generator: Adobe Illustrator 29.8.1, SVG Export Plug-In . SVG Version: 2.1.1 Build 2)  -->
  <defs>
    <style>
      .st0 {
        fill-rule: evenodd;
      }

      .st0, .st1 {
        fill: #fff;
        stroke: #fff;
        stroke-miterlimit: 10;
        stroke-width: .8px;
      }
    </style>
  </defs>
  <path class="st1" d="M15.5,2.5c-.3-.2-.6-.2-.8.1-.2.3-.2.6.1.8.5.4.9.8,1.3,1.3.2.3.6.3.9,0,.3-.2.3-.6,0-.8-.4-.6-1-1.1-1.5-1.5Z"/>
  <path class="st1" d="M17.6,5.9c.3-.1.7,0,.8.3.3.7.5,1.4.6,2.1,0,.3-.2.6-.5.7-.3,0-.6-.2-.7-.5,0-.6-.3-1.2-.5-1.8-.1-.3,0-.7.3-.8Z"/>
  <path class="st1" d="M18.9,10.9c0-.3-.2-.6-.5-.7-.3,0-.6.2-.7.5,0,.6-.2,1.3-.5,1.8-.1.3,0,.7.3.8.3.1.7,0,.8-.3.3-.7.5-1.4.6-2.1Z"/>
  <path class="st1" d="M17.1,15.3c.2-.3.2-.6-.1-.8-.3-.2-.6-.2-.8.1-.4.5-.8,1-1.3,1.3-.3.2-.3.6-.1.8.2.3.6.3.8.1.6-.5,1.1-1,1.6-1.6Z"/>
  <path class="st0" d="M12.1,2.1c-2.4,1.6-4,4.4-4,7.5s1.6,6,4.1,7.6c-.4.1-.8.2-1.2.3-.3,0-.6.3-.5.7,0,.3.3.6.7.5.7,0,1.4-.3,2.1-.6,0,0,.2-.1.2-.2,1.1.5,2.3.7,3.6.7,5,0,9.1-4.1,9.1-9.1S22.2.6,17.1.6s-2.6.3-3.7.8c0,0-.1,0-.2-.1-.7-.3-1.3-.4-2.1-.5-.3,0-.6.2-.7.5,0,.3.2.6.5.7.4,0,.7.1,1,.2ZM9.3,9.6c0-4.3,3.5-7.9,7.9-7.9s7.9,3.5,7.9,7.9-3.5,7.9-7.9,7.9-7.9-3.5-7.9-7.9Z"/>
  <path class="st1" d="M8.8,1.9c.3,0,.6-.4.5-.7,0-.3-.4-.6-.7-.5-.7.1-1.4.3-2,.6-.3.1-.5.5-.3.8.1.3.5.5.8.3.6-.2,1.1-.4,1.8-.5Z"/>
  <path class="st1" d="M2.7,6.8c.1-.3,0-.7-.3-.8-.3-.1-.7,0-.8.3-.3.6-.4,1.3-.6,2,0,.3.2.6.5.7.3,0,.6-.2.7-.5,0-.6.3-1.2.5-1.8Z"/>
  <path class="st1" d="M1.5,10.2c.3,0,.6.2.7.5,0,.6.2,1.2.5,1.8.1.3,0,.7-.3.8-.3.1-.7,0-.8-.3-.3-.7-.4-1.3-.5-2.1,0-.3.2-.6.5-.7Z"/>
  <path class="st1" d="M2.9,14.4c.3-.2.6-.2.8.1.4.5.8.9,1.3,1.3.3.2.3.6,0,.8-.2.3-.6.3-.9,0-.6-.4-1.1-1-1.5-1.5-.2-.3-.2-.6.1-.8Z"/>
  <path class="st1" d="M6.2,17.3c.1-.3.5-.5.8-.3.6.2,1.2.4,1.8.5.3,0,.6.4.5.7,0,.3-.4.6-.7.5-.7-.1-1.4-.3-2.1-.6-.3-.1-.5-.5-.3-.8Z"/>
  <path class="st1" d="M5.2,2.7c.2.3.2.6,0,.8-.5.4-.9.8-1.3,1.3-.2.3-.6.3-.8,0-.3-.2-.3-.6,0-.8.4-.5.9-1,1.5-1.5.3-.2.6-.2.8,0Z"/>
</svg>