<svg id="Layer_1" data-name="Layer 1" xmlns="http://www.w3.org/2000/svg" viewBox="0 0 116.12 116.12"><defs><style>.cls-1{fill:#fff;}.cls-2{stroke:#fff;stroke-miterlimit:10;stroke-width:0.3px;}</style></defs><circle class="cls-1" cx="58.06" cy="58.06" r="58.06"/><g id="Layer_2" data-name="Layer 2"><g id="Layer_1-2" data-name="Layer 1-2"><path class="cls-2" d="M92.06,39.58c-2.37-6.14-18-9.46-19.77-9.81h-.05a8.87,8.87,0,0,0-16.16.31,77.69,77.69,0,0,0-9.79,2.16C39.64,34.33,36,36.74,35,39.63,33,46,45.46,51.27,50.25,53.14l-2.62,18-6,6h-14a1.78,1.78,0,1,0,0,3.56H38.26l-1.21,1.22a6,6,0,0,0-.44,8c.09.08.09.17.17.25l.18.18c.09.08.17.17.26.17a6,6,0,0,0,8.07-.34l3.88-3.88V96.62a5.85,5.85,0,0,0,5.37,5.89h1a6,6,0,0,0,5.37-5.89v-16H86.15A1.82,1.82,0,0,0,88,78.81a1.86,1.86,0,0,0-2-1.74H70.09a5.79,5.79,0,0,0,.6-2.08c0-.17.08-.26.08-.43v-.35l2.61-20.84c4.52-1.3,15.87-4.87,18.41-9.86A4.71,4.71,0,0,0,92.06,39.58ZM64.25,42.69a8.89,8.89,0,0,0,7.47-4L75.28,40c2.38.87,3.45,1.11,3.88,1.48-.67.83-3.88,2-7.34,3.09l-16.64-.62a37.07,37.07,0,0,1-6.5-2.42c.61-.3,1.3-.46,3-1,1.29-.45,3-1,5.18-1.82A8.88,8.88,0,0,0,64.25,42.69Zm0-14.41a5.38,5.38,0,1,1-5.38,5.38,5.38,5.38,0,0,1,5.38-5.38Zm-7,68.31a2.25,2.25,0,0,1-2.18,2.34H55a2.38,2.38,0,0,1-2.26-2.34v-14l4.51-4.51Zm10-22.38a2.11,2.11,0,0,1-.61,1.56,2.5,2.5,0,0,1-3.3-.1L60.2,72.55a1.78,1.78,0,0,0-2.51,0l-1.3,1.31-7.21,7.2-6.41,6.42a2.51,2.51,0,0,1-3.3.09,2.41,2.41,0,0,1,.09-3.29L50.23,73.61l1-1,6.1-6.1a2.51,2.51,0,0,1,3.38,0l5.88,5.92A2.38,2.38,0,0,1,67.23,74ZM89,42.17c-2,3.82-12.5,7.4-17.28,8.71h0a1.78,1.78,0,0,0-1.83,1.72v.1L67.16,68.23l-4-4.08a5.91,5.91,0,0,0-4.26-1.74,6.29,6.29,0,0,0-3.81,1.39c-.09.09-.17.09-.26.17l-3.57,3.56L54,52.7a1.84,1.84,0,0,0-1.51-1.79,57,57,0,0,1-7.63-3.48c-2.66-1.5-7-4.4-6.18-6.94.58-1.8,5.64-5.3,16.71-7.38v.56A8.88,8.88,0,0,0,55.68,36c-2,.74-3.66,1.31-4.9,1.73-4.38,1.52-5.42,1.89-5.79,3.8-.17.9.1,2.29,9.59,5.16l.17,0,17.48.65.23-.07c6.66-2,10.54-3.4,10.35-5.63s-1.38-2.58-6.52-4.44L72.92,36a8.89,8.89,0,0,0,.3-2.29,6.12,6.12,0,0,0,0-.85h0c6,1.39,14.69,4.43,15.95,7.68A1.86,1.86,0,0,1,89,42.17Z" transform="translate(-2.05 -5.55)"/></g></g></svg>