<svg xmlns:xlink="http://www.w3.org/1999/xlink" width="28" height="28" viewBox="0 0 28 28" fill="none" xmlns="http://www.w3.org/2000/svg">
    <path d="M14 0.666687C17.6226 0.666687 18.0746 0.68002 19.496 0.746687C20.916 0.813354 21.8826 1.03602 22.7333 1.36669C23.6133 1.70535 24.3546 2.16402 25.096 2.90402C25.774 3.57055 26.2986 4.37681 26.6333 5.26669C26.9626 6.11602 27.1866 7.08402 27.2533 8.50402C27.316 9.92535 27.3333 10.3774 27.3333 14C27.3333 17.6227 27.32 18.0747 27.2533 19.496C27.1866 20.916 26.9626 21.8827 26.6333 22.7334C26.2995 23.6237 25.7748 24.4302 25.096 25.096C24.4292 25.7738 23.623 26.2984 22.7333 26.6334C21.884 26.9627 20.916 27.1867 19.496 27.2534C18.0746 27.316 17.6226 27.3334 14 27.3334C10.3773 27.3334 9.92529 27.32 8.50396 27.2534C7.08396 27.1867 6.11729 26.9627 5.26663 26.6334C4.37639 26.2993 3.57 25.7746 2.90396 25.096C2.22583 24.4296 1.7012 23.6233 1.36663 22.7334C1.03596 21.884 0.813293 20.916 0.746626 19.496C0.683959 18.0747 0.666626 17.6227 0.666626 14C0.666626 10.3774 0.679959 9.92535 0.746626 8.50402C0.813293 7.08269 1.03596 6.11735 1.36663 5.26669C1.70027 4.37626 2.22503 3.56978 2.90396 2.90402C3.57019 2.22566 4.37653 1.70099 5.26663 1.36669C6.11729 1.03602 7.08263 0.813354 8.50396 0.746687C9.92529 0.68402 10.3773 0.666687 14 0.666687ZM14 7.33335C12.2318 7.33335 10.5362 8.03573 9.28591 9.28598C8.03567 10.5362 7.33329 12.2319 7.33329 14C7.33329 15.7681 8.03567 17.4638 9.28591 18.7141C10.5362 19.9643 12.2318 20.6667 14 20.6667C15.7681 20.6667 17.4638 19.9643 18.714 18.7141C19.9642 17.4638 20.6666 15.7681 20.6666 14C20.6666 12.2319 19.9642 10.5362 18.714 9.28598C17.4638 8.03573 15.7681 7.33335 14 7.33335ZM22.6666 7.00002C22.6666 6.55799 22.491 6.13407 22.1785 5.82151C21.8659 5.50895 21.442 5.33335 21 5.33335C20.5579 5.33335 20.134 5.50895 19.8214 5.82151C19.5089 6.13407 19.3333 6.55799 19.3333 7.00002C19.3333 7.44205 19.5089 7.86597 19.8214 8.17853C20.134 8.49109 20.5579 8.66669 21 8.66669C21.442 8.66669 21.8659 8.49109 22.1785 8.17853C22.491 7.86597 22.6666 7.44205 22.6666 7.00002ZM14 10C15.0608 10 16.0782 10.4214 16.8284 11.1716C17.5785 11.9217 18 12.9392 18 14C18 15.0609 17.5785 16.0783 16.8284 16.8284C16.0782 17.5786 15.0608 18 14 18C12.9391 18 11.9217 17.5786 11.1715 16.8284C10.4214 16.0783 9.99996 15.0609 9.99996 14C9.99996 12.9392 10.4214 11.9217 11.1715 11.1716C11.9217 10.4214 12.9391 10 14 10Z" fill="#FFFFFF"></path>
</svg>