<svg xmlns:xlink="http://www.w3.org/1999/xlink" width="28" height="28" viewBox="0 0 22 28" fill="none" xmlns="http://www.w3.org/2000/svg">
    <path fill-rule="evenodd" clip-rule="evenodd" d="M13.6667 0.666687C15.1395 0.666687 16.3334 1.86059 16.3334 3.33335C16.3334 5.26313 17.7067 6.88242 19.5312 7.25323C20.9744 7.54658 21.9066 8.95435 21.6132 10.3976C21.3199 11.8408 19.9122 12.7731 18.4688 12.4798C17.7208 12.3276 17.005 12.0862 16.3334 11.767V19.3334C16.3334 23.7516 12.7516 27.3334 8.33337 27.3334C3.91509 27.3334 0.333374 23.7516 0.333374 19.3334C0.333374 15.602 2.88547 12.4735 6.33535 11.5855C7.76163 11.2184 9.21551 12.0771 9.58257 13.5034C9.94964 14.9296 9.09097 16.3835 7.66473 16.7506C6.514 17.0467 5.66671 18.0944 5.66671 19.3334C5.66671 20.8062 6.86061 22 8.33337 22C9.80617 22 11 20.8062 11 19.3334V3.33335C11 1.86059 12.1939 0.666687 13.6667 0.666687Z" fill="#FFFFFF"></path>
</svg>