<svg xmlns:xlink="http://www.w3.org/1999/xlink" width="18" height="18" viewBox="0 0 18 18" fill="none" xmlns="http://www.w3.org/2000/svg">
    <path d="M13 0C13.5128 0 13.9355 0.386044 13.9933 0.88338L14 1V2H16C17.0544 2 17.9182 2.81588 17.9945 3.85074L18 4V16C18 17.0544 17.1841 17.9182 16.1493 17.9945L16 18H2C0.945638 18 0.0818349 17.1841 0.00548577 16.1493L0 16V4C0 2.94564 0.815877 2.08183 1.85074 2.00549L2 2H4V1C4 0.44772 4.44772 0 5 0C5.51283 0 5.93551 0.386044 5.99327 0.88338L6 1V2H12V1C12 0.44772 12.4477 0 13 0ZM16 9H2V16H16V9ZM16 4H2V7H16V4Z" fill="#FFFFFF"></path>
</svg>