<svg xmlns:xlink="http://www.w3.org/1999/xlink" width="28" height="28" viewBox="0 0 28 28" fill="none" xmlns="http://www.w3.org/2000/svg">
    <path d="M16 27.1844C22.415 26.2194 27.3333 20.684 27.3333 14C27.3333 6.63622 21.3637 0.666687 14 0.666687C6.63616 0.666687 0.666626 6.63622 0.666626 14C0.666626 20.684 5.58495 26.2194 12 27.1844V18H9.99996C8.89539 18 7.99996 17.1046 7.99996 16C7.99996 14.8955 8.89539 14 9.99996 14H12V11.3334C12 8.75602 14.0893 6.66669 16.6666 6.66669H17.3333C18.4378 6.66669 19.3333 7.56211 19.3333 8.66669C19.3333 9.77126 18.4378 10.6667 17.3333 10.6667H16.6666C16.2985 10.6667 16 10.9652 16 11.3334V14H18C19.1045 14 20 14.8955 20 16C20 17.1046 19.1045 18 18 18H16V27.1844Z" fill="#FFFFFF"></path>
</svg>