<svg width="46" height="28" viewBox="0 0 46 28" fill="none" xmlns="http://www.w3.org/2000/svg">
<path d="M45.7203 15.1731C45.7206 15.1588 45.7207 15.1465 45.7207 15.1322V2C45.7207 0.895429 44.8253 0 43.7207 0H2.7207C1.61613 0 0.720703 0.895431 0.720703 2V26C0.720703 27.1046 1.61613 28 2.7207 28H43.7207C44.8253 28 45.7207 27.1046 45.7207 26V21.8307C45.7207 20.7262 45.6706 18.9397 45.6798 17.8352C45.6898 16.6508 45.7167 15.3464 45.7203 15.1731Z" fill="#006FCF"/>
<path d="M40.1207 13.9H43.5207V6H39.8207V7.1L39.1207 6H35.9207V7.4L35.3207 6H29.4207C29.2207 6 29.0207 6.1 28.8207 6.1C28.6207 6.1 28.5207 6.2 28.3207 6.3C28.1207 6.4 28.0207 6.4 27.8207 6.5V6H10.9207L10.4207 7.3L9.9207 6H5.9207V7.4L5.3207 6H2.1207L0.720703 9.4V13.9H3.0207L3.4207 12.8H4.2207L4.6207 13.9H22.2207V12.9L22.9207 13.9H27.8207V13.3C27.9207 13.4 28.1207 13.4 28.2207 13.5C28.3207 13.6 28.5207 13.6 28.6207 13.7C28.8207 13.8 29.0207 13.8 29.2207 13.8H32.8207L33.2207 12.7H34.0207L34.4207 13.8H39.3207V12.8L40.1207 13.9ZM45.6207 23.9V16.5H18.1207L17.4207 17.5L16.7207 16.5H8.7207V24.4H16.7207L17.4207 23.4L18.1207 24.4H23.1207V22.7H22.9207C23.6207 22.7 24.2207 22.6 24.7207 22.4V24.5H28.3207V23.5L29.0207 24.5H43.9207C44.5207 24.3 45.1207 24.2 45.6207 23.9Z" fill="white"/>
<path d="M43.9207 22H41.2207V23.1H43.8207C44.9207 23.1 45.6207 22.4 45.6207 21.4C45.6207 20.4 45.0207 19.9 44.0207 19.9H42.8207C42.5207 19.9 42.3207 19.7 42.3207 19.4C42.3207 19.1 42.5207 18.9 42.8207 18.9H45.1207L45.6207 17.8H42.9207C41.8207 17.8 41.1207 18.5 41.1207 19.4C41.1207 20.4 41.7207 20.9 42.7207 20.9H43.9207C44.2207 20.9 44.4207 21.1 44.4207 21.4C44.5207 21.8 44.3207 22 43.9207 22ZM39.0207 22H36.3207V23.1H38.9207C40.0207 23.1 40.7207 22.4 40.7207 21.4C40.7207 20.4 40.1207 19.9 39.1207 19.9H37.9207C37.6207 19.9 37.4207 19.7 37.4207 19.4C37.4207 19.1 37.6207 18.9 37.9207 18.9H40.2207L40.7207 17.8H38.0207C36.9207 17.8 36.2207 18.5 36.2207 19.4C36.2207 20.4 36.8207 20.9 37.8207 20.9H39.0207C39.3207 20.9 39.5207 21.1 39.5207 21.4C39.6207 21.8 39.3207 22 39.0207 22ZM35.5207 18.8V17.7H31.3207V23H35.5207V21.9H32.5207V20.8H35.4207V19.7H32.5207V18.7H35.5207V18.8ZM28.7207 18.8C29.2207 18.8 29.4207 19.1 29.4207 19.4C29.4207 19.7 29.2207 20 28.7207 20H27.2207V18.7L28.7207 18.8ZM27.2207 21.1H27.8207L29.4207 23H30.9207L29.1207 21C30.0207 20.8 30.5207 20.2 30.5207 19.4C30.5207 18.4 29.8207 17.7 28.7207 17.7H25.9207V23H27.1207L27.2207 21.1ZM24.0207 19.5C24.0207 19.9 23.8207 20.2 23.3207 20.2H21.7207V18.8H23.2207C23.7207 18.8 24.0207 19.1 24.0207 19.5ZM20.5207 17.7V23H21.7207V21.2H23.3207C24.4207 21.2 25.2207 20.5 25.2207 19.4C25.2207 18.4 24.5207 17.6 23.4207 17.6L20.5207 17.7ZM18.7207 23H20.2207L18.1207 20.3L20.2207 17.7H18.7207L17.4207 19.4L16.1207 17.7H14.6207L16.7207 20.3L14.6207 22.9H16.1207L17.4207 21.2L18.7207 23ZM14.2207 18.8V17.7H10.0207V23H14.2207V21.9H11.2207V20.8H14.1207V19.7H11.2207V18.7H14.2207V18.8ZM38.5207 9.40005L40.6207 12.6H42.1207V7.30005H40.9207V10.8L40.6207 10.3L38.7207 7.30005H37.1207V12.6H38.3207V9.00005L38.5207 9.40005ZM33.3207 9.30005L33.7207 8.20005L34.1207 9.30005L34.6207 10.5H32.8207L33.3207 9.30005ZM35.4207 12.6H36.7207L34.4207 7.30005H32.8207L30.5207 12.6H31.8207L32.3207 11.5H34.9207L35.4207 12.6ZM29.8207 12.6L30.3207 11.5H30.0207C29.1207 11.5 28.6207 10.9 28.6207 10V9.90005C28.6207 9.00005 29.1207 8.40005 30.0207 8.40005H31.3207V7.30005H29.9207C28.3207 7.30005 27.4207 8.40005 27.4207 9.90005V10C27.4207 11.6 28.3207 12.6 29.8207 12.6ZM25.3207 12.6H26.5207V7.40005H25.3207V12.6ZM22.7207 8.40005C23.2207 8.40005 23.4207 8.70005 23.4207 9.00005C23.4207 9.30005 23.2207 9.60005 22.7207 9.60005H21.2207V8.30005L22.7207 8.40005ZM21.2207 10.7H21.8207L23.4207 12.6H24.9207L23.1207 10.6C24.0207 10.4 24.5207 9.80005 24.5207 9.00005C24.5207 8.00005 23.8207 7.30005 22.7207 7.30005H19.9207V12.6H21.1207L21.2207 10.7ZM19.0207 8.40005V7.30005H14.8207V12.6H19.0207V11.5H16.0207V10.4H18.9207V9.30005H16.0207V8.30005H19.0207V8.40005ZM9.9207 12.6H11.0207L12.5207 8.30005V12.6H13.7207V7.30005H11.7207L10.5207 10.9L9.3207 7.30005H7.3207V12.6H8.5207V8.30005L9.9207 12.6ZM3.4207 9.30005L3.8207 8.20005L4.2207 9.30005L4.7207 10.5H2.9207L3.4207 9.30005ZM5.5207 12.6H6.8207L4.5207 7.30005H3.0207L0.720703 12.6H2.0207L2.5207 11.5H5.1207L5.5207 12.6Z" fill="#006FCF"/>
</svg>
