<svg width="41" height="28" viewBox="0 0 41 28" fill="none" xmlns="http://www.w3.org/2000/svg">
<rect x="0.767578" width="39.5129" height="28" rx="2" fill="white"/>
<path d="M24.5963 6.66211H16.4297V21.3378H24.5963V6.66211Z" fill="#FF5F00"/>
<path d="M16.9484 14.0001C16.9471 12.5867 17.2674 11.1915 17.885 9.92025C18.5026 8.64895 19.4013 7.53483 20.5132 6.66222C19.1363 5.57997 17.4827 4.90695 15.7415 4.72005C14.0002 4.53316 12.2414 4.83994 10.6663 5.60534C9.09112 6.37074 7.76308 7.56387 6.83395 9.04836C5.90482 10.5328 5.41211 12.2488 5.41211 14.0001C5.41211 15.7513 5.90482 17.4673 6.83395 18.9518C7.76308 20.4363 9.09112 21.6294 10.6663 22.3948C12.2414 23.1602 14.0002 23.467 15.7415 23.2801C17.4827 23.0932 19.1363 22.4202 20.5132 21.3379C19.4013 20.4653 18.5026 19.3512 17.885 18.0799C17.2674 16.8086 16.9471 15.4134 16.9484 14.0001Z" fill="#EB001B"/>
<path d="M35.6143 14.0001C35.6143 15.7513 35.1217 17.4673 34.1926 18.9517C33.2635 20.4362 31.9355 21.6294 30.3604 22.3948C28.7852 23.1602 27.0265 23.467 25.2853 23.2801C23.544 23.0932 21.8905 22.4202 20.5137 21.3379C21.6245 20.4644 22.5226 19.3501 23.1401 18.079C23.7576 16.8079 24.0784 15.4132 24.0784 14.0001C24.0784 12.5869 23.7576 11.1922 23.1401 9.92111C22.5226 8.65001 21.6245 7.5357 20.5137 6.66221C21.8905 5.57997 23.544 4.90694 25.2853 4.72005C27.0265 4.53316 28.7852 4.83995 30.3604 5.60536C31.9355 6.37076 33.2635 7.5639 34.1926 9.04839C35.1217 10.5329 35.6143 12.2488 35.6143 14.0001Z" fill="#F79E1B"/>
<path d="M34.7226 19.7837V19.4832H34.8437V19.422H34.5352V19.4832H34.6564V19.7837H34.7226ZM35.3216 19.7837V19.4214H35.227L35.1182 19.6706L35.0094 19.4214H34.9148V19.7837H34.9815V19.5104L35.0836 19.746H35.1528L35.2548 19.5098V19.7837H35.3216Z" fill="#F79E1B"/>
</svg>
