<svg width="3831" height="2414" viewBox="0 0 3831 2414" fill="none" xmlns="http://www.w3.org/2000/svg">
<rect width="3830.87" height="2413.56" rx="150" fill="white"/>
<path d="M3580.87 1578.46C3578.28 1581.94 3574.59 1581.38 3570.96 1581.22C3500.85 1578.23 3442.26 1550.4 3394.58 1499.34C3364.17 1466.77 3344.47 1428.32 3332.99 1385.48C3331.93 1381.51 3330.77 1377.57 3327.81 1373.87C3327.67 1377 3327.42 1380.12 3327.39 1383.25C3327.14 1408.21 3327.13 1433.17 3326.68 1458.12C3325.44 1527.61 3274.66 1569.15 3224.55 1579.22C3148.41 1594.53 3075.73 1537.98 3073.55 1460.46C3072.79 1433.52 3073.12 1406.55 3072.96 1379.59C3072.94 1376.41 3072.96 1373.23 3071.23 1369.8C3070.27 1372.81 3069.22 1375.8 3068.37 1378.85C3058.69 1413.71 3045.05 1446.77 3024.11 1476.54C2989.23 1526.12 2941.15 1556.47 2883.22 1571.87C2866.54 1576.3 2849.33 1578.76 2832.31 1581.87C2828.17 1582.63 2823.85 1582.43 2818.75 1582.71C2818.53 1578.32 2818.2 1574.77 2818.2 1571.21C2818.18 1386.82 2818.02 1202.42 2818.24 1018.03C2818.35 924.88 2876.98 851.6 2967.33 830.61C3071.21 806.48 3173.78 872.15 3195.03 976.35C3195.85 980.36 3197.05 984.3 3198.07 988.27C3198.75 988.18 3199.42 988.08 3200.1 987.99C3201.76 981.04 3203.4 974.09 3205.07 967.15C3225.01 884.51 3302.03 834.38 3361.65 826.29C3396.47 821.57 3430.02 827.12 3462.4 840.33C3481.61 848.17 3499.72 858.01 3515.79 871.24C3555.55 903.96 3576.76 946.01 3578.86 997.5C3579.33 1009.13 3579.36 1020.78 3579.75 1032.42C3579.87 1036.03 3580.48 1039.63 3580.86 1043.23V1578.45L3580.87 1578.46Z" fill="#A81715"/>
<path d="M1773.26 530C1777.4 530.91 1781.53 531.88 1785.68 532.72C1841.26 544.01 1883.13 589.89 1889.3 646.58C1890.31 655.82 1890.85 665.15 1890.85 674.44C1890.94 848.46 1890.92 1022.48 1890.92 1196.51C1890.92 1237.44 1891.7 1278.38 1890.76 1319.28C1888.14 1433.33 1813.07 1534.39 1705.77 1569.29C1656.54 1585.3 1607.35 1583.04 1558.38 1568.12C1503.57 1551.42 1457.13 1522.31 1424.42 1474.39C1394.04 1429.88 1377.72 1380.47 1377.56 1326.35C1377.32 1241.51 1376.66 1156.65 1377.85 1071.82C1379.53 952.32 1470.37 848.72 1588.76 829.38C1600.55 827.45 1612.4 825.92 1625.6 824.01C1625.6 819.78 1625.6 815.93 1625.6 812.08C1625.6 762.83 1625.34 713.59 1625.68 664.35C1625.98 620.89 1642.47 584.76 1676.87 557.56C1694.69 543.47 1714.93 534.58 1737.69 531.82C1739.59 531.59 1741.41 530.63 1743.26 530.01C1753.26 530.01 1763.26 530.01 1773.25 530.01L1773.26 530Z" fill="#A81715"/>
<path d="M2087.19 530C2091.98 531.06 2096.77 532.12 2101.56 533.2C2156.44 545.58 2195.65 588.25 2203.46 644.08C2213.4 715.1 2167.43 780.04 2096.69 792.64C2009.66 808.14 1935.58 740.81 1940.65 654.58C1944.23 593.71 1985.06 546.21 2043.88 533.11C2048.32 532.12 2052.75 531.04 2057.18 530C2067.18 530 2077.18 530 2087.17 530H2087.19Z" fill="#A81715"/>
<path d="M3580.87 1722.25C3577.93 1729.84 3572.32 1732.49 3564.38 1731.86C3558.44 1731.4 3552.44 1731.77 3545.22 1731.77C3545.04 1735.77 3544.76 1739.26 3544.75 1742.75C3544.66 1783.3 3544.62 1823.85 3544.56 1864.4C3544.56 1867.39 3544.78 1870.43 3544.35 1873.36C3543.45 1879.37 3538.53 1883.46 3532.59 1883.56C3526.19 1883.67 3521.33 1879.38 3520.61 1872.69C3520.29 1869.73 3520.43 1866.71 3520.44 1863.72C3520.52 1823.84 3520.61 1783.95 3520.7 1744.07C3520.7 1740.48 3520.7 1736.89 3520.7 1732.18C3514.02 1732.03 3508.16 1731.98 3502.31 1731.74C3499.01 1731.6 3495.59 1731.62 3492.48 1730.72C3486.77 1729.06 3484.17 1724.52 3484.68 1718.42C3485.18 1712.45 3488.63 1708.8 3494.77 1708.04C3497.07 1707.75 3499.42 1707.85 3501.75 1707.85C3522.72 1707.84 3543.69 1708.05 3564.65 1707.73C3571.95 1707.62 3577.52 1709.49 3580.87 1716.26V1722.25Z" fill="#A81715"/>
<path d="M464.297 1204.3C460.337 1204.3 456.377 1204.35 452.417 1204.3C423.447 1203.89 394.367 1204.89 365.517 1202.76C303.737 1198.18 254.197 1147.98 251.797 1086.27C249.677 1031.77 250.487 977.17 250.057 922.62C249.957 909.31 249.997 895.99 250.117 882.68C250.247 867.38 250.487 852.08 250.797 836.78C250.857 833.85 251.477 830.94 251.897 827.48C257.337 826.98 262.257 826.14 267.187 826.13C348.827 825.93 430.497 824.4 512.097 826.06C631.787 828.49 735.897 910.36 759.647 1034.48C763.827 1056.29 763.027 1078.21 763.257 1100.13C763.797 1152.04 764.367 1203.95 764.207 1255.86C764.117 1287.79 763.457 1319.75 761.737 1351.63C758.897 1404.37 738.357 1450.32 704.237 1490.12C663.047 1538.18 611.037 1567.64 548.297 1577.66C540.737 1578.87 533.077 1579.37 525.467 1580.29C522.257 1580.68 519.067 1581.31 515.227 1581.93C515.227 1595.68 515.217 1608.62 515.227 1621.57C515.267 1662.84 515.617 1704.11 515.307 1745.37C514.817 1811.46 466.737 1866.99 401.167 1875.24C315.867 1885.96 256.697 1824.19 251.407 1757.11C250.677 1747.84 250.157 1738.52 250.147 1729.22C250.057 1642.02 249.967 1554.83 250.167 1467.63C250.227 1439.92 252.977 1412.42 261.657 1385.93C292.747 1290.99 357.677 1232.73 454.497 1209.25C457.897 1208.43 461.297 1207.56 464.697 1206.72C464.567 1205.91 464.437 1205.11 464.307 1204.3H464.297Z" fill="#A81715"/>
<path d="M2513.28 1036.57C2526.87 984.65 2550.5 938.49 2589.68 901.3C2609.13 882.83 2630.99 867.76 2654.86 855.56C2674.53 845.5 2695.17 838.13 2716.86 833.95C2733.52 830.74 2750.35 828.71 2768.23 830.03C2768.46 833.08 2768.87 835.94 2768.87 838.81C2768.9 1001.54 2770.56 1164.29 2768.27 1326.98C2766.87 1426.89 2722.95 1506.28 2632.58 1553.08C2484.81 1629.61 2319.29 1557.07 2268.7 1411.14C2260.69 1388.03 2256.17 1364.17 2255.56 1339.79C2254.77 1308.21 2254.86 1276.61 2254.71 1245.02C2254.5 1198.77 2254.28 1152.52 2254.33 1106.26C2254.38 1056.68 2254.92 1007.11 2254.92 957.53C2254.93 883.46 2303.32 845.87 2355.34 831.61C2425.58 812.36 2510.51 870.54 2511.13 950.41C2511.33 976.36 2511.24 1002.31 2511.28 1028.27C2511.28 1030.81 2511.28 1033.35 2511.28 1035.89C2511.95 1036.12 2512.61 1036.34 2513.28 1036.57Z" fill="#A81715"/>
<path d="M1326.05 1203.94C1326.05 1224.23 1326.34 1244.52 1325.98 1264.8C1325.42 1296.37 1326.25 1328.12 1323.21 1359.47C1317.27 1420.6 1289.64 1471.82 1244.65 1513.26C1193.9 1560.02 1133.41 1582.76 1064.39 1581.64C944.187 1579.7 840.467 1492.11 818.417 1373.84C815.327 1357.26 814.077 1340.13 813.987 1323.25C813.537 1242.73 813.747 1162.21 813.797 1081.69C813.867 962.76 894.937 860.73 1011.05 833.37C1144.75 801.86 1277.62 878.89 1316.11 1010.28C1322.22 1031.13 1325.71 1052.43 1325.77 1074.18C1325.89 1117.43 1325.81 1160.69 1325.81 1203.94C1325.89 1203.94 1325.98 1203.94 1326.06 1203.94H1326.05Z" fill="#A81715"/>
<path d="M1940.37 1207.77C1940.37 1127.58 1940.4 1047.39 1940.36 967.19C1940.34 932.2 1950.18 900.51 1974.61 875.03C2011.53 836.52 2057.26 822.09 2108.55 836.64C2160.66 851.43 2191.68 888.36 2203.07 941.33C2204.32 947.13 2204.79 953.2 2204.79 959.14C2204.88 1122.19 2204.93 1285.23 2204.83 1448.28C2204.79 1512.35 2162.26 1564.86 2100.73 1578.68C2030.44 1594.48 1960.72 1550.86 1943.6 1478.99C1941.16 1468.76 1940.54 1457.91 1940.51 1447.34C1940.26 1367.48 1940.38 1287.62 1940.38 1207.76L1940.37 1207.77Z" fill="#A81715"/>
<path d="M3362.7 1806.29C3371.45 1824.7 3379.74 1842.1 3387.99 1859.51C3389.27 1862.21 3390.68 1864.89 3391.59 1867.72C3393.38 1873.28 3391.18 1878.74 3386.38 1881.4C3380.67 1884.57 3373.97 1883.45 3370.27 1878.39C3368.72 1876.28 3367.73 1873.74 3366.6 1871.34C3358.05 1853.33 3349.53 1835.3 3340.98 1817.29C3339.56 1814.3 3338.03 1811.37 3336.5 1808.29H3316.89C3316.64 1811.55 3316.25 1814.42 3316.23 1817.31C3316.17 1832.94 3316.23 1848.56 3316.17 1864.19C3316.16 1867.17 3316.17 1870.21 3315.61 1873.12C3314.34 1879.7 3310.25 1882.86 3303.72 1882.76C3297.24 1882.67 3293.03 1879.35 3291.81 1872.95C3291.32 1870.37 3291.41 1867.66 3291.41 1865C3291.47 1818.79 3291.56 1772.58 3291.65 1726.37C3291.65 1724.05 3291.58 1721.69 3291.91 1719.4C3292.99 1712 3296.91 1707.37 3304.24 1707.34C3321.52 1707.27 3339.04 1706.46 3356.04 1708.9C3381.75 1712.58 3398.64 1739.91 3393.93 1766.84C3391.06 1783.27 3382.64 1795.72 3367.63 1803.45C3366.21 1804.18 3364.85 1805.04 3362.69 1806.29H3362.7ZM3316.78 1783.7C3328.18 1783.7 3338.82 1784.5 3349.28 1783.5C3362.19 1782.26 3370.51 1771.18 3370.42 1757.45C3370.33 1744.54 3362.34 1733.25 3350.86 1732.18C3339.78 1731.15 3328.52 1731.96 3316.79 1731.96V1783.71L3316.78 1783.7Z" fill="#A81715"/>
<path d="M1817.52 1791.86C1817.52 1768.24 1817.4 1744.62 1817.57 1721C1817.66 1708.37 1821.7 1704.66 1834.56 1704.6C1845.55 1704.55 1856.55 1704.52 1867.54 1704.6C1898.31 1704.83 1918.44 1724.5 1918.7 1755.06C1918.91 1780.01 1918.81 1804.96 1918.45 1829.91C1918.03 1858.62 1899.01 1878.09 1870.29 1879.2C1857.65 1879.69 1844.97 1879.5 1832.32 1879.24C1821.62 1879.02 1817.32 1874.42 1817.3 1863.73C1817.24 1839.78 1817.28 1815.82 1817.28 1791.87H1817.53L1817.52 1791.86ZM1841.8 1729.14C1841.04 1771.02 1841.62 1812.37 1841.41 1853.77C1843.43 1854.38 1844.66 1855.06 1845.91 1855.08C1853.22 1855.21 1860.55 1855.46 1867.85 1855.17C1883.95 1854.52 1893.66 1844.6 1893.93 1828.57C1894.21 1811.31 1894.3 1794.04 1894.36 1776.78C1894.39 1768.48 1894.65 1760.15 1893.97 1751.9C1893.01 1740.07 1885.22 1730.85 1873.55 1729.4C1863.52 1728.16 1853.22 1729.14 1841.8 1729.14Z" fill="#A81715"/>
<path d="M2686.82 1782.63C2690.03 1778.24 2692.03 1775.66 2693.87 1772.97C2706.84 1754.03 2719.78 1735.06 2732.74 1716.11C2734.24 1713.91 2735.61 1711.59 2737.34 1709.58C2742.18 1703.95 2748.54 1703.13 2754.21 1707.22C2759.2 1710.83 2760.46 1717.08 2757.23 1723.25C2756 1725.6 2754.39 1727.75 2752.89 1729.95C2743.71 1743.43 2734.91 1757.18 2725.16 1770.23C2720.42 1776.57 2720.65 1781.44 2724.1 1788.23C2735.86 1811.34 2746.91 1834.81 2758.21 1858.16C2759.51 1860.85 2760.92 1863.53 2761.84 1866.36C2763.83 1872.47 2761.51 1877.84 2756.02 1880.58C2750.55 1883.32 2744.37 1882.15 2740.77 1877.36C2739.19 1875.26 2738.14 1872.75 2736.98 1870.36C2727.7 1851.21 2718.47 1832.03 2709.19 1812.88C2707.75 1809.91 2706.15 1807.02 2703.84 1802.6C2695.48 1815.35 2683.71 1824.65 2685.72 1841.52C2686.81 1850.69 2685.97 1860.13 2685.48 1869.43C2685.02 1878.02 2680.6 1882.11 2673.15 1881.81C2665.89 1881.52 2661.56 1876.98 2661.49 1868.47C2661.32 1848.51 2661.54 1828.55 2661.55 1808.58C2661.57 1780.3 2661.55 1752.02 2661.57 1723.74C2661.57 1720.75 2661.48 1717.7 2662.03 1714.8C2663.24 1708.38 2667.68 1704.72 2673.79 1704.64C2679.98 1704.56 2684.55 1708.01 2685.67 1714.49C2686.4 1718.7 2686.25 1723.09 2686.24 1727.4C2686.2 1743.7 2686.05 1760 2685.98 1776.3C2685.98 1777.56 2686.3 1778.82 2686.83 1782.63H2686.82Z" fill="#A81715"/>
<path d="M2310.15 1839.7H2254.12C2251.23 1848.79 2248.36 1857.88 2245.43 1866.95C2244.51 1869.79 2243.81 1872.79 2242.34 1875.33C2239.26 1880.66 2232.54 1882.44 2226.55 1879.96C2221.2 1877.74 2218.8 1873.19 2219.86 1867C2220.14 1865.37 2220.74 1863.8 2221.24 1862.21C2236.6 1813.72 2251.99 1765.24 2267.28 1716.73C2269.46 1709.82 2272.98 1704.77 2280.87 1704.19C2288.77 1703.61 2293.64 1706.41 2296.29 1713.96C2299.04 1721.8 2301.26 1729.82 2303.74 1737.75C2316.45 1778.36 2329.18 1818.97 2341.89 1859.58C2342.59 1861.8 2343.32 1864.02 2343.81 1866.29C2345.35 1873.45 2342.72 1878.44 2336.44 1880.48C2330.15 1882.52 2324.03 1880.36 2321.34 1874.33C2319.05 1869.2 2317.64 1863.67 2315.92 1858.29C2314.01 1852.32 2312.2 1846.32 2310.15 1839.69V1839.7ZM2283.15 1751.7C2274.94 1772.5 2267.93 1792.95 2262.38 1814.61H2302.29C2295.69 1792.92 2289.42 1772.31 2283.15 1751.7Z" fill="#A81715"/>
<path d="M1715.08 1865.97C1714.55 1862.72 1713.45 1859.54 1712.46 1856.38C1698.07 1810.43 1683.57 1764.51 1669.32 1718.52C1666.82 1710.45 1664.08 1703.22 1654.09 1702.73C1645.9 1702.33 1641.24 1706.78 1637.59 1718.3C1622.93 1764.51 1608.28 1810.73 1593.65 1856.96C1592.75 1859.8 1591.77 1862.67 1591.31 1865.6C1590.15 1872.97 1593.11 1877.86 1599.38 1879.52C1605.97 1881.26 1612.16 1878.3 1614.76 1871.79C1616.36 1867.79 1617.4 1863.57 1618.68 1859.45C1620.9 1852.28 1623.1 1845.11 1625.17 1838.4H1681.1C1683.25 1845.12 1685.36 1851.71 1687.46 1858.31C1688.97 1863.06 1690.13 1867.95 1692.05 1872.52C1694.77 1879.01 1701.15 1881.6 1707.75 1879.47C1713.45 1877.63 1716.19 1872.86 1715.08 1865.99V1865.97ZM1633.3 1813.89C1638.95 1792.38 1645.92 1772.06 1652.11 1751.51C1652.92 1751.48 1653.73 1751.46 1654.54 1751.43C1660.81 1772.02 1667.09 1792.62 1673.57 1813.89H1633.3Z" fill="#A81715"/>
<path d="M2885.87 1840.64C2883.44 1848.61 2880.96 1856.76 2878.44 1864.9C2877.46 1868.07 2876.6 1871.31 2875.29 1874.34C2872.34 1881.12 2865.62 1883.85 2858.79 1881.31C2852.95 1879.13 2850.14 1873.62 2852.23 1866.62C2856.89 1851.03 2861.97 1835.57 2866.88 1820.05C2877.69 1785.85 2888.44 1751.64 2899.36 1717.47C2902.79 1706.74 2910.64 1702.71 2919.99 1706.13C2925.77 1708.24 2927.57 1712.99 2929.2 1718.23C2938.36 1747.72 2947.65 1777.18 2956.88 1806.65C2962.44 1824.4 2967.97 1842.15 2973.5 1859.91C2974.29 1862.45 2975.19 1864.96 2975.76 1867.55C2977.19 1874.08 2974.62 1879.4 2969.24 1881.44C2962.82 1883.87 2955.86 1881.6 2953.23 1875.38C2950.66 1869.29 2949.04 1862.79 2946.99 1856.48C2945.36 1851.46 2943.73 1846.44 2941.84 1840.64H2885.87ZM2934.22 1815.94C2927.67 1794.4 2921.37 1773.68 2915.08 1752.97C2914.41 1752.99 2913.73 1753.02 2913.06 1753.04C2906.7 1773.74 2900.34 1794.45 2893.73 1815.94H2934.23H2934.22Z" fill="#A81715"/>
<path d="M3099.77 1840.57C3096.32 1851.69 3093.23 1862.16 3089.8 1872.52C3087.33 1879.97 3083.47 1882.62 3076.69 1882.33C3068.92 1882 3064.38 1876.82 3065.4 1869.16C3065.75 1866.55 3066.66 1864 3067.46 1861.47C3082.2 1814.88 3096.97 1768.29 3111.74 1721.7C3112.54 1719.17 3113.28 1716.59 3114.38 1714.18C3117.16 1708.11 3122.01 1705.31 3128.82 1705.66C3135.07 1705.98 3139.64 1708.75 3141.65 1714.91C3143.71 1721.23 3145.68 1727.58 3147.66 1733.93C3160.85 1776.13 3174.04 1818.33 3187.22 1860.54C3188.01 1863.08 3188.9 1865.61 3189.4 1868.21C3190.7 1875.04 3188.14 1879.99 3182.55 1881.85C3175.91 1884.06 3169.18 1881.75 3166.72 1875.35C3163.39 1866.68 3161 1857.65 3158.14 1848.8C3155.53 1840.7 3155.49 1840.62 3147.16 1840.59C3131.55 1840.53 3115.93 1840.57 3099.79 1840.57H3099.77ZM3147.83 1816.1C3141.32 1794.67 3135.05 1774.07 3128.79 1753.48C3128.09 1753.49 3127.39 1753.5 3126.7 1753.51C3120.37 1774.12 3114.04 1794.74 3107.48 1816.1H3147.83Z" fill="#A81715"/>
<path d="M2055.4 1778C2067.41 1778 2079.04 1778 2090.66 1778C2093.32 1778 2096 1777.88 2098.65 1778.1C2105.79 1778.69 2109.97 1782.89 2110.09 1789.39C2110.22 1796.29 2105.81 1801.3 2098.44 1801.71C2091.47 1802.11 2084.46 1801.83 2077.47 1801.84C2070.18 1801.84 2062.88 1801.84 2054.69 1801.84V1854.99C2057.99 1855.19 2061.5 1855.55 2065.02 1855.58C2082 1855.73 2098.98 1855.73 2115.96 1855.93C2118.89 1855.96 2122.15 1856.05 2124.66 1857.3C2129.2 1859.55 2131.21 1863.86 2130.69 1868.95C2130.17 1874.08 2127.22 1877.67 2122.3 1879.02C2119.48 1879.8 2116.37 1879.69 2113.39 1879.69C2091.08 1879.69 2068.77 1879.63 2046.46 1879.52C2033.85 1879.46 2029.55 1875.32 2029.54 1862.87C2029.52 1815.98 2029.58 1769.08 2029.69 1722.19C2029.72 1709.16 2034.07 1704.79 2047.09 1704.78C2069.73 1704.76 2092.37 1704.92 2115.02 1705.04C2117.01 1705.04 2119.05 1705.01 2120.98 1705.39C2127.28 1706.6 2131 1711.11 2130.96 1717.22C2130.92 1723.39 2127.26 1727.7 2120.72 1728.69C2117.45 1729.18 2114.08 1729.08 2110.76 1729.09C2092.48 1729.12 2074.19 1729.11 2056.02 1729.11C2053.62 1736.37 2053.16 1764.96 2055.4 1777.99V1778Z" fill="#A81715"/>
<path d="M2547.11 1777.23C2547.11 1795.53 2547.21 1813.82 2547.09 1832.12C2546.89 1860.29 2526.04 1881.24 2497.9 1881.72C2469.23 1882.21 2446.85 1861.77 2446.43 1833.36C2445.87 1796.11 2446.3 1758.84 2446.33 1721.58C2446.33 1719.26 2446.48 1716.91 2446.84 1714.62C2447.85 1708.03 2451.86 1704.49 2458.22 1704.36C2464.45 1704.24 2469.19 1707.78 2470.38 1713.95C2470.94 1716.85 2470.79 1719.91 2470.78 1722.9C2470.75 1759.16 2471.06 1795.43 2470.48 1831.68C2470.22 1847.82 2487.01 1862.96 2506.27 1855.98C2516.72 1852.19 2522.98 1842.69 2523.06 1830.2C2523.2 1805.25 2523.21 1780.3 2523.26 1755.35C2523.28 1742.71 2523.13 1730.06 2523.34 1717.42C2523.47 1709.91 2527.14 1705.55 2533.34 1704.57C2541.3 1703.31 2547.1 1708.37 2547.22 1717.34C2547.43 1733.97 2547.29 1750.61 2547.3 1767.24C2547.3 1770.57 2547.3 1773.89 2547.3 1777.22C2547.24 1777.22 2547.19 1777.22 2547.13 1777.22L2547.11 1777.23Z" fill="#A81715"/>
<path d="M1399.49 1790.67C1399.49 1777.71 1399.4 1764.74 1399.51 1751.78C1399.71 1729.29 1412.53 1711.37 1432.94 1704.84C1454.88 1697.82 1480.54 1705.6 1493.01 1723.02C1498.25 1730.34 1500.7 1738.46 1499.75 1747.42C1499.05 1754.06 1495.83 1757.37 1489.98 1758.18C1483.38 1759.09 1479.33 1756.79 1476.68 1750.37C1475.8 1748.24 1475.44 1745.89 1474.64 1743.72C1470.04 1731.21 1458.64 1724.51 1445.43 1726.5C1432.45 1728.45 1423.85 1737.49 1423.66 1751C1423.28 1777.92 1423.31 1804.85 1423.64 1831.77C1423.79 1844.57 1432.35 1853.69 1444.8 1855.77C1457.32 1857.87 1468.55 1852.13 1473.52 1840.94C1474.59 1838.53 1475.07 1835.87 1475.97 1833.38C1478.68 1825.95 1483.4 1823.03 1490.44 1824.33C1496.24 1825.4 1499.34 1829.48 1499.69 1836.68C1500.05 1844.2 1498.24 1851.15 1494.18 1857.53C1483.97 1873.57 1461.25 1882.95 1440.72 1879.12C1419.84 1875.22 1405.87 1863.36 1400.66 1842.4C1399.56 1837.95 1399.44 1833.19 1399.38 1828.57C1399.22 1815.94 1399.32 1803.31 1399.32 1790.68C1399.37 1790.68 1399.42 1790.68 1399.47 1790.68L1399.49 1790.67Z" fill="#A81715"/>
</svg>
