<svg width="51" height="28" viewBox="0 0 51 28" fill="none" xmlns="http://www.w3.org/2000/svg">
<rect x="0.279297" width="50.44" height="28" rx="2" fill="white"/>
<path d="M22.6155 20.798H19.1113L21.3031 7.24561H24.8071L22.6155 20.798Z" fill="#00579F"/>
<path d="M35.3203 7.57698C34.6291 7.30277 33.5328 7 32.1773 7C28.7168 7 26.2799 8.84533 26.2649 11.4836C26.2362 13.4301 28.0097 14.5113 29.3361 15.1603C30.6918 15.8235 31.1527 16.2564 31.1527 16.8475C31.1389 17.7554 30.0572 18.1739 29.0483 18.1739C27.6492 18.1739 26.8996 17.9582 25.7604 17.4531L25.299 17.2365L24.8086 20.2787C25.6305 20.6532 27.1447 20.9854 28.7168 21C32.3936 21 34.7874 19.1832 34.8157 16.3717C34.8297 14.829 33.8933 13.6468 31.8743 12.6809C30.6487 12.0608 29.8981 11.6427 29.8981 11.0082C29.9125 10.4314 30.533 9.84062 31.9165 9.84062C33.0557 9.81169 33.8927 10.0855 34.5268 10.3595L34.8437 10.5034L35.3203 7.57698Z" fill="#00579F"/>
<path d="M39.9763 15.9969C40.2649 15.2183 41.3753 12.205 41.3753 12.205C41.3608 12.2339 41.6633 11.4121 41.8364 10.9075L42.0813 12.0753C42.0813 12.0753 42.7449 15.3193 42.889 15.9969C42.3413 15.9969 40.6684 15.9969 39.9763 15.9969ZM44.3018 7.24561H41.5913C40.7554 7.24561 40.1204 7.4905 39.7598 8.37005L34.5547 20.7978H38.2316C38.2316 20.7978 38.8369 19.1251 38.967 18.7648C39.3704 18.7648 42.9472 18.7648 43.4661 18.7648C43.5667 19.2407 43.8843 20.7978 43.8843 20.7978H47.1288L44.3018 7.24561Z" fill="#00579F"/>
<path d="M16.1848 7.24561L12.753 16.487L12.378 14.6128C11.7435 12.4501 9.75373 10.1004 7.5332 8.93208L10.6766 20.7836H14.3822L19.8902 7.24561H16.1848Z" fill="#00579F"/>
<path d="M9.56671 7.24561H3.92877L3.87109 7.51943C8.26904 8.64407 11.1817 11.355 12.3784 14.6133L11.1528 8.38481C10.951 7.51924 10.3309 7.27416 9.56671 7.24561Z" fill="#FAA61A"/>
</svg>
