<svg width="32" height="28" viewBox="0 0 32 28" fill="none" xmlns="http://www.w3.org/2000/svg">
<g clip-path="url(#clip0_99_4530)">
<path d="M0 2.07561V25.9244C0 27.066 0.934025 28 2.07561 28H16.3247C27.0971 28 31.7672 21.9704 31.7672 13.9689C31.7672 6.0089 27.0971 0 16.3247 0H2.07561C0.934025 0 0 0.934025 0 2.07561Z" fill="white"/>
<path d="M9.53711 5.85329V23.4752H17.2065C24.1702 23.4752 27.1902 19.542 27.1902 13.9793C27.1902 8.65537 24.1702 4.5249 17.2065 4.5249H10.8655C10.1287 4.5249 9.53711 5.12683 9.53711 5.85329Z" fill="#CC0066"/>
<path d="M16.3254 26.1009H3.93399C2.83392 26.1009 1.94141 25.2084 1.94141 24.1083V3.90225C1.94141 2.80218 2.83392 1.90967 3.93399 1.90967H16.3254C28.0837 1.90967 29.8376 9.47527 29.8376 13.9793C29.8376 21.794 25.0326 26.1009 16.3254 26.1009ZM3.93399 2.57386C3.19715 2.57386 2.6056 3.16541 2.6056 3.90225V24.1083C2.6056 24.8452 3.19715 25.4367 3.93399 25.4367H16.3254C24.6071 25.4367 29.1734 21.3685 29.1734 13.9793C29.1734 4.05793 21.1201 2.57386 16.3254 2.57386H3.93399Z" fill="black"/>
<path d="M12.2349 11.6027C12.5047 11.6027 12.7538 11.6442 12.9925 11.7272C13.2312 11.8102 13.4283 11.9451 13.6048 12.1112C13.7708 12.2876 13.9057 12.5056 14.0095 12.7546C14.1029 13.0141 14.1548 13.315 14.1548 13.6679C14.1548 13.9792 14.1133 14.2594 14.0406 14.5189C13.9576 14.7783 13.8435 15.0067 13.6878 15.1935C13.5321 15.3803 13.3349 15.5256 13.0962 15.6397C12.8575 15.7435 12.5773 15.8058 12.2556 15.8058H10.4395V11.5923H12.2349V11.6027ZM12.1726 15.0378C12.3075 15.0378 12.432 15.017 12.567 14.9755C12.6915 14.934 12.8057 14.8614 12.8991 14.7576C12.9925 14.6538 13.0755 14.5293 13.1377 14.3632C13.2 14.1972 13.2312 14.0104 13.2312 13.7717C13.2312 13.5641 13.2104 13.3669 13.1689 13.2009C13.1274 13.0348 13.0547 12.8792 12.9613 12.765C12.8679 12.6508 12.7434 12.5471 12.5877 12.4848C12.432 12.4225 12.2452 12.3914 12.0169 12.3914H11.3527V15.0482H12.1726V15.0378Z" fill="white"/>
<path d="M17.9004 11.6027V12.381H15.6795V13.2839H17.724V14H15.6795V15.0274H17.9523V15.8058H14.7559V11.5923H17.9004V11.6027Z" fill="white"/>
<path d="M21.0764 11.6028L22.6539 15.8163H21.6887L21.367 14.8822H19.7896L19.4575 15.8163H18.5234L20.1113 11.6028H21.0764ZM21.1283 14.1869L20.599 12.6406H20.5887L20.0386 14.1869H21.1283Z" fill="white"/>
<path d="M24.16 11.6028V15.0379H26.2148V15.8163H23.2363V11.6028H24.16Z" fill="white"/>
<path d="M6.07156 15.6502C7.14337 15.6502 8.01225 14.7813 8.01225 13.7095C8.01225 12.6377 7.14337 11.7688 6.07156 11.7688C4.99974 11.7688 4.13086 12.6377 4.13086 13.7095C4.13086 14.7813 4.99974 15.6502 6.07156 15.6502Z" fill="black"/>
<path d="M7.53465 23.4752C5.90529 23.4752 4.59766 22.1572 4.59766 20.5382V18.2447C4.59766 17.4352 5.25147 16.771 6.07134 16.771C6.88083 16.771 7.54502 17.4248 7.54502 18.2447V23.4752H7.53465Z" fill="black"/>
</g>
<defs>
<clipPath id="clip0_99_4530">
<rect width="31.7672" height="28" fill="white"/>
</clipPath>
</defs>
</svg>
