<?xml version="1.0" standalone="no"?>
<!DOCTYPE svg PUBLIC "-//W3C//DTD SVG 20010904//EN"
 "http://www.w3.org/TR/2001/REC-SVG-20010904/DTD/svg10.dtd">
<svg version="1.0" xmlns="http://www.w3.org/2000/svg"
 width="1010.000000pt" height="1010.000000pt" viewBox="0 0 1010.000000 1010.000000"
 preserveAspectRatio="xMidYMid meet">
<metadata>
Created by potrace 1.14, written by Peter Selinger 2001-2017
</metadata>
<g transform="translate(0.000000,1010.000000) scale(0.100000,-0.100000)"
fill="#000000" stroke="none">
<path d="M5078 9996 c-1 -2 -46 -6 -98 -10 -282 -19 -332 -31 -139 -35 200 -3
345 -12 454 -26 17 -2 56 -7 88 -10 32 -4 68 -8 80 -11 12 -2 49 -9 82 -14
350 -54 710 -157 1070 -304 231 -95 650 -321 818 -442 26 -19 49 -34 52 -34
10 0 252 -186 368 -283 122 -102 426 -400 524 -514 181 -211 435 -569 531
-748 11 -22 -18 15 -113 140 -144 191 -249 310 -434 495 -368 366 -749 643
-1206 875 -88 44 -180 89 -205 100 -25 10 -81 34 -125 53 -362 154 -890 293
-1245 327 -30 3 -66 7 -80 10 -102 20 -703 28 -890 12 -156 -14 -250 -24 -280
-32 -8 -2 -42 -7 -75 -11 -33 -3 -62 -8 -65 -9 -3 -2 -26 -6 -50 -10 -25 -4
-97 -18 -160 -32 -63 -13 -124 -26 -135 -29 -11 -2 -90 -24 -175 -49 -203 -59
-370 -118 -583 -207 -81 -34 -378 -183 -474 -239 -207 -119 -514 -330 -644
-443 -19 -17 -62 -53 -95 -81 -78 -66 -175 -157 -297 -280 l-100 -100 69 90
c210 277 491 563 789 806 44 35 96 76 115 89 19 13 37 27 40 30 18 23 294 205
439 289 113 66 391 211 404 211 3 0 38 15 79 34 311 143 805 288 1153 340 36
5 -192 -3 -250 -9 -113 -12 -155 -17 -210 -25 -33 -5 -78 -12 -100 -15 -368
-55 -838 -195 -1190 -355 -1035 -471 -1847 -1258 -2344 -2275 -40 -82 -74
-154 -75 -160 -1 -5 -4 -15 -8 -20 -11 -18 -89 -217 -125 -320 -101 -287 -190
-659 -218 -910 -2 -16 -6 -46 -9 -65 -22 -153 -31 -312 -31 -580 0 -227 9
-428 20 -485 3 -11 7 -45 10 -75 18 -188 62 -418 127 -664 36 -137 97 -333
118 -381 4 -11 32 -81 60 -155 53 -136 193 -431 271 -570 49 -88 162 -270 165
-267 1 1 -31 70 -71 152 -41 83 -99 213 -131 290 -53 130 -148 401 -158 449
-3 12 -14 53 -26 91 -25 85 -85 354 -100 450 -15 90 -18 114 -45 335 -26 208
-26 738 0 945 2 17 7 53 10 80 43 386 150 807 300 1186 70 176 210 466 297
614 36 61 71 121 79 135 8 14 16 27 19 30 3 3 27 39 54 80 81 124 165 238 268
365 141 174 170 205 116 125 -74 -110 -203 -320 -260 -425 -55 -101 -79 -149
-150 -305 -21 -47 -43 -94 -48 -105 -51 -109 -186 -499 -205 -592 -2 -10 -15
-61 -29 -115 -25 -97 -79 -370 -91 -463 -4 -27 -8 -61 -10 -75 -62 -483 -46
-1013 46 -1490 134 -692 408 -1324 822 -1895 68 -93 188 -248 207 -265 3 -3
34 -39 69 -80 147 -171 414 -425 611 -581 161 -127 463 -339 484 -339 3 0 30
-15 59 -34 255 -163 685 -352 1050 -461 82 -25 158 -47 170 -49 12 -3 47 -12
79 -20 31 -8 67 -17 80 -20 12 -2 59 -11 103 -20 114 -22 132 -26 205 -37 36
-5 72 -11 80 -14 8 -2 44 -7 80 -10 36 -3 76 -8 90 -10 84 -12 264 -23 430
-25 184 -3 91 -21 -190 -37 -315 -18 -664 -6 -940 33 -161 22 -174 24 -190 29
-8 2 -33 6 -54 10 -46 6 -50 7 -191 41 -60 14 -119 28 -130 30 -48 9 -279 80
-376 114 -370 132 -706 297 -1027 507 -99 64 -299 207 -357 254 -243 200 -532
480 -681 660 -43 52 -94 113 -111 135 -18 21 -59 76 -90 121 -32 45 -61 82
-65 83 -9 0 105 -185 189 -308 64 -94 216 -296 268 -357 390 -456 747 -760
1235 -1055 223 -135 481 -256 840 -395 79 -31 373 -119 473 -141 9 -2 25 -6
35 -8 28 -7 156 -34 187 -40 107 -20 152 -27 250 -41 147 -19 176 -23 303 -32
202 -15 828 -8 967 12 30 4 95 11 190 21 46 5 286 46 345 58 14 3 50 11 80 17
30 6 96 21 145 34 550 143 1019 349 1500 660 121 78 260 180 395 288 185 149
385 338 551 518 36 40 224 261 252 299 288 373 527 793 698 1225 62 156 148
425 184 573 3 9 14 53 25 96 10 44 21 91 24 105 2 14 13 76 24 136 20 104 28
152 37 227 10 81 17 135 20 158 27 182 27 883 0 1155 -6 63 -24 212 -31 255
-2 14 -6 43 -9 65 -3 22 -8 51 -11 65 -4 23 -7 36 -19 93 -3 12 -10 47 -16 77
-16 84 -76 310 -114 429 -106 337 -258 676 -432 966 -7 11 -15 27 -19 35 -26
56 -271 410 -361 520 -161 199 -427 478 -593 620 -41 36 -81 71 -89 78 -8 8
-39 32 -70 55 -31 23 -62 47 -69 54 -56 53 -410 289 -572 381 -73 42 -357 182
-445 220 -379 164 -900 309 -1245 347 -30 3 -66 8 -80 10 -14 2 -54 7 -89 11
-35 3 -82 8 -105 11 -46 5 -622 13 -628 9z m-1208 -3166 l5 -815 22 -41 c12
-23 41 -56 65 -73 l42 -31 -312 0 -312 0 0 163 -1 162 -18 -45 c-59 -150 -183
-261 -331 -296 -78 -19 -211 -11 -285 17 -250 93 -394 333 -393 656 0 409 256
703 610 703 180 0 318 -82 392 -234 l25 -51 1 105 c3 320 2 398 -9 438 -14 50
-68 114 -111 132 -17 7 -30 15 -30 19 0 3 143 6 317 6 l318 0 5 -815z m1063
381 c256 -66 411 -260 434 -543 l6 -67 -428 -1 c-235 0 -430 -2 -434 -4 -12
-8 7 -155 30 -225 84 -258 345 -372 602 -262 55 24 141 102 174 158 38 65 51
41 19 -38 -102 -252 -348 -397 -651 -383 -400 19 -675 308 -669 700 1 51 7
116 14 145 65 292 287 496 580 535 25 4 46 8 48 9 11 10 210 -8 275 -24z
m-734 -2237 c0 -387 3 -720 7 -741 10 -56 28 -87 76 -127 l43 -36 -370 0 -370
0 43 36 c82 69 77 21 79 734 3 711 4 703 -64 772 -20 21 -42 38 -48 38 -5 0
-18 7 -28 14 -15 12 32 14 307 13 l326 -1 -1 -702z m1006 451 c230 -48 338
-111 399 -233 42 -85 46 -128 49 -522 2 -344 4 -379 21 -419 25 -57 83 -86
154 -76 l47 6 -23 -24 c-60 -64 -190 -108 -319 -108 -200 0 -329 89 -349 242
l-7 51 -24 -50 c-91 -193 -337 -284 -571 -213 -155 47 -244 159 -245 306 -1
182 90 289 308 358 93 29 153 44 260 62 28 5 52 10 55 10 3 1 52 10 109 20
l103 19 -3 180 c-4 175 -5 183 -33 239 -39 81 -95 117 -174 113 -67 -4 -100
-16 -136 -49 -51 -47 -72 -169 -42 -240 21 -51 50 -70 106 -71 28 -1 50 -3 50
-5 0 -15 -48 -71 -77 -91 -124 -85 -308 -77 -401 17 -92 93 -70 266 44 359 68
56 186 102 329 127 32 6 337 -1 370 -8z m3162 -1270 c54 -26 98 -102 88 -152
-2 -10 -4 -26 -4 -35 -1 -10 -16 -34 -33 -54 -110 -125 -313 -56 -310 104 2
72 52 131 132 155 25 7 93 -3 127 -18z m-3772 -331 c96 -33 183 -115 219 -210
37 -96 39 -126 41 -539 2 -286 6 -424 15 -455 8 -31 25 -57 56 -85 24 -23 44
-43 44 -45 0 -3 -164 -5 -365 -5 l-365 0 47 39 c79 69 78 58 80 514 1 433 -3
480 -49 529 -32 34 -48 42 -106 49 -39 4 -58 1 -90 -15 -43 -22 -94 -86 -107
-136 -4 -16 -11 -37 -13 -45 -3 -8 -7 -184 -9 -391 -2 -269 0 -386 9 -410 16
-46 43 -82 79 -103 16 -9 27 -20 25 -24 -3 -6 -644 -8 -721 -3 -20 2 -20 2 1
14 41 24 72 53 90 87 18 33 19 63 19 470 0 429 0 436 -22 476 -12 23 -34 49
-50 59 -31 21 -112 28 -154 13 -48 -17 -96 -80 -121 -160 -21 -70 -22 -88 -22
-428 0 -195 3 -373 8 -395 6 -30 21 -52 61 -90 l53 -50 -351 1 c-194 1 -361 2
-371 3 -14 1 -10 8 20 30 50 35 69 64 81 121 5 25 8 263 7 530 -1 414 -3 490
-17 520 -20 45 -44 72 -85 98 -19 11 -30 22 -25 24 4 3 145 5 313 4 l305 -1 0
-167 c-1 -92 0 -166 1 -165 1 1 14 33 29 72 16 38 34 76 42 83 7 7 13 17 13
21 0 19 110 116 155 137 78 36 121 44 224 41 159 -5 250 -51 327 -167 35 -52
50 -89 60 -143 3 -20 11 -40 18 -44 6 -3 8 -3 4 1 -9 11 45 137 80 188 54 78
136 136 232 163 69 19 214 14 285 -11z m1275 11 c202 -37 315 -100 383 -213
56 -94 60 -126 61 -542 1 -341 3 -379 19 -417 25 -55 81 -84 149 -77 63 7 57
-10 -18 -56 -132 -80 -326 -94 -459 -35 -92 42 -148 115 -161 211 -6 48 -14
72 -14 43 0 -28 -41 -101 -82 -145 -162 -175 -515 -185 -670 -18 -109 118
-108 328 2 441 92 94 246 149 580 207 14 2 41 7 60 11 67 12 75 13 93 14 15 1
17 16 17 160 0 177 -10 239 -49 297 -63 94 -208 110 -293 34 -30 -27 -58 -102
-57 -155 1 -107 44 -160 129 -160 53 0 53 -2 3 -58 -57 -65 -149 -98 -258 -93
-290 15 -329 348 -56 485 63 32 144 58 205 65 21 3 40 7 43 10 7 7 329 -1 373
-9z m1846 -23 c53 -27 99 -73 126 -126 34 -63 32 -191 -3 -266 -14 -30 -39
-68 -55 -84 -38 -37 -121 -76 -170 -78 -45 -2 -114 10 -114 20 0 4 16 22 34
40 40 39 53 90 37 149 -31 114 -193 138 -301 46 -43 -37 -93 -131 -109 -203
-6 -26 -9 -173 -8 -345 2 -285 3 -302 23 -340 28 -51 47 -68 124 -109 l63 -34
-414 0 -413 0 42 35 c81 67 77 36 79 603 2 350 -1 518 -9 548 -11 43 -48 90
-101 128 l-28 20 315 0 316 0 0 -210 c0 -197 4 -237 16 -170 3 16 28 75 55
132 67 140 143 217 250 256 62 23 190 17 245 -12z"/>
<path d="M3063 7096 c-92 -32 -158 -151 -179 -321 -3 -22 -7 -46 -10 -54 -6
-19 -6 -309 1 -341 3 -14 9 -50 15 -80 14 -81 67 -178 117 -216 78 -60 184
-54 263 13 45 39 94 133 107 208 9 50 9 483 0 520 -32 133 -88 219 -169 261
-39 20 -104 25 -145 10z"/>
<path d="M4675 7181 c-54 -23 -102 -100 -131 -211 -20 -80 -22 -92 -30 -213
l-7 -97 199 2 199 3 -3 80 c-2 77 -11 201 -16 227 -2 7 -6 31 -11 53 -8 40
-33 96 -57 126 -29 36 -94 50 -143 30z"/>
<path d="M5061 4775 c-141 -37 -206 -89 -237 -192 -19 -61 -20 -176 -4 -230
57 -188 295 -137 335 72 10 52 16 375 7 375 -4 -1 -49 -12 -101 -25z"/>
<path d="M5725 3191 c-127 -31 -188 -74 -229 -161 -30 -65 -31 -237 0 -295 55
-105 184 -114 263 -18 50 60 62 119 68 316 6 203 16 187 -102 158z"/>
</g>
</svg>
